<?xml version="1.0" encoding="UTF-8"?>
<svg version="1.1" xmlns="http://www.w3.org/2000/svg" width="500" height="500">
<path d="M0 0 C1.134375 0.61875 2.26875 1.2375 3.4375 1.875 C8.56023953 4.78116954 13.48334555 8.22659249 18 12 C18 12.66 18 13.32 18 14 C18.55171875 14.226875 19.1034375 14.45375 19.671875 14.6875 C30.24133628 20.64612246 39.38090506 33.5368577 45 44 C45.77859069 45.22555003 46.56422484 46.44664334 47.35546875 47.6640625 C49.99838523 51.87399232 52.12456979 56.20473116 54.125 60.75 C54.64320313 61.92199951 54.64320313 61.92199951 55.171875 63.11767578 C58.35724455 70.50815866 61 77.8788439 61 86 C62.32 86 63.64 86 65 86 C64.938125 84.824375 64.938125 84.824375 64.875 83.625 C65 81 65 81 67 79 C69.75589777 79.01747927 72.38786676 79.13863271 75.125 79.375 C75.87910156 79.43171875 76.63320313 79.4884375 77.41015625 79.546875 C79.27418096 79.6884465 81.13721137 79.84299959 83 80 C83 81.98 83 83.96 83 86 C83.60585938 85.63648438 84.21171875 85.27296875 84.8359375 84.8984375 C85.67382812 84.39570313 86.51171875 83.89296875 87.375 83.375 C88.29796875 82.82070312 89.2209375 82.26640625 90.171875 81.6953125 C91.88874981 80.66613616 93.60709931 79.63940746 95.328125 78.6171875 C101.30861521 75.0573719 107.20965115 71.37814603 113.10473633 67.67944336 C116.81891921 65.35231067 120.54541735 63.05352365 124.3125 60.8125 C129.61513308 57.65574853 134.80490314 54.32981664 140 51 C142.73689934 49.2569251 145.47503456 47.51584138 148.21484375 45.77734375 C150.17132282 44.52881924 152.12130358 43.27008136 154.06640625 42.00390625 C155.05511719 41.36324219 156.04382813 40.72257812 157.0625 40.0625 C157.96097656 39.47597656 158.85945313 38.88945312 159.78515625 38.28515625 C162 37 162 37 164 37 C163.67 38.65 163.34 40.3 163 42 C161.515 42.495 161.515 42.495 160 43 C159.88398438 43.72832031 159.76796875 44.45664063 159.6484375 45.20703125 C158.98736527 48.05442067 157.99192346 50.11519858 156.625 52.6875 C153.01460231 60.47014402 152.07435142 68.56668136 151 77 C150.89558594 77.7748877 150.79117187 78.54977539 150.68359375 79.34814453 C148.11615109 98.84364661 148.27650094 118.3356616 150.3125 137.875 C150.48881958 139.5755957 150.48881958 139.5755957 150.66870117 141.31054688 C152.10692073 153.75734923 154.92422918 165.07416212 161.25 175.9375 C163 179 163 179 163 181 C154.45980696 179.08549519 147.22906155 173.69740662 140 169 C138.16794818 167.83132196 136.33462539 166.66463381 134.5 165.5 C131.82877662 163.8018383 129.15882092 162.10208146 126.49609375 160.390625 C120.05553646 156.26080201 113.54026006 152.26210608 107.00610352 148.28295898 C99.29821163 143.58432921 91.6443343 138.80114184 84 134 C83.855625 134.804375 83.71125 135.60875 83.5625 136.4375 C83 139 83 139 82 140 C79.30345146 140.07319621 76.63308542 140.09242537 73.9375 140.0625 C73.17888672 140.05798828 72.42027344 140.05347656 71.63867188 140.04882812 C69.75908129 140.0370068 67.87953101 140.01907078 66 140 C65.31292445 137.50935112 65 135.62113708 65 133 C64.34 133.33 63.68 133.66 63 134 C62.36451131 135.85935643 62.36451131 135.85935643 61.95703125 138.12890625 C61.77390381 138.99169189 61.59077637 139.85447754 61.40209961 140.7434082 C61.20753174 141.6737085 61.01296387 142.60400879 60.8125 143.5625 C58.63328891 153.35186622 55.42233303 162.02672023 51 171 C50.69336426 171.64404785 50.38672852 172.2880957 50.07080078 172.95166016 C47.72399292 177.80659685 45.01451909 182.2830308 42 186.75 C41.57460938 187.39582031 41.14921875 188.04164063 40.7109375 188.70703125 C38.39298765 192.16973547 36.03878279 195.12245875 33 198 C31.17292201 200.11231802 29.37693872 202.24768031 27.5859375 204.390625 C27.06257812 204.92171875 26.53921875 205.4528125 26 206 C25.34 206 24.68 206 24 206 C23.79375 206.5775 23.5875 207.155 23.375 207.75 C21.49800315 210.82144939 19.00679355 212.05442771 16 214 C14.88625 215.15242188 14.88625 215.15242188 13.75 216.328125 C-6.55258308 236.05393015 -38.78221123 243.3877153 -66.0625 244.1875 C-78.58348118 243.99074172 -90.59453989 242.39557056 -102.6875 239.125 C-103.59540283 238.88056152 -104.50330566 238.63612305 -105.4387207 238.38427734 C-110.39507494 236.97106212 -114.77208197 235.28447497 -119.22192383 232.66748047 C-121.5661256 231.78747942 -122.68125637 232.11715983 -125 233 C-126.70258535 234.20881511 -128.40313846 235.42091479 -130.08154297 236.66308594 C-148.81704949 249.71928773 -173.17770989 251.97060251 -195.2421875 248.23828125 C-202.25922201 246.79635354 -208.81750586 244.683188 -215 241 C-214.505 239.02 -214.505 239.02 -214 237 C-212.8140625 236.92523438 -211.628125 236.85046875 -210.40625 236.7734375 C-191.28665629 235.31751997 -171.6176937 228.86888707 -157.83203125 214.78515625 C-156 213 -156 213 -154 213 C-156.18141474 208.961143 -158.71700605 206.18656557 -162.0625 203.0625 C-176.13028385 189.47470075 -185.47914083 172.0842864 -191.625 153.6875 C-191.9240625 152.82705078 -192.223125 151.96660156 -192.53125 151.08007812 C-196.13521599 140.33994054 -197.3466985 129.59392746 -197.75 118.3125 C-197.79092773 117.17981689 -197.83185547 116.04713379 -197.87402344 114.88012695 C-198.12675521 105.71599459 -197.60085283 97.01685178 -196 88 C-195.74089844 86.42412109 -195.74089844 86.42412109 -195.4765625 84.81640625 C-194.07884905 77.69169806 -191.65847076 70.97244771 -189.125 64.1875 C-188.79741699 63.30352539 -188.46983398 62.41955078 -188.13232422 61.50878906 C-185.96669405 55.89528948 -183.33868246 50.99418746 -180 46 C-179.41476563 45.05253906 -178.82953125 44.10507813 -178.2265625 43.12890625 C-172.42325956 33.82946715 -166.27825201 25.30121008 -157.75 18.3125 C-154.98257806 16.2957678 -154.98257806 16.2957678 -154 14 C-153.34 14 -152.68 14 -152 14 C-151.505 12.515 -151.505 12.515 -151 11 C-148.80117461 9.32484615 -146.63055101 7.80498296 -144.3125 6.3125 C-143.63405029 5.87188232 -142.95560059 5.43126465 -142.2565918 4.97729492 C-140.17855128 3.63935857 -138.09038124 2.31854817 -136 1 C-135.12988281 0.43925781 -135.12988281 0.43925781 -134.2421875 -0.1328125 C-95.05907491 -25.20257648 -39.07111469 -24.66720479 0 0 Z M-114 42 C-114.7734375 42.44730469 -115.546875 42.89460938 -116.34375 43.35546875 C-133.68639402 54.09260571 -145.41501093 74.14342255 -150.6640625 93.44140625 C-153.90488808 108.1218624 -153.28971004 122.60871472 -149 137 C-148.76925781 137.8765625 -148.53851563 138.753125 -148.30078125 139.65625 C-145.72012126 148.53091785 -141.30695975 155.55128716 -136 163 C-134.99839844 164.44052734 -134.99839844 164.44052734 -133.9765625 165.91015625 C-122.01000988 181.84263531 -102.18743113 193.503647 -82.53710938 196.70263672 C-55.76382079 199.84061454 -32.86499227 194.66640844 -11.55078125 178.17578125 C-2.97366257 170.85961723 4.05505207 162.29939851 9.375 152.375 C9.69637939 151.7783252 10.01775879 151.18165039 10.34887695 150.56689453 C18.31398229 135.11623073 20.2609481 117.06477494 18 100 C17.85820312 98.86691406 17.71640625 97.73382813 17.5703125 96.56640625 C15.09940223 81.92710907 7.93806746 67.9382584 -2 57 C-2.68191406 56.13761719 -3.36382812 55.27523437 -4.06640625 54.38671875 C-6.15330323 51.81077116 -8.30100268 49.91770862 -11 48 C-11.66 48 -12.32 48 -13 48 C-13 47.34 -13 46.68 -13 46 C-15.32150848 44.30386503 -17.62292106 42.76054756 -20.0625 41.25 C-20.78332764 40.80333984 -21.50415527 40.35667969 -22.24682617 39.89648438 C-36.31953746 31.40832857 -50.42814472 27.59488638 -66.875 27.6875 C-67.93001709 27.69313965 -68.98503418 27.6987793 -70.07202148 27.70458984 C-85.51763346 27.94516457 -101.76358051 32.15766258 -114 42 Z " fill="#485999" transform="translate(264,135)"/>
<path d="M0 0 C1.134375 0.61875 2.26875 1.2375 3.4375 1.875 C6.69050113 3.73942991 9.78732405 5.81149403 12.875 7.9375 C13.82117188 8.58589844 14.76734375 9.23429687 15.7421875 9.90234375 C18.43667994 12.40570437 18.84943638 13.36051381 19 17 C18.74245184 19.6796584 18.40383486 22.23224052 17.9375 24.875 C17.80537109 25.64440918 17.67324219 26.41381836 17.53710938 27.20654297 C15.15294571 40.34807391 11.9140977 53.56850284 7 66 C6.01 65.34 5.02 64.68 4 64 C4 63.34 4 62.68 4 62 C3.401875 61.9175 2.80375 61.835 2.1875 61.75 C-0.62932273 60.78423221 -1.47799132 59.51131433 -3 57 C-3 56.34 -3 55.68 -3 55 C-3.99 54.67 -4.98 54.34 -6 54 C-6 53.34 -6 52.68 -6 52 C-6.598125 51.71125 -7.19625 51.4225 -7.8125 51.125 C-10 50 -10 50 -13 48 C-13 47.34 -13 46.68 -13 46 C-13.52722656 45.74863281 -14.05445313 45.49726563 -14.59765625 45.23828125 C-17.01337577 43.9931055 -19.33522954 42.6246143 -21.66870117 41.23291016 C-36.12270993 32.690182 -50.05048352 28.59275974 -66.875 28.6875 C-67.93001709 28.69313965 -68.98503418 28.6987793 -70.07202148 28.70458984 C-85.51763346 28.94516457 -101.76358051 33.15766258 -114 43 C-115.175625 43.68642578 -115.175625 43.68642578 -116.375 44.38671875 C-133.32615343 54.80461513 -144.55749499 74.66726101 -149.6640625 93.44140625 C-152.90488808 108.1218624 -152.28971004 122.60871472 -148 137 C-147.65388672 138.31484375 -147.65388672 138.31484375 -147.30078125 139.65625 C-143.8405096 151.5558267 -136.98175707 161.46336304 -128.43359375 170.328125 C-127 172 -127 172 -127 174 C-126.34 174 -125.68 174 -125 174 C-124.505 176.475 -124.505 176.475 -124 179 C-140.56716829 185.24390765 -159.56320133 184.47880286 -177 185 C-178.46380195 182.34923808 -179.91973603 179.69525483 -181.359375 177.03125 C-182.3114733 175.27213505 -183.27454397 173.5187007 -184.265625 171.78125 C-187.42086432 165.97560964 -189.56426463 159.86334364 -191.6875 153.625 C-191.98519287 152.76342285 -192.28288574 151.9018457 -192.58959961 151.01416016 C-196.13403677 140.29326957 -197.34796226 129.55857668 -197.75 118.3125 C-197.79092773 117.17981689 -197.83185547 116.04713379 -197.87402344 114.88012695 C-198.12675521 105.71599459 -197.60085283 97.01685178 -196 88 C-195.82726562 86.94941406 -195.65453125 85.89882812 -195.4765625 84.81640625 C-194.07884905 77.69169806 -191.65847076 70.97244771 -189.125 64.1875 C-188.79741699 63.30352539 -188.46983398 62.41955078 -188.13232422 61.50878906 C-185.96669405 55.89528948 -183.33868246 50.99418746 -180 46 C-179.41476563 45.05253906 -178.82953125 44.10507813 -178.2265625 43.12890625 C-172.42325956 33.82946715 -166.27825201 25.30121008 -157.75 18.3125 C-154.98257806 16.2957678 -154.98257806 16.2957678 -154 14 C-153.34 14 -152.68 14 -152 14 C-151.505 12.515 -151.505 12.515 -151 11 C-148.80117461 9.32484615 -146.63055101 7.80498296 -144.3125 6.3125 C-143.63405029 5.87188232 -142.95560059 5.43126465 -142.2565918 4.97729492 C-140.17855128 3.63935857 -138.09038124 2.31854817 -136 1 C-135.12988281 0.43925781 -135.12988281 0.43925781 -134.2421875 -0.1328125 C-95.05907491 -25.20257648 -39.07111469 -24.66720479 0 0 Z " fill="#42A4E2" transform="translate(264,135)"/>
<path d="M0 0 C-0.33 1.65 -0.66 3.3 -1 5 C-1.99 5.33 -2.98 5.66 -4 6 C-4.11601562 6.72832031 -4.23203125 7.45664063 -4.3515625 8.20703125 C-5.01263473 11.05442067 -6.00807654 13.11519858 -7.375 15.6875 C-10.98539769 23.47014402 -11.92564858 31.56668136 -13 40 C-13.10441406 40.7748877 -13.20882812 41.54977539 -13.31640625 42.34814453 C-15.88384891 61.84364661 -15.72349906 81.3356616 -13.6875 100.875 C-13.56995361 102.00873047 -13.45240723 103.14246094 -13.33129883 104.31054688 C-11.89307927 116.75734923 -9.07577082 128.07416212 -2.75 138.9375 C-1 142 -1 142 -1 144 C-9.54019304 142.08549519 -16.77093845 136.69740662 -24 132 C-25.83205182 130.83132196 -27.66537461 129.66463381 -29.5 128.5 C-32.17122338 126.8018383 -34.84117908 125.10208146 -37.50390625 123.390625 C-43.94446354 119.26080201 -50.45973994 115.26210608 -56.99389648 111.28295898 C-64.70178837 106.58432921 -72.3556657 101.80114184 -80 97 C-80.495 98.485 -80.495 98.485 -81 100 C-81 99.34 -81 98.68 -81 98 C-81.515625 98.495 -82.03125 98.99 -82.5625 99.5 C-85.9238388 101.56851618 -88.11959911 101.48505011 -92 101 C-94.4375 99 -94.4375 99 -96 97 C-95.505 95.515 -95.505 95.515 -95 94 C-96.65 93.34 -98.3 92.68 -100 92 C-100 90.35 -100 88.7 -100 87 C-100.33 88.98 -100.66 90.96 -101 93 C-101.99 92.505 -101.99 92.505 -103 92 C-103.95067299 88.71585695 -104.10102197 87.30306592 -103 84 C-102.76795099 80.48338498 -102.8148196 76.96097118 -102.8125 73.4375 C-102.79413086 72.00954102 -102.79413086 72.00954102 -102.77539062 70.55273438 C-102.76229079 64.13818396 -103.49530231 58.23447829 -105 52 C-105.99 51.67 -106.98 51.34 -108 51 C-107.98839844 50.30132812 -107.97679687 49.60265625 -107.96484375 48.8828125 C-107.95582031 47.97273438 -107.94679688 47.06265625 -107.9375 46.125 C-107.92589844 45.22007812 -107.91429687 44.31515625 -107.90234375 43.3828125 C-107.83750743 40.9831415 -107.83750743 40.9831415 -109 39 C-109.17015625 39.59425781 -109.3403125 40.18851563 -109.515625 40.80078125 C-110.85861281 45.39408531 -112.30581554 49.89844337 -114 54.375 C-115.85532675 59.32724099 -117.09624044 64.2990232 -118.19140625 69.46875 C-119.06818935 72.21346232 -119.96405904 73.05754612 -122 75 C-123.07199331 77.32333671 -123.07199331 77.32333671 -123.9375 79.875 C-125.46301833 83.88676386 -127.13325998 86.76335805 -130 90 C-131.40695924 92.22768546 -132.72061919 94.48066713 -133.96875 96.80078125 C-135.7507027 100.06094472 -136.85518442 101.90345628 -140 104 C-139.38074557 100.72221434 -138.2157142 98.62981386 -136.27734375 95.93359375 C-132.81670059 90.87938273 -130.16154504 85.59947368 -127.5625 80.0625 C-127.08804443 79.05469482 -126.61358887 78.04688965 -126.12475586 77.00854492 C-118.89351273 61.47863038 -113.84580018 46.93339485 -111 30 C-109.68 30.33 -108.36 30.66 -107 31 C-106.32678716 33.24805002 -105.66165877 35.49852224 -105 37.75 C-104.62875 39.00296875 -104.2575 40.2559375 -103.875 41.546875 C-103 45 -103 45 -103 49 C-101.68 49 -100.36 49 -99 49 C-99.04125 48.21625 -99.0825 47.4325 -99.125 46.625 C-99 44 -99 44 -97 42 C-94.24410223 42.01747927 -91.61213324 42.13863271 -88.875 42.375 C-88.12089844 42.43171875 -87.36679687 42.4884375 -86.58984375 42.546875 C-84.72581904 42.6884465 -82.86278863 42.84299959 -81 43 C-81 44.98 -81 46.96 -81 49 C-80.39414062 48.63648438 -79.78828125 48.27296875 -79.1640625 47.8984375 C-78.32617188 47.39570313 -77.48828125 46.89296875 -76.625 46.375 C-75.70203125 45.82070312 -74.7790625 45.26640625 -73.828125 44.6953125 C-72.11125019 43.66613616 -70.39290069 42.63940746 -68.671875 41.6171875 C-62.69138479 38.0573719 -56.79034885 34.37814603 -50.89526367 30.67944336 C-47.18108079 28.35231067 -43.45458265 26.05352365 -39.6875 23.8125 C-34.38486692 20.65574853 -29.19509686 17.32981664 -24 14 C-21.26310066 12.2569251 -18.52496544 10.51584138 -15.78515625 8.77734375 C-13.82867718 7.52881924 -11.87869642 6.27008136 -9.93359375 5.00390625 C-8.45052734 4.04291016 -8.45052734 4.04291016 -6.9375 3.0625 C-6.03902344 2.47597656 -5.14054688 1.88945312 -4.21484375 1.28515625 C-2 0 -2 0 0 0 Z " fill="#3A76AA" transform="translate(428,172)"/>
<path d="M0 0 C4.10159009 0.82031802 5.94559385 1.31635274 9.328125 3.328125 C10.12863281 3.79863281 10.92914063 4.26914063 11.75390625 4.75390625 C12.57761719 5.24761719 13.40132812 5.74132812 14.25 6.25 C15.87974253 7.21432931 17.50994949 8.17787418 19.140625 9.140625 C19.945 9.61717529 20.749375 10.09372559 21.578125 10.5847168 C24.6913296 12.40399574 27.84184033 14.15060034 30.99902344 15.89208984 C33.52065614 17.28827935 36.01304506 18.73053393 38.5 20.1875 C39.51191406 20.77917969 40.52382812 21.37085938 41.56640625 21.98046875 C44.07728459 23.45728798 46.58483856 24.93907085 49.08984375 26.42578125 C56.61954666 30.88782742 64.17287495 35.22709278 71.90625 39.328125 C77.01330989 42.0880008 82.00691986 45.04013808 87 48 C86.64447938 50.55328442 86.41509479 51.68530023 84.3203125 53.2734375 C83.59585938 53.63695312 82.87140625 54.00046875 82.125 54.375 C81.30773437 54.79910156 80.49046875 55.22320312 79.6484375 55.66015625 C78.33746094 56.32337891 78.33746094 56.32337891 77 57 C69.84343358 60.79449368 62.91796687 64.85955456 56.0390625 69.13671875 C52.93342289 71.04081913 49.78323108 72.81175851 46.5859375 74.5546875 C43.14658328 76.47698518 39.76464073 78.49168799 36.375 80.5 C29.18027735 84.74796103 21.94716055 88.92651355 14.6875 93.0625 C13.69089355 93.63484375 12.69428711 94.2071875 11.66748047 94.796875 C10.7292041 95.32925781 9.79092773 95.86164063 8.82421875 96.41015625 C7.98979248 96.88590088 7.15536621 97.36164551 6.2956543 97.85180664 C4 99 4 99 0 100 C0 67 0 34 0 0 Z " fill="#FCFCFC" transform="translate(166,201)"/>
<path d="M0 0 C4.83777316 1.63992311 5.89302517 3.89576378 8.328125 8.21875 C21.69049562 38.01530058 21.40194451 83.49380436 10.6875 114.25 C6.2178299 125.3465768 6.2178299 125.3465768 0.6875 128.25 C-1.75 128.4375 -1.75 128.4375 -4.3125 127.25 C-12.7925962 119.77892791 -14.44689946 108.88908935 -16.3125 98.25 C-16.48531494 97.29520752 -16.65812988 96.34041504 -16.83618164 95.35668945 C-18.50934889 85.11816132 -18.66918975 75.04025069 -18.625 64.6875 C-18.62317719 63.80392822 -18.62135437 62.92035645 -18.61947632 62.01000977 C-18.45731569 15.35423273 -18.45731569 15.35423273 -6.3125 2.25 C-3.3125 0.25 -3.3125 0.25 0 0 Z " fill="#3BAEE0" transform="translate(436.3125,180.75)"/>
<path d="M0 0 C8.74208977 2.84684768 16.25311252 5.98978473 24 11 C25.7015625 11.928125 25.7015625 11.928125 27.4375 12.875 C30.69050113 14.73942991 33.78732405 16.81149403 36.875 18.9375 C37.82117188 19.58589844 38.76734375 20.23429687 39.7421875 20.90234375 C42.43667994 23.40570437 42.84943638 24.36051381 43 28 C42.74245184 30.6796584 42.40383486 33.23224052 41.9375 35.875 C41.80537109 36.64440918 41.67324219 37.41381836 41.53710938 38.20654297 C39.15294571 51.34807391 35.9140977 64.56850284 31 77 C30.01 76.34 29.02 75.68 28 75 C28 74.34 28 73.68 28 73 C27.401875 72.9175 26.80375 72.835 26.1875 72.75 C23.37067727 71.78423221 22.52200868 70.51131433 21 68 C21 67.34 21 66.68 21 66 C19.515 65.505 19.515 65.505 18 65 C18 64.34 18 63.68 18 63 C17.1028125 62.566875 17.1028125 62.566875 16.1875 62.125 C14 61 14 61 11 59 C11 58.34 11 57.68 11 57 C10.49984375 56.75507813 9.9996875 56.51015625 9.484375 56.2578125 C6.04120089 54.51457026 2.62896853 52.74013953 -0.75 50.875 C-1.79607422 50.34519531 -1.79607422 50.34519531 -2.86328125 49.8046875 C-4.85801566 48.68045362 -6.41991477 47.65852111 -8 46 C-9.21743541 39.84518764 -7.10011989 35.04832982 -5.03320312 29.25585938 C-3.27012685 23.70000276 -2.54500932 18.01055934 -1.75 12.25 C-1.57726562 11.0640625 -1.40453125 9.878125 -1.2265625 8.65625 C-0.80789411 5.77209001 -0.39921196 2.88690575 0 0 Z " fill="#FCFCFC" transform="translate(240,124)"/>
<path d="M0 0 C0.21914062 0.59425781 0.43828125 1.18851562 0.6640625 1.80078125 C5.1424156 13.50639525 11.18556085 25.33989484 20.2421875 34.19140625 C22 36 22 36 22 38 C22.66 38 23.32 38 24 38 C24.495 40.475 24.495 40.475 25 43 C8.43283171 49.24390765 -10.56320133 48.47880286 -28 49 C-29.46380195 46.34923808 -30.91973603 43.69525483 -32.359375 41.03125 C-33.3114733 39.27213505 -34.27454397 37.5187007 -35.265625 35.78125 C-38.50486705 29.82104464 -40.6527073 23.53537339 -42.8125 17.125 C-43.12695068 16.1963916 -43.44140137 15.2677832 -43.76538086 14.31103516 C-44.05550049 13.42722168 -44.34562012 12.5434082 -44.64453125 11.6328125 C-44.90596924 10.83762207 -45.16740723 10.04243164 -45.43676758 9.22314453 C-46 7 -46 7 -46 3 C-45.25540527 2.98018066 -44.51081055 2.96036133 -43.74365234 2.93994141 C-25.59530253 2.55955492 -25.59530253 2.55955492 -7.6015625 0.40234375 C-5.02310804 0.00357377 -2.60439596 -0.07102898 0 0 Z " fill="#FAFBFB" transform="translate(115,271)"/>
<path d="M0 0 C0.33 0.66 0.66 1.32 1 2 C1.99 2.495 1.99 2.495 3 3 C-20.83216413 22.50474485 -54.91009787 28.0419048 -84.8125 25.375 C-92.28804522 24.61537598 -99.43832029 23.08555834 -106.6875 21.125 C-107.59540283 20.88056152 -108.50330566 20.63612305 -109.4387207 20.38427734 C-114.39507494 18.97106212 -118.77208197 17.28447497 -123.22192383 14.66748047 C-125.5661256 13.78747942 -126.68125637 14.11715983 -129 15 C-130.70258535 16.20881511 -132.40313846 17.42091479 -134.08154297 18.66308594 C-152.81704949 31.71928773 -177.17770989 33.97060251 -199.2421875 30.23828125 C-206.25922201 28.79635354 -212.81750586 26.683188 -219 23 C-218.67 21.68 -218.34 20.36 -218 19 C-216.8140625 18.92523438 -215.628125 18.85046875 -214.40625 18.7734375 C-200.20117918 17.69175072 -187.90929656 14.51111258 -175.69921875 6.8828125 C-174 6 -174 6 -171 6 C-171 6.66 -171 7.32 -171 8 C-146.06100617 10.9907664 -146.06100617 10.9907664 -122 7 C-120.5393715 9.64738916 -120 10.89448334 -120 14 C-118.9171875 13.9690625 -118.9171875 13.9690625 -117.8125 13.9375 C-112.92711864 14.04606403 -108.74420901 15.36059663 -104.1875 17.0625 C-103.21167969 17.42472656 -102.23585938 17.78695313 -101.23046875 18.16015625 C-100.49441406 18.43730469 -99.75835937 18.71445312 -99 19 C-98.505 17.515 -98.505 17.515 -98 16 C-97.505 16.99 -97.505 16.99 -97 18 C-97.33 18.66 -97.66 19.32 -98 20 C-77.44660538 22.43352383 -77.44660538 22.43352383 -56.828125 21.4921875 C-53.81427479 21.10469247 -51.02600864 20.89021862 -48 20.9375 C-47.236875 20.94652344 -46.47375 20.95554687 -45.6875 20.96484375 C-45.130625 20.97644531 -44.57375 20.98804688 -44 21 C-44 19.68 -44 18.36 -44 17 C-43.01 17 -42.02 17 -41 17 C-41 17.66 -41 18.32 -41 19 C-37.74335433 17.93598298 -34.4961854 16.84547579 -31.25 15.75 C-30.32960937 15.44964844 -29.40921875 15.14929688 -28.4609375 14.83984375 C-23.63914273 13.19763829 -20.42075312 11.91181014 -17 8 C-15.03515625 7.2421875 -15.03515625 7.2421875 -13.0625 6.875 C-9.87045696 6.20675921 -7.00040163 5.31267571 -4 4 C-4 3.01 -4 2.02 -4 1 C-2.68 0.67 -1.36 0.34 0 0 Z " fill="#542D79" transform="translate(268,353)"/>
<path d="M0 0 C0.89146729 -0.00475342 1.78293457 -0.00950684 2.70141602 -0.0144043 C7.99529405 -0.00109938 13.07393842 0.35659632 18.3125 1.125 C17.9825 1.785 17.6525 2.445 17.3125 3.125 C9.7225 3.125 2.1325 3.125 -5.6875 3.125 C-5.6875 3.785 -5.6875 4.445 -5.6875 5.125 C-6.574375 4.939375 -7.46125 4.75375 -8.375 4.5625 C-11.64308075 4.13086669 -13.5311686 4.35516307 -16.6875 5.125 C-17.904375 5.29 -19.12125 5.455 -20.375 5.625 C-23.55661167 5.9309272 -23.55661167 5.9309272 -25.6875 7.125 C-25.6875 6.465 -25.6875 5.805 -25.6875 5.125 C-28.22423288 6.4803326 -28.22423288 6.4803326 -30.6875 8.125 C-30.6875 8.785 -30.6875 9.445 -30.6875 10.125 C-32.93227329 10.84653427 -34.31241837 11.22179526 -36.625 10.625 C-39.24029534 9.99098901 -41.09417464 10.51079136 -43.6875 11.125 C-44.3475 11.125 -45.0075 11.125 -45.6875 11.125 C-46.0175 12.115 -46.3475 13.105 -46.6875 14.125 C-49.25 15.3125 -49.25 15.3125 -51.6875 16.125 C-52.1825 15.63 -52.1825 15.63 -52.6875 15.125 C-54.68708364 15.08419217 -56.68795254 15.08245644 -58.6875 15.125 C-58.873125 15.99125 -58.873125 15.99125 -59.0625 16.875 C-59.69976102 19.16913966 -60.5725246 21.02622277 -61.6875 23.125 C-62.05875 23.8675 -62.43 24.61 -62.8125 25.375 C-63.10125 25.9525 -63.39 26.53 -63.6875 27.125 C-67.6875 27.125 -67.6875 27.125 -70.4375 26.6875 C-74.8134705 27.27657295 -76.66359801 29.3787824 -79.7578125 32.3984375 C-81.65252419 34.09370585 -83.37208778 35.10621862 -85.6875 36.125 C-85.6875 37.115 -85.6875 38.105 -85.6875 39.125 C-87.32540712 40.17144066 -88.99758021 41.1648183 -90.6875 42.125 C-91.409375 42.846875 -92.13125 43.56875 -92.875 44.3125 C-93.473125 44.910625 -94.07125 45.50875 -94.6875 46.125 C-95.3475 46.125 -96.0075 46.125 -96.6875 46.125 C-97.0175 47.445 -97.3475 48.765 -97.6875 50.125 C-98.3475 50.125 -99.0075 50.125 -99.6875 50.125 C-100 47.4375 -100 47.4375 -99.6875 44.125 C-97.23238098 41.1644153 -94.38800089 38.8748703 -91.4375 36.4375 C-88.67007806 34.4207678 -88.67007806 34.4207678 -87.6875 32.125 C-87.0275 32.125 -86.3675 32.125 -85.6875 32.125 C-85.3575 31.135 -85.0275 30.145 -84.6875 29.125 C-82.48867461 27.44984615 -80.31805101 25.92998296 -78 24.4375 C-77.32155029 23.99688232 -76.64310059 23.55626465 -75.9440918 23.10229492 C-73.86605128 21.76435857 -71.77788124 20.44354817 -69.6875 19.125 C-68.81738281 18.56425781 -68.81738281 18.56425781 -67.9296875 17.9921875 C-47.48680032 4.91261513 -23.96638885 0.10565181 0 0 Z " fill="#6580D0" transform="translate(197.6875,116.875)"/>
<path d="M0 0 C5.59554553 -0.29105568 9.77000574 0.62367726 14.9375 2.5 C15.62134766 2.73847656 16.30519531 2.97695312 17.00976562 3.22265625 C18.67658097 3.80545882 20.33880316 4.40137051 22 5 C21.48145565 16.44373746 20.67484447 28.75038883 16.375 39.5 C14.81823455 43.4626757 14.37685442 46.77923053 14 51 C13.42894531 50.81824219 12.85789062 50.63648438 12.26953125 50.44921875 C9.52265113 49.59764224 6.76245129 48.79956217 4 48 C2.65615234 47.57074219 2.65615234 47.57074219 1.28515625 47.1328125 C-16.32693458 42.16833052 -34.93436084 44.2447258 -52 50 C-52.99 49.01 -53.98 48.02 -55 47 C-54.67 46.34 -54.34 45.68 -54 45 C-53.34 45 -52.68 45 -52 45 C-51.67 44.34 -51.34 43.68 -51 43 C-50.67 44.32 -50.34 45.64 -50 47 C-49.34 47 -48.68 47 -48 47 C-48 45.68 -48 44.36 -48 43 C-47.01 43 -46.02 43 -45 43 C-44.67 42.34 -44.34 41.68 -44 41 C-43.37480469 41.1753125 -42.74960938 41.350625 -42.10546875 41.53125 C-37.78437031 42.18349127 -33.65847994 41.79767535 -29.3125 41.5 C-23.24594017 41.1406851 -17.39399113 40.82570658 -11.35546875 41.69140625 C-8.36600129 42.08306119 -5.38629668 42.17172102 -2.375 42.3125 C3.35828853 42.71959741 7.11055784 44.02798614 12 47 C11.979375 46.113125 11.95875 45.22625 11.9375 44.3125 C12.03117101 39.34793671 13.17354286 35.34300253 15 30.75 C16.85550496 25.76626104 17.62428877 21.26984435 18 16 C18.30260741 13.66127703 18.6525894 11.33261405 19 9 C14.05 8.01 14.05 8.01 9 7 C8.505 5.515 8.505 5.515 8 4 C6.68 4.33 5.36 4.66 4 5 C3.566875 4.0409375 3.566875 4.0409375 3.125 3.0625 C2.17176549 0.84793921 2.17176549 0.84793921 0 0 Z " fill="#6292D5" transform="translate(218,119)"/>
<path d="M0 0 C0.66 0 1.32 0 2 0 C3.65076188 4.17545652 4.22083461 6.67158637 3 11 C1.98263387 14.60448972 1.98263387 14.60448972 3 18 C2.5625 20.125 2.5625 20.125 2 22 C2.66 22.33 3.32 22.66 4 23 C3.67515625 23.56847656 3.3503125 24.13695312 3.015625 24.72265625 C1.03244553 29.16955483 1.35750724 34.23314492 3 38.75 C3.33 39.4925 3.66 40.235 4 41 C4.125 43.8125 4.125 43.8125 4 46 C4.639375 45.814375 5.27875 45.62875 5.9375 45.4375 C6.618125 45.293125 7.29875 45.14875 8 45 C8.33 45.33 8.66 45.66 9 46 C18.53389649 46.60532676 27.66219469 44.7088794 37 43 C37 42.34 37 41.68 37 41 C39.475 40.505 39.475 40.505 42 40 C41.54177532 36.53058454 41.10868317 33.32604951 40 30 C40.66 30 41.32 30 42 30 C41.80921875 28.80503906 41.6184375 27.61007813 41.421875 26.37890625 C39.15267398 10.69869427 39.15267398 10.69869427 44 3 C44.66 3.33 45.32 3.66 46 4 C45.83242187 5.28132812 45.66484375 6.56265625 45.4921875 7.8828125 C44.21076743 18.45068685 43.91290519 27.51066544 46 38 C46.34448425 40.33171314 46.68061986 42.66471589 47 45 C31.62594125 48.14597061 16.65564539 48.342363 1 48 C-1.07637277 41.05898245 -1.45970085 34.40666203 -1.6875 27.1875 C-1.73455078 26.07568359 -1.78160156 24.96386719 -1.83007812 23.81835938 C-2.42099547 7.26298642 -2.42099547 7.26298642 0 0 Z " fill="#41D7D2" transform="translate(68,226)"/>
<path d="M0 0 C0.495 0.99 0.495 0.99 1 2 C1.99 2.495 1.99 2.495 3 3 C-20.50078033 22.23353338 -54.27505298 28.04142857 -83.80859375 25.4140625 C-86.15976477 24.96981272 -87.9208937 24.16505729 -90 23 C-89.67 22.34 -89.34 21.68 -89 21 C-87.35064453 21.10828125 -87.35064453 21.10828125 -85.66796875 21.21875 C-71.25794246 22.3162651 -71.25794246 22.3162651 -56.875 21.5 C-52.54438683 20.9412112 -48.3569013 20.90923122 -44 21 C-44 19.68 -44 18.36 -44 17 C-43.01 17 -42.02 17 -41 17 C-41 17.66 -41 18.32 -41 19 C-37.74335433 17.93598298 -34.4961854 16.84547579 -31.25 15.75 C-30.32960937 15.44964844 -29.40921875 15.14929688 -28.4609375 14.83984375 C-23.63914273 13.19763829 -20.42075312 11.91181014 -17 8 C-15.03515625 7.2421875 -15.03515625 7.2421875 -13.0625 6.875 C-9.87045696 6.20675921 -7.00040163 5.31267571 -4 4 C-4 3.01 -4 2.02 -4 1 C-2.68 0.67 -1.36 0.34 0 0 Z " fill="#533B72" transform="translate(268,353)"/>
<path d="M0 0 C0.33 0 0.66 0 1 0 C1.31205735 14.40391019 -0.62573149 31.88973549 -9.5 43.75 C-12 46 -12 46 -14.375 47.25 C-18.78812933 46.82970197 -21.24173556 44.33756581 -24 41 C-29.97140453 30.63060864 -31.97816072 17.67829823 -30 6 C-28.515 6.99 -28.515 6.99 -27 8 C-27.99 9.485 -27.99 9.485 -29 11 C-28.34 11.33 -27.68 11.66 -27 12 C-26.68306373 15.07428185 -26.62005943 18.1259154 -26.5390625 21.21484375 C-26.31370181 24.13792322 -26.31370181 24.13792322 -23.9609375 25.37890625 C-23.31382812 25.58386719 -22.66671875 25.78882813 -22 26 C-22.020625 26.928125 -22.04125 27.85625 -22.0625 28.8125 C-22.15769604 32.02286011 -22.15769604 32.02286011 -21 35 C-20.34 35 -19.68 35 -19 35 C-19.495 37.475 -19.495 37.475 -20 40 C-19.34 40 -18.68 40 -18 40 C-17.67 40.66 -17.34 41.32 -17 42 C-14.525 41.505 -14.525 41.505 -12 41 C-11.34316469 38.20844993 -11.00371487 35.81797117 -11.0625 32.9375 C-10.99933439 29.96871644 -10.53406269 28.49285187 -9 26 C-7.35 26.33 -5.7 26.66 -4 27 C-4 24.36 -4 21.72 -4 19 C-3.34 19 -2.68 19 -2 19 C-2 13.72 -2 8.44 -2 3 C-1.34 3 -0.68 3 0 3 C0 2.01 0 1.02 0 0 Z " fill="#34CBC5" transform="translate(451,262)"/>
<path d="M0 0 C1.32 0.33 2.64 0.66 4 1 C4.62653984 3.47878625 5.25125672 5.95800986 5.875 8.4375 C6.04902344 9.12521484 6.22304688 9.81292969 6.40234375 10.52148438 C6.7613412 11.95082607 7.11379386 13.38182394 7.46044922 14.81420898 C7.80890245 16.22583876 8.17890563 17.63240174 8.57470703 19.03149414 C10.44795674 26.15798758 10.22241117 33.23792965 10.125 40.5625 C10.11597656 41.85736328 10.10695313 43.15222656 10.09765625 44.48632812 C10.07425094 47.65774771 10.04146228 50.82877373 10 54 C9.67 54 9.34 54 9 54 C8.19676613 49.1494637 7.94323093 44.59827421 8.0625 39.6875 C8.11761123 33.52728923 7.56835141 27.95133348 6 22 C5.01 21.67 4.02 21.34 3 21 C3.01160156 20.30132812 3.02320313 19.60265625 3.03515625 18.8828125 C3.04417969 17.97273438 3.05320312 17.06265625 3.0625 16.125 C3.07410156 15.22007812 3.08570313 14.31515625 3.09765625 13.3828125 C3.16249257 10.9831415 3.16249257 10.9831415 2 9 C1.82984375 9.59425781 1.6596875 10.18851563 1.484375 10.80078125 C0.14138719 15.39408531 -1.30581554 19.89844337 -3 24.375 C-4.85532675 29.32724099 -6.09624044 34.2990232 -7.19140625 39.46875 C-8.06818935 42.21346232 -8.96405904 43.05754612 -11 45 C-12.07199331 47.32333671 -12.07199331 47.32333671 -12.9375 49.875 C-14.46301833 53.88676386 -16.13325998 56.76335805 -19 60 C-20.40695924 62.22768546 -21.72061919 64.48066713 -22.96875 66.80078125 C-24.7507027 70.06094472 -25.85518442 71.90345628 -29 74 C-28.38074557 70.72221434 -27.2157142 68.62981386 -25.27734375 65.93359375 C-21.81670059 60.87938273 -19.16154504 55.59947368 -16.5625 50.0625 C-15.85081665 48.55079224 -15.85081665 48.55079224 -15.12475586 47.00854492 C-7.89351273 31.47863038 -2.84580018 16.93339485 0 0 Z " fill="#41B0C7" transform="translate(317,202)"/>
<path d="M0 0 C0.66 0.66 1.32 1.32 2 2 C1.625 4.125 1.625 4.125 1 6 C2.98 6.66 4.96 7.32 7 8 C7 9.32 7 10.64 7 12 C10.13730736 13.8591451 12.3631915 14.36368085 16 14 C18.25132517 13.08431094 18.25132517 13.08431094 20 12 C19.67 13.65 19.34 15.3 19 17 C13.72 17 8.44 17 3 17 C2 13 2 13 2 10 C1.01 10.495 1.01 10.495 0 11 C-0.63548869 12.85935643 -0.63548869 12.85935643 -1.04296875 15.12890625 C-1.22641846 15.99233643 -1.40986816 16.8557666 -1.59887695 17.74536133 C-1.79312256 18.67501709 -1.98736816 19.60467285 -2.1875 20.5625 C-4.34606675 30.33422035 -7.60081996 39.03682914 -12 48 C-12.66 48 -13.32 48 -14 48 C-15.125 42.375 -15.125 42.375 -14 39 C-13.34 38.34 -12.68 37.68 -12 37 C-11.505 35.845 -11.01 34.69 -10.5 33.5 C-9 30 -9 30 -7 28 C-6.90975048 25.43611702 -6.90975048 25.43611702 -7.125 22.5 C-7.2616889 16.21231041 -5.76834366 11.58612203 -3 6 C-2.34 6 -1.68 6 -1 6 C-0.67 4.02 -0.34 2.04 0 0 Z " fill="#487693" transform="translate(327,258)"/>
<path d="M0 0 C0.66 0 1.32 0 2 0 C1.67 1.65 1.34 3.3 1 5 C0.01 5.33 -0.98 5.66 -2 6 C-2.11730469 6.7321875 -2.23460937 7.464375 -2.35546875 8.21875 C-3.00373957 11.0161368 -3.95736387 12.98271926 -5.3125 15.5 C-9.38716732 24.08759829 -10.47202289 33.69346595 -12 43 C-12.66 43 -13.32 43 -14 43 C-14.66 43.66 -15.32 44.32 -16 45 C-18.16614592 41.55965059 -17.8500833 39.87260168 -17 36 C-17.309375 34.700625 -17.309375 34.700625 -17.625 33.375 C-18 31 -18 31 -16.75 29.25 C-15 28 -15 28 -12 27 C-11.83141902 24.9168207 -11.66520745 22.83344956 -11.5 20.75 C-11.4071875 19.58984375 -11.314375 18.4296875 -11.21875 17.234375 C-11.05595356 14.82731342 -11 12.41256049 -11 10 C-10.78125 7.91796875 -10.78125 7.91796875 -10 6 C-7.96875 4.55078125 -7.96875 4.55078125 -5.5 3.3125 C-2.55114782 1.93604658 -2.55114782 1.93604658 0 0 Z " fill="#28B9D2" transform="translate(426,172)"/>
<path d="M0 0 C2.51425839 1.46665073 4.03638467 2.69287918 6 4.75 C6.99 5.08 7.98 5.41 9 5.75 C10.175625 6.74 10.175625 6.74 11.375 7.75 C14.13665213 10.15717073 14.13665213 10.15717073 19 10.75 C19 7.12 19 3.49 19 -0.25 C20.81922574 2.47883861 22.06306346 5.00845043 23.375 8 C24.881579 11.37527343 26.43042332 14.63105366 28.3125 17.8125 C30 20.75 30 20.75 30 22.75 C21.46939785 20.83764523 14.20751356 15.46626217 7 10.75 C5.89914062 10.04875 4.79828125 9.3475 3.6640625 8.625 C2.57867187 7.92375 1.49328125 7.2225 0.375 6.5 C-0.62789063 5.85546875 -1.63078125 5.2109375 -2.6640625 4.546875 C-5 2.75 -5 2.75 -6 -0.25 C-3 -1.25 -3 -1.25 0 0 Z " fill="#543875" transform="translate(397,293.25)"/>
<path d="M0 0 C0.33 0 0.66 0 1 0 C2.18128424 10.58911528 2.1288258 21.12892222 2.09765625 31.765625 C2.09578743 33.65419477 2.09436572 35.54276502 2.09336853 37.43133545 C2.08957988 42.36315284 2.07978147 47.29494002 2.06866455 52.22674561 C2.05837123 57.2748575 2.05385406 62.32297435 2.04882812 67.37109375 C2.03815535 77.24740899 2.02112367 87.12370197 2 97 C2.99 97 3.98 97 5 97 C5.66 95.68 6.32 94.36 7 93 C8.32 93.66 9.64 94.32 11 95 C9.73461631 95.84158536 8.46246221 96.67299748 7.1875 97.5 C6.12595703 98.19609375 6.12595703 98.19609375 5.04296875 98.90625 C3 100 3 100 0 100 C0 67 0 34 0 0 Z " fill="#DBDBDB" transform="translate(166,201)"/>
<path d="M0 0 C0.78890625 0.1753125 1.5778125 0.350625 2.390625 0.53125 C6.92946597 1.12070987 11.19782173 0.81482116 15.75 0.5 C21.79402046 0.14021747 27.61977099 -0.1674837 33.63671875 0.6875 C36.66891681 1.08845181 39.69626698 1.21048913 42.75 1.375 C47.59591186 1.72399719 50.9440655 2.33467161 55 5 C55 5.99 55 6.98 55 8 C52.07527416 7.55828921 49.25608106 7.07465807 46.4140625 6.24609375 C28.77601307 1.1325416 10.1179995 3.22706762 -7 9 C-7.99 8.01 -8.98 7.02 -10 6 C-9.67 5.34 -9.34 4.68 -9 4 C-8.34 4 -7.68 4 -7 4 C-6.67 3.34 -6.34 2.68 -6 2 C-5.67 3.32 -5.34 4.64 -5 6 C-4.34 6 -3.68 6 -3 6 C-3 4.68 -3 3.36 -3 2 C-2.01 2 -1.02 2 0 2 C0 1.34 0 0.68 0 0 Z " fill="#6395C7" transform="translate(173,160)"/>
<path d="M0 0 C5.0806728 1.58250464 6.10348072 3.88423768 8.53125 8.44921875 C13.05981144 18.12763816 15.02092053 28.49392381 14.8125 39.1875 C13.8225 39.6825 13.8225 39.6825 12.8125 40.1875 C12.74256836 39.63288086 12.67263672 39.07826172 12.60058594 38.50683594 C12.2720594 35.98109009 11.91757694 33.45964447 11.5625 30.9375 C11.45292969 30.06480469 11.34335937 29.19210938 11.23046875 28.29296875 C10.5066354 23.30232829 9.95663385 20.43213193 5.8125 17.1875 C3.78899676 14.15224514 3.49125982 12.99323798 3.1875 9.5 C3.11273438 8.69175781 3.03796875 7.88351563 2.9609375 7.05078125 C2.91195313 6.43589844 2.86296875 5.82101563 2.8125 5.1875 C0.8325 5.1875 -1.1475 5.1875 -3.1875 5.1875 C-3.5175 6.1775 -3.8475 7.1675 -4.1875 8.1875 C-6.27615152 10.7734495 -7.92560844 11.6251049 -11.1875 12.1875 C-9.90749898 7.18385967 -8.01421924 4.62173522 -4.1875 1.1875 C-3.1875 0.1875 -3.1875 0.1875 0 0 Z " fill="#6282CD" transform="translate(436.1875,180.8125)"/>
<path d="M0 0 C1.485 0.495 1.485 0.495 3 1 C2.0409375 1.6496875 2.0409375 1.6496875 1.0625 2.3125 C-1.26746003 3.91239177 -1.26746003 3.91239177 -2 7 C-4.32671854 7.68939809 -6.66067594 8.35466922 -9 9 C-11.14698176 10.62874478 -11.8578074 11.56049559 -12.6875 14.125 C-13.3371875 15.053125 -13.3371875 15.053125 -14 16 C-15.98740014 16.22806231 -17.97691966 16.44879828 -19.97265625 16.5859375 C-23.22568785 17.25033316 -24.81353259 19.63132698 -27 22 C-28.32 22 -29.64 22 -31 22 C-29.25 18.125 -29.25 18.125 -27 17 C-26.67 16.01 -26.34 15.02 -26 14 C-24.3203125 12.859375 -24.3203125 12.859375 -22.125 11.75 C-17.39798533 9.27322554 -13.00438687 6.42985082 -8.578125 3.453125 C-5.9808168 1.98918765 -3.9178074 1.46929769 -1 1 C-0.67 0.67 -0.34 0.34 0 0 Z " fill="#2AA7C6" transform="translate(410,184)"/>
<path d="M0 0 C0.33 0.66 0.66 1.32 1 2 C0.01 2.495 0.01 2.495 -1 3 C-1 3.99 -1 4.98 -1 6 C-2.609375 7.75390625 -2.609375 7.75390625 -4.75 9.5625 C-5.44609375 10.16191406 -6.1421875 10.76132813 -6.859375 11.37890625 C-8.84477963 12.88245173 -10.7375439 13.97578001 -13 15 C-13 15.99 -13 16.98 -13 18 C-14.63790712 19.04644066 -16.31008021 20.0398183 -18 21 C-19.0828125 22.0828125 -19.0828125 22.0828125 -20.1875 23.1875 C-20.785625 23.785625 -21.38375 24.38375 -22 25 C-22.66 25 -23.32 25 -24 25 C-24.33 26.32 -24.66 27.64 -25 29 C-25.66 29 -26.32 29 -27 29 C-27.3125 26.3125 -27.3125 26.3125 -27 23 C-24.54488098 20.0394153 -21.70050089 17.7498703 -18.75 15.3125 C-15.98257806 13.2957678 -15.98257806 13.2957678 -15 11 C-14.34 11 -13.68 11 -13 11 C-12.67 10.01 -12.34 9.02 -12 8 C-9.27734375 5.95703125 -9.27734375 5.95703125 -5.9375 3.8125 C-4.83277344 3.09707031 -3.72804688 2.38164062 -2.58984375 1.64453125 C-1.73519531 1.10183594 -0.88054687 0.55914062 0 0 Z " fill="#4B96DF" transform="translate(125,138)"/>
<path d="M0 0 C2.31730454 6.95191361 -2.2070784 16.4427058 -5 23 C-5.66 23.66 -6.32 24.32 -7 25 C-7.6683378 26.58660023 -8.28781734 28.19410814 -8.875 29.8125 C-10.42911901 33.83356629 -12.1219672 36.75060813 -15 40 C-16.40695924 42.22768546 -17.72061919 44.48066713 -18.96875 46.80078125 C-20.7507027 50.06094472 -21.85518442 51.90345628 -25 54 C-24.38074557 50.72221434 -23.2157142 48.62981386 -21.27734375 45.93359375 C-17.81646275 40.87903537 -15.16373026 35.59874048 -12.5625 30.0625 C-12.09094482 29.06919678 -11.61938965 28.07589355 -11.13354492 27.05249023 C-6.98323554 18.19580511 -3.35885818 9.1824075 0 0 Z " fill="#3796BF" transform="translate(313,222)"/>
<path d="M0 0 C0.86351074 -0.00080566 1.72702148 -0.00161133 2.61669922 -0.00244141 C7.78205983 0.04266654 12.76227804 0.4495205 17.875 1.1875 C17.545 1.8475 17.215 2.5075 16.875 3.1875 C9.285 3.1875 1.695 3.1875 -6.125 3.1875 C-6.125 3.8475 -6.125 4.5075 -6.125 5.1875 C-7.011875 5.001875 -7.89875 4.81625 -8.8125 4.625 C-11.95754712 4.01544232 -11.95754712 4.01544232 -14.34375 4.6875 C-17.93108143 5.33241352 -21.33301175 5.05008658 -24.9375 4.75 C-25.97680664 4.67168945 -25.97680664 4.67168945 -27.03710938 4.59179688 C-28.73354437 4.46310181 -30.42934863 4.32613816 -32.125 4.1875 C-28.53195438 1.79213626 -25.43260636 1.49887958 -21.25 1.0625 C-20.46641113 0.97830811 -19.68282227 0.89411621 -18.87548828 0.80737305 C-12.58244129 0.19711196 -6.32057157 0.00562028 0 0 Z " fill="#5C6FB2" transform="translate(198.125,116.8125)"/>
<path d="M0 0 C2.64 0 5.28 0 8 0 C8 0.99 8 1.98 8 3 C9.0828125 2.9690625 9.0828125 2.9690625 10.1875 2.9375 C15.07288136 3.04606403 19.25579099 4.36059663 23.8125 6.0625 C24.78832031 6.42472656 25.76414063 6.78695313 26.76953125 7.16015625 C27.50558594 7.43730469 28.24164063 7.71445312 29 8 C29.33 7.01 29.66 6.02 30 5 C30.33 5.66 30.66 6.32 31 7 C30.67 7.66 30.34 8.32 30 9 C30.886875 9.12375 31.77375 9.2475 32.6875 9.375 C35.70387502 9.94412736 38.20326054 10.76614436 41 12 C41 12.33 41 12.66 41 13 C34.2153511 13.35203367 28.50996271 12.09478507 22 10.25 C21.05382812 9.99734375 20.10765625 9.7446875 19.1328125 9.484375 C14.70976138 8.25915308 10.63300865 6.93389204 6.5625 4.796875 C3.06976452 2.69977088 3.06976452 2.69977088 -1 3 C-0.67 2.01 -0.34 1.02 0 0 Z " fill="#4D3170" transform="translate(140,364)"/>
<path d="M0 0 C0.66 1.98 1.32 3.96 2 6 C1.34 6.33 0.68 6.66 0 7 C-0.66 6.67 -1.32 6.34 -2 6 C-1.67 4.68 -1.34 3.36 -1 2 C-2.02746338 2.31505493 -2.02746338 2.31505493 -3.07568359 2.63647461 C-11.62468626 5.03889022 -19.78700805 5.47993201 -28.625 5.5625 C-31.30518756 5.59385648 -33.98408732 5.63930304 -36.6640625 5.69140625 C-37.83404785 5.70373291 -39.0040332 5.71605957 -40.20947266 5.72875977 C-43.13877658 5.71518905 -43.13877658 5.71518905 -45 8 C-45.33 6.35 -45.66 4.7 -46 3 C-45.25540527 2.98018066 -44.51081055 2.96036133 -43.74365234 2.93994141 C-25.59530253 2.55955492 -25.59530253 2.55955492 -7.6015625 0.40234375 C-5.02310804 0.00357377 -2.60439596 -0.07102898 0 0 Z " fill="#BDEFEC" transform="translate(115,271)"/>
<path d="M0 0 C0.99 0.99 1.98 1.98 3 3 C1.39549005 6.2090199 -1.91489027 6.62796238 -5.1875 7.75 C-7.88804973 9.61244809 -8.19626408 11.91901232 -9 15 C-13.40914783 16.10228696 -17.48382401 16.07654536 -22 16 C-20.77494674 12.32484021 -19.85333748 12.05110999 -16.5625 10.1875 C-15.66789062 9.671875 -14.77328125 9.15625 -13.8515625 8.625 C-12.91054688 8.08875 -11.96953125 7.5525 -11 7 C-9.14279929 5.90094424 -7.28847084 4.79701566 -5.4375 3.6875 C-4.61121094 3.19636719 -3.78492188 2.70523438 -2.93359375 2.19921875 C-1.06783875 1.14391451 -1.06783875 1.14391451 0 0 Z " fill="#3B94AD" transform="translate(368,208)"/>
<path d="M0 0 C1.485 0.99 1.485 0.99 3 2 C2.01 3.485 2.01 3.485 1 5 C1.66 5.33 2.32 5.66 3 6 C3.31693627 9.07428185 3.37994057 12.1259154 3.4609375 15.21484375 C3.68629819 18.13792322 3.68629819 18.13792322 6.0390625 19.37890625 C6.68617188 19.58386719 7.33328125 19.78882813 8 20 C7.979375 20.928125 7.95875 21.85625 7.9375 22.8125 C7.84230396 26.02286011 7.84230396 26.02286011 9 29 C9.66 29 10.32 29 11 29 C10.67 29.99 10.34 30.98 10 32 C9.01 32 8.02 32 7 32 C6.67 31.34 6.34 30.68 6 30 C5.01 29.67 4.02 29.34 3 29 C2.06799731 26.17373212 1.35828527 23.52333447 0.75 20.625 C0.57307617 19.81240723 0.39615234 18.99981445 0.21386719 18.16259766 C-1.04104498 11.92887716 -1.27149138 6.27453353 0 0 Z " fill="#34D0D5" transform="translate(421,268)"/>
<path d="M0 0 C0.66 0.66 1.32 1.32 2 2 C1.625 4.125 1.625 4.125 1 6 C2.98 6.66 4.96 7.32 7 8 C7 9.32 7 10.64 7 12 C10.13730736 13.8591451 12.3631915 14.36368085 16 14 C18.25132517 13.08431094 18.25132517 13.08431094 20 12 C19.67 13.65 19.34 15.3 19 17 C13.72 17 8.44 17 3 17 C2 13 2 13 2 10 C-0.33075929 10.95865509 -0.33075929 10.95865509 -2 14 C-2 11.36 -2 8.72 -2 6 C-1.67 6 -1.34 6 -1 6 C-0.67 4.02 -0.34 2.04 0 0 Z " fill="#406896" transform="translate(327,258)"/>
<path d="M0 0 C0.62366455 0.06566162 1.2473291 0.13132324 1.88989258 0.19897461 C9.81629277 0.98176683 17.72852994 1.31081665 25.6875 1.5625 C27.61625977 1.62727539 27.61625977 1.62727539 29.58398438 1.69335938 C32.72257494 1.79836798 35.86123004 1.90052405 39 2 C39 2.66 39 3.32 39 4 C26.50785873 5.54088086 13.47271484 5.84780961 1 4 C0.67 2.68 0.34 1.36 0 0 Z " fill="#505275" transform="translate(173,330)"/>
<path d="M0 0 C2.32845886 3.63821698 2.23553948 6.76028942 2 11 C1.67 11.66 1.34 12.32 1 13 C0.84279903 15.9148537 0.74144346 18.80939636 0.68359375 21.7265625 C0.66281265 22.58937836 0.64203156 23.45219421 0.62062073 24.34115601 C0.55513966 27.10235493 0.49624702 29.86365038 0.4375 32.625 C0.3943134 34.49480172 0.35069907 36.36459362 0.30664062 38.234375 C0.19945976 42.82281728 0.09818825 47.41135683 0 52 C-0.66 51.67 -1.32 51.34 -2 51 C-2.02490465 45.48649415 -2.04295608 39.97302178 -2.05493164 34.45947266 C-2.05992942 32.58772205 -2.06672988 30.71597529 -2.07543945 28.84423828 C-2.08770621 26.13833665 -2.093274 23.43248708 -2.09765625 20.7265625 C-2.10281754 19.90322418 -2.10797882 19.07988586 -2.11329651 18.2315979 C-2.11384053 12.46896901 -1.91783211 6.6986943 -1 1 C-0.67 0.67 -0.34 0.34 0 0 Z " fill="#39809B" transform="translate(420,214)"/>
<path d="M0 0 C1.18335938 0.0721875 2.36671875 0.144375 3.5859375 0.21875 C10.914876 0.65328738 18.19870777 1.07164683 25.54296875 0.96875 C30.70817322 1.03444417 35.85649166 1.54853218 41 2 C31.56593865 7.48647539 14.4946295 5.98294247 4 4 C1.71484375 2.9609375 1.71484375 2.9609375 0 2 C0 1.34 0 0.68 0 0 Z " fill="#583F6A" transform="translate(178,374)"/>
<path d="M0 0 C0.66 0.33 1.32 0.66 2 1 C-1.9769989 7.34210809 -4.87774912 9.78159399 -12 12 C-13.71445534 13.49451283 -13.71445534 13.49451283 -15 15 C-16.65 14.01 -18.3 13.02 -20 12 C-17.91719893 9.73713431 -16.00646894 8.32726054 -13.2421875 6.9921875 C-12.18064453 6.47205078 -12.18064453 6.47205078 -11.09765625 5.94140625 C-9.99744141 5.41353516 -9.99744141 5.41353516 -8.875 4.875 C-4.12257663 2.87871087 -4.12257663 2.87871087 0 0 Z " fill="#495A87" transform="translate(246,317)"/>
<path d="M0 0 C0.33 0 0.66 0 1 0 C2.3173767 7.96649849 2.11089426 15.95194375 2.0625 24 C2.05747576 25.45702971 2.05291449 26.9140611 2.04882812 28.37109375 C2.03789388 31.9140977 2.02068 35.45703797 2 39 C-0.5096128 36.4903872 -0.27077705 35.59750569 -0.34375 32.125 C-0.37339844 31.13886719 -0.40304687 30.15273437 -0.43359375 29.13671875 C-0.45550781 28.10160156 -0.47742188 27.06648438 -0.5 26 C-0.65008925 19.12238102 -1.01577194 12.80917516 -2.87304688 6.15625 C-3 4 -3 4 -1.61132812 1.71875 C-1.07958984 1.1515625 -0.54785156 0.584375 0 0 Z " fill="#65A6C1" transform="translate(451,221)"/>
<path d="M0 0 C0.66 1.32 1.32 2.64 2 4 C0.329375 4.12375 0.329375 4.12375 -1.375 4.25 C-5.05753944 4.57873787 -5.05753944 4.57873787 -6.4375 7.0625 C-6.7159375 8.0215625 -6.7159375 8.0215625 -7 9 C-9 6 -9 6 -9 4 C-9.80179688 4.09539062 -10.60359375 4.19078125 -11.4296875 4.2890625 C-21.55329126 5.27617126 -30.96015674 4.37734811 -41 3 C-41 2.67 -41 2.34 -41 2 C-40.14172607 2.00785522 -40.14172607 2.00785522 -39.26611328 2.01586914 C-29.06307315 2.09632833 -18.87873451 2.11425473 -8.6875 1.5625 C-7.9238916 1.52326416 -7.1602832 1.48402832 -6.37353516 1.44360352 C-2.8904163 1.52043548 -2.8904163 1.52043548 0 0 Z " fill="#4E4487" transform="translate(145,360)"/>
<path d="M0 0 C0.66 0.33 1.32 0.66 2 1 C1.59007813 1.79664063 1.18015625 2.59328125 0.7578125 3.4140625 C0.21898438 4.47367188 -0.31984375 5.53328125 -0.875 6.625 C-1.40867187 7.66914063 -1.94234375 8.71328125 -2.4921875 9.7890625 C-3.9172227 12.82372296 -4.97243738 15.81369237 -6 19 C-6.6441788 20.50979406 -7.30938992 22.01087201 -8 23.5 C-9.56194577 26.94444011 -10.88617173 30.38005813 -12 34 C-12.99 33.67 -13.98 33.34 -15 33 C-14.06745036 30.28987192 -13.12915006 27.58196565 -12.1875 24.875 C-11.92646484 24.11445313 -11.66542969 23.35390625 -11.39648438 22.5703125 C-9.16456198 16.17764587 -6.33415047 10.41615855 -2.8125 4.625 C-2.28269531 3.75101563 -1.75289062 2.87703125 -1.20703125 1.9765625 C-0.80871094 1.32429687 -0.41039063 0.67203125 0 0 Z " fill="#49A3C2" transform="translate(86,178)"/>
<path d="M0 0 C0.89694794 3.58779175 1.08304117 6.34618837 1 10 C-2.90398445 12.08212504 -5.61302202 12 -10 12 C-10 11.34 -10 10.68 -10 10 C-10.66 9.67 -11.32 9.34 -12 9 C-11.01 8.67 -10.02 8.34 -9 8 C-9 7.01 -9 6.02 -9 5 C-6.03 3.35 -3.06 1.7 0 0 Z " fill="#5884D7" transform="translate(135,132)"/>
<path d="M0 0 C5.59554553 -0.29105568 9.77000574 0.62367726 14.9375 2.5 C15.62134766 2.73847656 16.30519531 2.97695312 17.00976562 3.22265625 C18.67658097 3.80545882 20.33880316 4.40137051 22 5 C21.67 6.32 21.34 7.64 21 9 C16.62065881 8.48041715 12.31196609 7.94324258 8 7 C8 6.01 8 5.02 8 4 C6.68 4.33 5.36 4.66 4 5 C3.71125 4.360625 3.4225 3.72125 3.125 3.0625 C2.17176549 0.84793921 2.17176549 0.84793921 0 0 Z " fill="#5A6EC0" transform="translate(218,119)"/>
<path d="M0 0 C0.66 0.33 1.32 0.66 2 1 C1.90126587 1.82238159 1.90126587 1.82238159 1.80053711 2.66137695 C-0.01616727 17.32062367 -0.01616727 17.32062367 1 32 C-0.485 32.495 -0.485 32.495 -2 33 C-2.66 31.02 -3.32 29.04 -4 27 C-3.34 27 -2.68 27 -2 27 C-2.19078125 25.80503906 -2.3815625 24.61007813 -2.578125 23.37890625 C-4.84732602 7.69869427 -4.84732602 7.69869427 0 0 Z " fill="#45D7D9" transform="translate(112,229)"/>
<path d="M0 0 C0.66 0.66 1.32 1.32 2 2 C-0.75538079 5.80504967 -0.75538079 5.80504967 -2.5390625 7.2265625 C-4.68126333 9.82698811 -4.68153152 12.2521428 -5.0625 15.5625 C-5.79166667 21.79166667 -5.79166667 21.79166667 -8 24 C-9.19639466 18.27385951 -8.64244939 14.15112356 -7.0625 8.5625 C-6.86720703 7.83095703 -6.67191406 7.09941406 -6.47070312 6.34570312 C-5.99233665 4.56057944 -5.49782954 2.77979404 -5 1 C-2.625 0.375 -2.625 0.375 0 0 Z " fill="#608CD6" transform="translate(429,193)"/>
<path d="M0 0 C1.32 0.33 2.64 0.66 4 1 C4.33 2.98 4.66 4.96 5 7 C5.99 7 6.98 7 8 7 C8.50688605 9.54046458 9.00566874 12.08208876 9.5 14.625 C9.64308594 15.33785156 9.78617187 16.05070312 9.93359375 16.78515625 C10.73049426 20.92144935 11.16034056 24.76433679 11 29 C10.34 29.33 9.68 29.66 9 30 C8.93006836 29.44538086 8.86013672 28.89076172 8.78808594 28.31933594 C8.4595594 25.79359009 8.10507694 23.27214447 7.75 20.75 C7.64042969 19.87730469 7.53085937 19.00460938 7.41796875 18.10546875 C6.6941354 13.11482829 6.14413385 10.24463193 2 7 C0 4 0 4 0 0 Z " fill="#6292D5" transform="translate(440,191)"/>
<path d="M0 0 C0.33 0.66 0.66 1.32 1 2 C1.66 2.33 2.32 2.66 3 3 C-2.48136179 7.12480746 -7.19603711 10.66878987 -14 12 C-14.33 11.34 -14.66 10.68 -15 10 C-15.66 10 -16.32 10 -17 10 C-17 9.34 -17 8.68 -17 8 C-15.783125 7.71125 -14.56625 7.4225 -13.3125 7.125 C-10.08185352 6.32164208 -7.05679065 5.33734591 -4 4 C-4 3.01 -4 2.02 -4 1 C-2.68 0.67 -1.36 0.34 0 0 Z " fill="#4F4376" transform="translate(268,353)"/>
<path d="M0 0 C5.60305364 1.12061073 8.01214593 1.89130187 12 6 C14.93115595 7.50518819 17.95420644 8.7475791 21 10 C21.66 10.33 22.32 10.66 23 11 C23 11.66 23 12.32 23 13 C21.3984375 13.73046875 21.3984375 13.73046875 19 14 C15.9765625 12.48828125 15.9765625 12.48828125 12.625 10.3125 C10.97371094 9.25482422 10.97371094 9.25482422 9.2890625 8.17578125 C8.20367187 7.45777344 7.11828125 6.73976563 6 6 C5.42217773 5.6395459 4.84435547 5.2790918 4.24902344 4.90771484 C2.7987092 3.99009089 1.39441569 3.00052485 0 2 C0 1.34 0 0.68 0 0 Z " fill="#646185" transform="translate(368,279)"/>
<path d="M0 0 C0.66 0 1.32 0 2 0 C2 7.92 2 15.84 2 24 C2.99 24 3.98 24 5 24 C5.66 22.68 6.32 21.36 7 20 C8.32 20.66 9.64 21.32 11 22 C9.73461631 22.84158536 8.46246221 23.67299748 7.1875 24.5 C6.47980469 24.9640625 5.77210938 25.428125 5.04296875 25.90625 C3 27 3 27 0 27 C0 18.09 0 9.18 0 0 Z " fill="#C5C5C5" transform="translate(166,274)"/>
<path d="M0 0 C0.33 0.66 0.66 1.32 1 2 C2.98 1.67 4.96 1.34 7 1 C6.64808594 1.46148437 6.29617187 1.92296875 5.93359375 2.3984375 C2.3635286 7.11502488 -1.05076201 11.91571357 -4.38671875 16.80078125 C-5.80673191 18.73653769 -7.24941546 20.36576851 -9 22 C-9 20.68 -9 19.36 -9 18 C-8.34 18 -7.68 18 -7 18 C-6.87625 16.700625 -6.7525 15.40125 -6.625 14.0625 C-6.4140625 11.84765625 -6.4140625 11.84765625 -6 10 C-5.34 9.67 -4.68 9.34 -4 9 C-3.34 9.33 -2.68 9.66 -2 10 C-1.93941406 9.36191406 -1.87882813 8.72382813 -1.81640625 8.06640625 C-1.73261719 7.24011719 -1.64882812 6.41382813 -1.5625 5.5625 C-1.48128906 4.73878906 -1.40007812 3.91507813 -1.31640625 3.06640625 C-1 1 -1 1 0 0 Z " fill="#44A5C2" transform="translate(130,186)"/>
<path d="M0 0 C3.90625 2.6640625 3.90625 2.6640625 4.75 5.6875 C4.87375 6.8321875 4.87375 6.8321875 5 8 C3.68 8 2.36 8 1 8 C0.87882812 9.12019531 0.75765625 10.24039063 0.6328125 11.39453125 C0.46396733 12.86723636 0.29467303 14.33989004 0.125 15.8125 C0.04636719 16.55048828 -0.03226562 17.28847656 -0.11328125 18.04882812 C-0.54460286 21.71506181 -0.9196783 23.87951745 -3 27 C-3.66 27.33 -4.32 27.66 -5 28 C-4.2060351 21.97422428 -3.09159025 16.02869799 -1.9375 10.0625 C-1.75123047 9.09248047 -1.56496094 8.12246094 -1.37304688 7.12304688 C-0.91683597 4.74841064 -0.4591177 2.37407563 0 0 Z " fill="#5D5F8C" transform="translate(283,149)"/>
<path d="M0 0 C0.33 0.66 0.66 1.32 1 2 C0.01 2.495 0.01 2.495 -1 3 C-1 3.99 -1 4.98 -1 6 C-5.51289217 11.38906539 -10.15351314 13.89967175 -17 15 C-16.34 13.68 -15.68 12.36 -15 11 C-14.34 11 -13.68 11 -13 11 C-12.67 10.01 -12.34 9.02 -12 8 C-9.27734375 5.95703125 -9.27734375 5.95703125 -5.9375 3.8125 C-4.83277344 3.09707031 -3.72804688 2.38164062 -2.58984375 1.64453125 C-1.73519531 1.10183594 -0.88054687 0.55914062 0 0 Z " fill="#5991CC" transform="translate(125,138)"/>
<path d="M0 0 C0.78375 0.185625 1.5675 0.37125 2.375 0.5625 C4.97089775 1.25962266 4.97089775 1.25962266 7 0 C7.33 0.99 7.66 1.98 8 3 C10.97 3.33 13.94 3.66 17 4 C16 8 16 8 15 11 C11.36485304 9.6310888 8.04411097 8.0167935 4.6875 6.0625 C3.80449219 5.55847656 2.92148437 5.05445313 2.01171875 4.53515625 C1.34785156 4.02855469 0.68398438 3.52195312 0 3 C0 2.01 0 1.02 0 0 Z " fill="#535B88" transform="translate(351,268)"/>
<path d="M0 0 C0.66 0.33 1.32 0.66 2 1 C-1.21466831 11.46477132 -1.21466831 11.46477132 -4 15 C-6.6875 16.3125 -6.6875 16.3125 -9 17 C-9.3125 13.6875 -9.3125 13.6875 -9 10 C-6.625 8.375 -6.625 8.375 -4 7 C-2.65310085 4.42900598 -2.65310085 4.42900598 -2 2 C-1.34 2 -0.68 2 0 2 C0 1.34 0 0.68 0 0 Z " fill="#3E5E9A" transform="translate(287,272)"/>
<path d="M0 0 C0.57105469 0.06058594 1.14210937 0.12117187 1.73046875 0.18359375 C2.54128906 0.26738281 3.35210937 0.35117188 4.1875 0.4375 C5.09371094 0.53160156 5.99992188 0.62570313 6.93359375 0.72265625 C9.06841413 0.91574191 11.20733805 1.06621341 13.34765625 1.18359375 C24.11412954 1.78928513 24.11412954 1.78928513 29 5 C29 5.99 29 6.98 29 8 C22.58622923 6.98881992 16.3155589 5.49234888 10 4 C9.15824219 3.81179687 8.31648437 3.62359375 7.44921875 3.4296875 C2.2266924 2.2266924 2.2266924 2.2266924 0 0 Z " fill="#5888BF" transform="translate(199,160)"/>
<path d="M0 0 C0.33 0 0.66 0 1 0 C2.38591277 7.69766007 1.48407886 13.61793513 -1 21 C-1.66 21 -2.32 21 -3 21 C-4.37770978 13.23472668 -3.55156706 7.10313412 0 0 Z " fill="#4381AA" transform="translate(324,264)"/>
<path d="M0 0 C1.1875 1.625 1.1875 1.625 2 4 C0.75 6.875 0.75 6.875 -1 10 C-1.69971973 11.98867713 -2.37664397 13.98608051 -3 16 C-3.99 16 -4.98 16 -6 16 C-7.125 8.25 -7.125 8.25 -6 6 C-5.34 5.67 -4.68 5.34 -4 5 C-4.33 4.34 -4.66 3.68 -5 3 C-3.35 2.01 -1.7 1.02 0 0 Z " fill="#45C1DF" transform="translate(120,205)"/>
<path d="M0 0 C0.33 0 0.66 0 1 0 C1.1441387 5.98518781 0.64006283 11.59505831 -0.3125 17.5 C-0.43044922 18.30308594 -0.54839844 19.10617187 -0.66992188 19.93359375 C-1.51564094 25.28547747 -2.94670411 29.98466662 -5 35 C-6.42944945 32.64561267 -7.08661261 31.51967567 -6.625 28.75 C-6.41875 28.1725 -6.2125 27.595 -6 27 C-5.34 27 -4.68 27 -4 27 C-4 24.36 -4 21.72 -4 19 C-3.34 19 -2.68 19 -2 19 C-2 13.72 -2 8.44 -2 3 C-1.34 3 -0.68 3 0 3 C0 2.01 0 1.02 0 0 Z " fill="#50BFCD" transform="translate(451,262)"/>
<path d="M0 0 C0.99 0.33 1.98 0.66 3 1 C2.34 3.31 1.68 5.62 1 8 C1.66 8 2.32 8 3 8 C3 10.31 3 12.62 3 15 C2.34 15 1.68 15 1 15 C0.34 15.66 -0.32 16.32 -1 17 C-3.16614592 13.55965059 -2.8500833 11.87260168 -2 8 C-2.20625 7.13375 -2.4125 6.2675 -2.625 5.375 C-2.74875 4.59125 -2.8725 3.8075 -3 3 C-1.5625 1.1875 -1.5625 1.1875 0 0 Z " fill="#33A0BF" transform="translate(411,200)"/>
<path d="M0 0 C1.65 0.33 3.3 0.66 5 1 C2.23669302 3.09911075 -0.56473219 5.11578906 -3.4375 7.0625 C-4.17871094 7.56910156 -4.91992188 8.07570312 -5.68359375 8.59765625 C-8.0549571 10.03327082 -10.40301432 11.04273367 -13 12 C-12.67 9.36 -12.34 6.72 -12 4 C-9.69 4.33 -7.38 4.66 -5 5 C-4.67 4.01 -4.34 3.02 -4 2 C-2.68 2 -1.36 2 0 2 C0 1.34 0 0.68 0 0 Z " fill="#57A4DC" transform="translate(158,168)"/>
<path d="M0 0 C0.66 0.33 1.32 0.66 2 1 C1.67641073 4.55948201 1.3899006 6.53463476 -0.9375 9.3125 C-3 11 -3 11 -5 12 C-5.33 12.99 -5.66 13.98 -6 15 C-7.65 14.67 -9.3 14.34 -11 14 C-9.43528652 10.15933963 -6.93965873 7.86966685 -4 5 C-2.64444707 3.35135455 -1.30368347 1.68996005 0 0 Z " fill="#496E95" transform="translate(267,296)"/>
<path d="M0 0 C7.26 0 14.52 0 22 0 C22 0.66 22 1.32 22 2 C17.38 2 12.76 2 8 2 C8 2.66 8 3.32 8 4 C6.02 4.33 4.04 4.66 2 5 C1.34 3.35 0.68 1.7 0 0 Z " fill="#6B6F9C" transform="translate(88,319)"/>
<path d="M0 0 C0.33 0 0.66 0 1 0 C1.26953125 2.234375 1.26953125 2.234375 1 5 C-0.86328125 7.203125 -0.86328125 7.203125 -3.3125 9.25 C-4.51326172 10.27867187 -4.51326172 10.27867187 -5.73828125 11.328125 C-8 13 -8 13 -11 14 C-11.375 11.8125 -11.375 11.8125 -11 9 C-8.08883306 6.15352566 -5.87472029 4.29157343 -2 3 C-1.34 2.01 -0.68 1.02 0 0 Z " fill="#504C7F" transform="translate(283,341)"/>
<path d="M0 0 C0.33 0 0.66 0 1 0 C1.51019363 5.35703314 0.16874015 7.74483466 -3 12 C-4.37799228 14.23923746 -5.72093375 16.48237711 -6.96875 18.796875 C-8.74857593 22.05988921 -9.8541507 23.90276713 -13 26 C-12.38480963 22.75034735 -11.25523612 20.71910241 -9.3125 18.0625 C-5.41153885 12.41413494 -2.73489182 6.27473406 0 0 Z " fill="#3A88B6" transform="translate(301,250)"/>
<path d="M0 0 C0.33 0 0.66 0 1 0 C1.20311079 5.24025843 0.53238422 9.58101714 -0.875 14.625 C-1.22304688 15.89601562 -1.57109375 17.16703125 -1.9296875 18.4765625 C-2.81867091 21.40306994 -3.80421236 24.18828312 -5 27 C-5.33 27 -5.66 27 -6 27 C-5.85892253 25.54119891 -5.71197585 24.08296449 -5.5625 22.625 C-5.48128906 21.81289062 -5.40007812 21.00078125 -5.31640625 20.1640625 C-5 18 -5 18 -4 16 C-3.47635701 12.69532871 -3.03864048 9.38305236 -2.59765625 6.06640625 C-2 3 -2 3 0 0 Z " fill="#2F71A3" transform="translate(316,202)"/>
<path d="M0 0 C3.89042016 0.57456383 6.55867496 1.71993069 9.875 3.8125 C10.73609375 4.34746094 11.5971875 4.88242188 12.484375 5.43359375 C13.31453125 5.95050781 14.1446875 6.46742188 15 7 C17.32201375 8.35450802 19.65969329 9.67721795 22 11 C21.67 11.66 21.34 12.32 21 13 C17.08579143 11.86922864 14.79054268 10.91187063 12 8 C9.40084462 6.80972016 9.40084462 6.80972016 7 6 C7 5.34 7 4.68 7 4 C4.03 3.505 4.03 3.505 1 3 C0.67 2.01 0.34 1.02 0 0 Z " fill="#DBDBDB" transform="translate(249,128)"/>
<path d="M0 0 C2.97 0.33 5.94 0.66 9 1 C8.67 1.66 8.34 2.32 8 3 C0.41 3 -7.18 3 -15 3 C-15 3.66 -15 4.32 -15 5 C-15.886875 4.814375 -16.77375 4.62875 -17.6875 4.4375 C-20.85178811 4.01957516 -22.94839642 4.19222258 -26 5 C-26.33 4.34 -26.66 3.68 -27 3 C-24.33821779 1.6691089 -22.31260604 1.88731007 -19.3359375 1.90234375 C-18.21445313 1.90556641 -17.09296875 1.90878906 -15.9375 1.91210938 C-14.761875 1.92048828 -13.58625 1.92886719 -12.375 1.9375 C-11.19164062 1.94201172 -10.00828125 1.94652344 -8.7890625 1.95117188 C-5.85932493 1.96298533 -2.92968728 1.97945742 0 2 C0 1.34 0 0.68 0 0 Z " fill="#5F74CE" transform="translate(207,117)"/>
<path d="M0 0 C0.33 0 0.66 0 1 0 C1.82222554 4.29605732 2.11770795 8.33966603 2.09765625 12.7109375 C2.09443359 13.95488281 2.09121094 15.19882813 2.08789062 16.48046875 C2.07951172 17.76566406 2.07113281 19.05085938 2.0625 20.375 C2.05798828 21.68339844 2.05347656 22.99179688 2.04882812 24.33984375 C2.03707594 27.55994281 2.02064543 30.7799477 2 34 C1.67 34 1.34 34 1 34 C0.17280465 29.01097807 -0.08154261 24.32602731 0 19.25 C0.12930529 14.02831171 0.12930529 14.02831171 -1 9 C-1.17812624 6.3071504 -1.08727698 3.70558632 -1 1 C-0.67 0.67 -0.34 0.34 0 0 Z " fill="#2E9BC1" transform="translate(325,222)"/>
<path d="M0 0 C0.86625 0.495 1.7325 0.99 2.625 1.5 C6.1779317 3.07908076 8.17136755 3.4161557 12 3 C14.30230766 2.10168984 14.30230766 2.10168984 16 1 C15.67 2.65 15.34 4.3 15 6 C9.72 6 4.44 6 -1 6 C-0.67 4.02 -0.34 2.04 0 0 Z " fill="#4B536F" transform="translate(331,269)"/>
<path d="M0 0 C1.485 0.99 1.485 0.99 3 2 C2.01 3.485 2.01 3.485 1 5 C1.66 5.33 2.32 5.66 3 6 C3.44921875 8.36328125 3.44921875 8.36328125 3.6875 11.3125 C3.77386719 12.27800781 3.86023438 13.24351562 3.94921875 14.23828125 C3.99537006 16.74820274 3.75083762 18.62328843 3 21 C2.34 21 1.68 21 1 21 C-0.67959957 13.69860023 -1.18982084 7.41226226 0 0 Z " fill="#32C7DA" transform="translate(421,268)"/>
<path d="M0 0 C2.97 0.99 5.94 1.98 9 3 C8.67 3.66 8.34 4.32 8 5 C5.69 4.67 3.38 4.34 1 4 C0.94392578 5.78857422 0.94392578 5.78857422 0.88671875 7.61328125 C0.82105968 9.179719 0.75461232 10.74612384 0.6875 12.3125 C0.66494141 13.09818359 0.64238281 13.88386719 0.61914062 14.69335938 C0.58369141 15.45068359 0.54824219 16.20800781 0.51171875 16.98828125 C0.48553467 17.68477783 0.45935059 18.38127441 0.43237305 19.09887695 C-0.11223768 21.49350359 -1.15829162 22.43272547 -3 24 C-2.68860949 21.31236733 -2.37591843 18.62489631 -2.0625 15.9375 C-1.97548828 15.18533203 -1.88847656 14.43316406 -1.79882812 13.65820312 C-1.26536361 9.09411781 -0.67013702 4.54606466 0 0 Z " fill="#D3E2F9" transform="translate(240,124)"/>
<path d="M0 0 C0 0.66 0 1.32 0 2 C7.425 2.99 7.425 2.99 15 4 C15 4.66 15 5.32 15 6 C13.7625 6.020625 12.525 6.04125 11.25 6.0625 C10.55390625 6.07410156 9.8578125 6.08570313 9.140625 6.09765625 C7 6 7 6 5.05078125 5.5078125 C2.63211935 4.90890574 0.42751928 4.83127843 -2.0625 4.8125 C-2.91972656 4.79832031 -3.77695313 4.78414063 -4.66015625 4.76953125 C-7.27198309 4.84153915 -7.27198309 4.84153915 -10 7 C-12.1875 6.625 -12.1875 6.625 -14 6 C-12.2335343 4.9923048 -10.46166177 3.99408286 -8.6875 3 C-7.20830078 2.1646875 -7.20830078 2.1646875 -5.69921875 1.3125 C-3 0 -3 0 0 0 Z " fill="#473D73" transform="translate(97,359)"/>
<path d="M0 0 C-0.33 1.65 -0.66 3.3 -1 5 C-1.99 5.33 -2.98 5.66 -4 6 C-4.103125 6.763125 -4.20625 7.52625 -4.3125 8.3125 C-5.04364039 11.17059424 -5.76951913 12.15742885 -8 14 C-8 12.68 -8 11.36 -8 10 C-7.34 10 -6.68 10 -6 10 C-6 9.01 -6 8.02 -6 7 C-7.65 7 -9.3 7 -11 7 C-9.33784732 5.66104368 -7.67036393 4.32869858 -6 3 C-5.278125 2.4225 -4.55625 1.845 -3.8125 1.25 C-2 0 -2 0 0 0 Z " fill="#3397AD" transform="translate(428,172)"/>
<path d="M0 0 C7 8.44827586 7 8.44827586 7 12 C3.32553433 11.29337199 0.26087791 9.81159884 -3 8 C-3.33 7.34 -3.66 6.68 -4 6 C-2.68 5.34 -1.36 4.68 0 4 C0 2.68 0 1.36 0 0 Z " fill="#564C68" transform="translate(420,304)"/>
<path d="M0 0 C-0.639375 0.433125 -1.27875 0.86625 -1.9375 1.3125 C-4.26746003 2.91239177 -4.26746003 2.91239177 -5 6 C-7.32206525 6.70491267 -9.65593068 7.37212429 -12 8 C-12.33 8.66 -12.66 9.32 -13 10 C-13.99 9.67 -14.98 9.34 -16 9 C-15.34 8.34 -14.68 7.68 -14 7 C-13.896875 6.34 -13.79375 5.68 -13.6875 5 C-13 3 -13 3 -10.75 1.875 C-9.8425 1.58625 -8.935 1.2975 -8 1 C-7.13375 0.608125 -6.2675 0.21625 -5.375 -0.1875 C-3 -1 -3 -1 0 0 Z " fill="#2AADBF" transform="translate(413,185)"/>
<path d="M0 0 C1.98 0 3.96 0 6 0 C6 1.65 6 3.3 6 5 C7.19625 4.95875 8.3925 4.9175 9.625 4.875 C13.42329953 4.86148292 16.44975618 5.57990247 20 7 C20 7.33 20 7.66 20 8 C13.11079169 8.44446505 6.95060588 7.8253895 1 4 C0.21875 1.859375 0.21875 1.859375 0 0 Z " fill="#513A64" transform="translate(49,373)"/>
<path d="M0 0 C5.28 2.31 10.56 4.62 16 7 C16 7.66 16 8.32 16 9 C9.375 8.25 9.375 8.25 6 6 C4.0103005 5.60986284 2.00980131 5.26797351 0 5 C0 3.35 0 1.7 0 0 Z " fill="#535682" transform="translate(156,322)"/>
<path d="M0 0 C0.99 0 1.98 0 3 0 C3 1.32 3 2.64 3 4 C2.34 4 1.68 4 1 4 C0.5978125 5.1446875 0.5978125 5.1446875 0.1875 6.3125 C-0.95795247 8.90483979 -1.76415181 10.30075537 -4 12 C-4.99 12 -5.98 12 -7 12 C-5.78869178 8.55243044 -4.61489782 6.50594374 -2 4 C-0.82425289 1.90010348 -0.82425289 1.90010348 0 0 Z " fill="#45568E" transform="translate(275,285)"/>
<path d="M0 0 C1.28584296 4.18393518 0.94184421 8.11355352 0.7421875 12.44140625 C0.76807882 15.06297134 0.76807882 15.06297134 2.5078125 16.83984375 C3.24644531 17.41412109 3.24644531 17.41412109 4 18 C3.34 18.33 2.68 18.66 2 19 C-0.625 18.0625 -0.625 18.0625 -3 16 C-3.83025716 9.87685346 -2.40562964 5.61313584 0 0 Z " fill="#D7E6F1" transform="translate(235,154)"/>
<path d="M0 0 C0.66 0.66 1.32 1.32 2 2 C1.67 2.66 1.34 3.32 1 4 C1.886875 4.12375 2.77375 4.2475 3.6875 4.375 C6.70387502 4.94412736 9.20326054 5.76614436 12 7 C12 7.33 12 7.66 12 8 C5.66606918 8.34548714 0.89738492 7.29342747 -5 5 C-5 4.34 -5 3.68 -5 3 C-4.01 2.67 -3.02 2.34 -2 2 C-1.34 2.33 -0.68 2.66 0 3 C0 2.01 0 1.02 0 0 Z " fill="#452B63" transform="translate(169,369)"/>
<path d="M0 0 C1.82396528 1.04269514 3.63391153 2.10994205 5.4375 3.1875 C6.95150391 4.07501953 6.95150391 4.07501953 8.49609375 4.98046875 C11 7 11 7 11.875 9.5 C12.03818663 12.76373267 11.56651729 15.78973538 11 19 C10.67 19 10.34 19 10 19 C9.99742187 18.39671875 9.99484375 17.7934375 9.9921875 17.171875 C9.87043052 14.65556416 9.66806625 12.43276957 9 10 C6.07956297 7.52351923 6.07956297 7.52351923 3 6 C3 5.34 3 4.68 3 4 C2.01 3.67 1.02 3.34 0 3 C0 2.01 0 1.02 0 0 Z " fill="#E5E5E7" transform="translate(271,140)"/>
<path d="M0 0 C-1 3 -1 3 -3 4 C-4.99960012 4.039992 -7.00047242 4.04346799 -9 4 C-9.33 5.32 -9.66 6.64 -10 8 C-10.99 8 -11.98 8 -13 8 C-12.36338468 5.13523105 -11.63204884 3.43956744 -9.19140625 1.7421875 C-3.5906985 -1.1968995 -3.5906985 -1.1968995 0 0 Z " fill="#5F82C8" transform="translate(148,128)"/>
<path d="M0 0 C0.66 0 1.32 0 2 0 C2.33 1.98 2.66 3.96 3 6 C2.34 5.34 1.68 4.68 1 4 C0.80664062 4.69867188 0.61328125 5.39734375 0.4140625 6.1171875 C0.15367187 7.02726563 -0.10671875 7.93734375 -0.375 8.875 C-0.63023437 9.77992188 -0.88546875 10.68484375 -1.1484375 11.6171875 C-2 14 -2 14 -4 16 C-4.21192221 10.80790596 -3.5912689 6.873261 -2 2 C-1.34 2 -0.68 2 0 2 C0 1.34 0 0.68 0 0 Z " fill="#2CB6D3" transform="translate(318,207)"/>
<path d="M0 0 C5.93002267 -0.37851209 10.47239641 0.89424625 16 3 C16 3.33 16 3.66 16 4 C10.06 4.495 10.06 4.495 4 5 C3.34 3.68 2.68 2.36 2 1 C1.34 0.67 0.68 0.34 0 0 Z " fill="#5169AF" transform="translate(218,119)"/>
<path d="M0 0 C1.65 0 3.3 0 5 0 C-6.53846154 10 -6.53846154 10 -13 10 C-11.7820245 6.34607349 -10.85603494 6.04168301 -7.5625 4.25 C-6.75941406 3.80140625 -5.95632812 3.3528125 -5.12890625 2.890625 C-4.07509766 2.44976562 -4.07509766 2.44976562 -3 2 C-2.34 2.33 -1.68 2.66 -1 3 C-0.67 2.01 -0.34 1.02 0 0 Z " fill="#CBCBCB" transform="translate(229,262)"/>
<path d="M0 0 C1.45560744 4.36682232 -0.26336804 7.1829745 -1.9375 11.3125 C-3 13 -3 13 -6 14 C-6.66 12.68 -7.32 11.36 -8 10 C-7.01 10 -6.02 10 -5 10 C-4.80664062 9.36191406 -4.61328125 8.72382813 -4.4140625 8.06640625 C-4.15367188 7.24011719 -3.89328125 6.41382813 -3.625 5.5625 C-3.36976562 4.73878906 -3.11453125 3.91507813 -2.8515625 3.06640625 C-2 1 -2 1 0 0 Z " fill="#35B3D8" transform="translate(79,201)"/>
<path d="M0 0 C3.96 0.33 7.92 0.66 12 1 C10.68 1.99 9.36 2.98 8 4 C7.67 3.34 7.34 2.68 7 2 C4.46326712 3.3553326 4.46326712 3.3553326 2 5 C2 5.66 2 6.32 2 7 C0.25 7.6875 0.25 7.6875 -2 8 C-4.25 6.5625 -4.25 6.5625 -6 5 C-5.195625 4.731875 -4.39125 4.46375 -3.5625 4.1875 C-2.716875 3.795625 -1.87125 3.40375 -1 3 C-0.67 2.01 -0.34 1.02 0 0 Z " fill="#627BE0" transform="translate(165,120)"/>
<path d="M0 0 C3.63 0.33 7.26 0.66 11 1 C11.33 1.99 11.66 2.98 12 4 C12.99 4.33 13.98 4.66 15 5 C8.07 4.505 8.07 4.505 1 4 C0.67 2.68 0.34 1.36 0 0 Z " fill="#545984" transform="translate(173,330)"/>
<path d="M0 0 C0.33 0 0.66 0 1 0 C1.33 3.96 1.66 7.92 2 12 C1.01 12.66 0.02 13.32 -1 14 C-1.41846009 12.42249576 -1.80896389 10.83755752 -2.1875 9.25 C-2.40792969 8.36828125 -2.62835938 7.4865625 -2.85546875 6.578125 C-3 4 -3 4 -1.61328125 1.671875 C-0.81470703 0.84429687 -0.81470703 0.84429687 0 0 Z " fill="#579DCE" transform="translate(451,221)"/>
<path d="M0 0 C0 0.66 0 1.32 0 2 C-0.99 2 -1.98 2 -3 2 C-3 2.66 -3 3.32 -3 4 C-7.84241633 5.33583899 -11.93437617 6.25328119 -17 6 C-17.33 5.34 -17.66 4.68 -18 4 C-17.01257813 3.79503906 -16.02515625 3.59007812 -15.0078125 3.37890625 C-13.72648437 3.10949219 -12.44515625 2.84007812 -11.125 2.5625 C-9.84882812 2.29566406 -8.57265625 2.02882813 -7.2578125 1.75390625 C-4.66939438 1.15490781 -2.59881008 0 0 0 Z " fill="#4C2F60" transform="translate(112,378)"/>
<path d="M0 0 C-0.33 1.65 -0.66 3.3 -1 5 C-1.66 5 -2.32 5 -3 5 C-3 5.66 -3 6.32 -3 7 C-3.99 7 -4.98 7 -6 7 C-6 7.66 -6 8.32 -6 9 C-7.65 9.33 -9.3 9.66 -11 10 C-9.63088196 6.8510285 -8.1247864 4.9521513 -5.5 2.75 C-4.8915625 2.22921875 -4.283125 1.7084375 -3.65625 1.171875 C-2 0 -2 0 0 0 Z " fill="#4D4F74" transform="translate(109,349)"/>
<path d="M0 0 C-7.33152608 2.07726572 -13.46462229 1.94351599 -21 1 C-17.5439001 -1.06688327 -14.48667771 -1.43911229 -10.5 -1.75 C-9.3759375 -1.84796875 -8.251875 -1.9459375 -7.09375 -2.046875 C-4.0338813 -2.00051335 -2.54327051 -1.6207116 0 0 Z " fill="#4A2F66" transform="translate(228,375)"/>
<path d="M0 0 C0.66 1.32 1.32 2.64 2 4 C2.66 4 3.32 4 4 4 C4 3.34 4 2.68 4 2 C6.64 2 9.28 2 12 2 C9.3139714 3.79068573 7.3373411 4.66055791 4.3125 5.625 C3.50425781 5.88539063 2.69601563 6.14578125 1.86328125 6.4140625 C0.94095703 6.70410156 0.94095703 6.70410156 0 7 C-0.99 6.01 -1.98 5.02 -3 4 C-2.67 3.34 -2.34 2.68 -2 2 C-1.34 2 -0.68 2 0 2 C0 1.34 0 0.68 0 0 Z " fill="#578EC3" transform="translate(166,162)"/>
<path d="M0 0 C0.99 0 1.98 0 3 0 C4.9375 2.1171875 4.9375 2.1171875 7 4.875 C9.27419198 7.8986416 10.83178526 9.88785684 14 12 C13.67 13.32 13.34 14.64 13 16 C12.56429687 15.49210937 12.12859375 14.98421875 11.6796875 14.4609375 C8.74023652 11.06339026 5.79798935 7.74466037 2.5625 4.625 C0 2 0 2 0 0 Z " fill="#3E3F6D" transform="translate(98,332)"/>
<path d="M0 0 C1.1875 1.625 1.1875 1.625 2 4 C0.625 7.25 0.625 7.25 -1 10 C-1.66 10 -2.32 10 -3 10 C-4.125 4.375 -4.125 4.375 -3 1 C-2.01 0.67 -1.02 0.34 0 0 Z " fill="#51739A" transform="translate(316,296)"/>
<path d="M0 0 C0.66 0 1.32 0 2 0 C0.35433477 5.68502535 -2.29032784 10.76681636 -5 16 C-5.33 16 -5.66 16 -6 16 C-6.1949107 11.80941988 -5.97459054 8.74132944 -4 5 C-3.01 4.34 -2.02 3.68 -1 3 C-0.67 2.01 -0.34 1.02 0 0 Z " fill="#39609A" transform="translate(304,240)"/>
<path d="M0 0 C0.93619813 3.15506142 1.1057123 5.96586502 1.0625 9.25 C1.05347656 10.14203125 1.04445313 11.0340625 1.03515625 11.953125 C1.02355469 12.62859375 1.01195312 13.3040625 1 14 C0.01 14.495 0.01 14.495 -1 15 C-2.98 11.37 -4.96 7.74 -7 4 C-6.34 4 -5.68 4 -5 4 C-4.01 5.485 -4.01 5.485 -3 7 C-2.01 4.69 -1.02 2.38 0 0 Z " fill="#7D809E" transform="translate(273,193)"/>
<path d="M0 0 C0.66 0.33 1.32 0.66 2 1 C1.34 6.61 0.68 12.22 0 18 C-0.33 16.68 -0.66 15.36 -1 14 C-1.66 14 -2.32 14 -3 14 C-2.7215625 12.824375 -2.7215625 12.824375 -2.4375 11.625 C-1.74037734 9.02910225 -1.74037734 9.02910225 -3 7 C-2.34 7 -1.68 7 -1 7 C-0.67 4.69 -0.34 2.38 0 0 Z " fill="#44B0C5" transform="translate(415,194)"/>
<path d="M0 0 C0 0.66 0 1.32 0 2 C-4.44428622 5.70357185 -9.46325415 5.68822208 -15 6 C-15 5.34 -15 4.68 -15 4 C-12.87607494 3.3299166 -10.75082476 2.66403203 -8.625 2 C-7.44164063 1.62875 -6.25828125 1.2575 -5.0390625 0.875 C-2 0 -2 0 0 0 Z " fill="#4C3361" transform="translate(80,367)"/>
<path d="M0 0 C0.1799928 5.21979128 -0.02905192 9.07262981 -2 14 C-4.27005139 10.59492291 -4.18320175 9.78521579 -3.75 5.875 C-3.66234375 4.98554688 -3.5746875 4.09609375 -3.484375 3.1796875 C-3.32453125 2.46039063 -3.1646875 1.74109375 -3 1 C-1 0 -1 0 0 0 Z " fill="#629AD4" transform="translate(424,203)"/>
<path d="M0 0 C0.99 0.33 1.98 0.66 3 1 C3.25 6.625 3.25 6.625 1 10 C0.01 10 -0.98 10 -2 10 C-2.17942163 6.05272412 -2.09350689 3.4019487 0 0 Z " fill="#1EDCDB" transform="translate(442,288)"/>
<path d="M0 0 C0.625 1.75 0.625 1.75 1 4 C0.690625 4.5465625 0.38125 5.093125 0.0625 5.65625 C-1.42526081 8.93807532 -1.4641512 12.20462445 -1.625 15.75 C-1.66367187 16.44738281 -1.70234375 17.14476562 -1.7421875 17.86328125 C-1.83598624 19.57510818 -1.91906174 21.28751682 -2 23 C-2.33 23 -2.66 23 -3 23 C-3.08120751 20.10359882 -3.14059421 17.20949088 -3.1875 14.3125 C-3.21263672 13.49587891 -3.23777344 12.67925781 -3.26367188 11.83789062 C-3.32217012 7.02153514 -3.07302376 3.96024846 0 0 Z " fill="#3CC6DA" transform="translate(451,258)"/>
<path d="M0 0 C0.66 0 1.32 0 2 0 C0.80404749 5.08279817 -0.52955286 7.9872955 -4 12 C-4.70885894 13.31138904 -5.39456452 14.63777017 -6 16 C-7 13 -7 13 -5.56640625 9.86328125 C-4.90864027 8.6739872 -4.24022185 7.49053629 -3.5625 6.3125 C-3.22412109 5.70599609 -2.88574219 5.09949219 -2.53710938 4.47460938 C-1.70042085 2.9779975 -0.85137169 1.48830811 0 0 Z " fill="#3C5E9B" transform="translate(296,256)"/>
<path d="M0 0 C0.66 0.33 1.32 0.66 2 1 C1.71943562 3.64745321 1.42614369 6.29237964 1.125 8.9375 C1.04636719 9.69224609 0.96773438 10.44699219 0.88671875 11.22460938 C0.66116192 13.15919299 0.33741026 15.08176019 0 17 C-0.66 17.33 -1.32 17.66 -2 18 C-2.3690205 5.33029613 -2.3690205 5.33029613 0 0 Z " fill="#66CAD6" transform="translate(112,229)"/>
<path d="M0 0 C2.0625 0.9375 2.0625 0.9375 4 3 C4.05989746 6.07110598 3.58052245 8.99011728 3 12 C2.67 11.34 2.34 10.68 2 10 C1.01 9.67 0.02 9.34 -1 9 C-1.125 2.25 -1.125 2.25 0 0 Z " fill="#30BCD4" transform="translate(321,214)"/>
<path d="M0 0 C2.3828125 0.2421875 2.3828125 0.2421875 5.125 0.875 C6.03507812 1.07867187 6.94515625 1.28234375 7.8828125 1.4921875 C8.58148438 1.65976563 9.28015625 1.82734375 10 2 C10 2.33 10 2.66 10 3 C7.03 3 4.06 3 1 3 C0.67 4.65 0.34 6.3 0 8 C-1.32 7.67 -2.64 7.34 -4 7 C-3.34 7 -2.68 7 -2 7 C-2.04125 6.21625 -2.0825 5.4325 -2.125 4.625 C-2 2 -2 2 0 0 Z " fill="#60A4B8" transform="translate(331,214)"/>
<path d="M0 0 C0.66 0.33 1.32 0.66 2 1 C1.01 5.29 0.02 9.58 -1 14 C-2.32 14 -3.64 14 -5 14 C-3.35 9.38 -1.7 4.76 0 0 Z " fill="#5AB3C9" transform="translate(76,197)"/>
<path d="M0 0 C7.41641337 1.58054711 7.41641337 1.58054711 10 3.4375 C11 5 11 5 11 8 C6.89160936 6.54997977 3.49655387 4.6020866 0 2 C0 1.34 0 0.68 0 0 Z " fill="#4B4B78" transform="translate(368,279)"/>
<path d="M0 0 C0.66 0.33 1.32 0.66 2 1 C1.34 4.96 0.68 8.92 0 13 C-1.32 12.67 -2.64 12.34 -4 12 C-4 11.01 -4 10.02 -4 9 C-3.34 9 -2.68 9 -2 9 C-2.04125 8.071875 -2.0825 7.14375 -2.125 6.1875 C-2 3 -2 3 0 0 Z " fill="#6FA2D0" transform="translate(232,157)"/>
<path d="M0 0 C0.72018311 0.15847412 1.44036621 0.31694824 2.18237305 0.48022461 C4.85282412 0.97285006 7.37204546 1.20002649 10.08203125 1.31640625 C11.01337891 1.35830078 11.94472656 1.40019531 12.90429688 1.44335938 C13.86400391 1.48267578 14.82371094 1.52199219 15.8125 1.5625 C16.79154297 1.60568359 17.77058594 1.64886719 18.77929688 1.69335938 C21.18607027 1.7990226 23.59293983 1.90112327 26 2 C26 2.33 26 2.66 26 3 C13.625 3.495 13.625 3.495 1 4 C0.67 2.68 0.34 1.36 0 0 Z " fill="#D0D1E3" transform="translate(86,316)"/>
<path d="M0 0 C0.99 0.33 1.98 0.66 3 1 C3 3.97 3 6.94 3 10 C1.68 9.67 0.36 9.34 -1 9 C-1 5.88772805 -0.54372951 3.05847848 0 0 Z " fill="#465184" transform="translate(411,269)"/>
<path d="M0 0 C0 3 0 3 -1.6875 5.125 C-4.27091939 7.21966437 -5.80765198 7.3615304 -9 8 C-11.29289472 9.95809523 -11.29289472 9.95809523 -13 12 C-13.33 11.01 -13.66 10.02 -14 9 C-9.38 6.03 -4.76 3.06 0 0 Z " fill="#388394" transform="translate(383,199)"/>
<path d="M0 0 C-5.16923077 4.06153846 -5.16923077 4.06153846 -9.375 3.75 C-10.24125 3.5025 -11.1075 3.255 -12 3 C-12 2.34 -12 1.68 -12 1 C-3.96428571 -1.27678571 -3.96428571 -1.27678571 0 0 Z " fill="#4F527B" transform="translate(225,330)"/>
<path d="M0 0 C1.25 1.5625 1.25 1.5625 2 4 C0.93237266 6.57001015 -0.46544943 8.6530403 -2 11 C-3.41377341 8.36095629 -4.37240135 5.92879371 -5 3 C-3.35 2.01 -1.7 1.02 0 0 Z " fill="#4EBFDD" transform="translate(120,205)"/>
<path d="M0 0 C1 3 1 3 0.5625 5.125 C-1.36525288 7.43830346 -2.20787087 7.38858577 -5.125 7.75 C-6.40375 7.8325 -7.6825 7.915 -9 8 C-9 7.34 -9 6.68 -9 6 C-7.03125 4.4921875 -7.03125 4.4921875 -4.5 2.875 C-3.6646875 2.33617187 -2.829375 1.79734375 -1.96875 1.2421875 C-1.3190625 0.83226562 -0.669375 0.42234375 0 0 Z " fill="#3EA2B1" transform="translate(399,189)"/>
<path d="M0 0 C0.33 0 0.66 0 1 0 C1.05398987 2.27057377 1.09278742 4.54151288 1.125 6.8125 C1.14820313 8.07707031 1.17140625 9.34164062 1.1953125 10.64453125 C1 14 1 14 -1 17 C-1.66 17.33 -2.32 17.66 -3 18 C-2.19500136 11.96251023 -1.11517502 5.98729887 0 0 Z " fill="#787BA4" transform="translate(281,159)"/>
<path d="M0 0 C0.66 0.99 1.32 1.98 2 3 C0.35 5.64 -1.3 8.28 -3 11 C-3.66 10.01 -4.32 9.02 -5 8 C-4.125 5.3125 -4.125 5.3125 -3 3 C-2.34 3 -1.68 3 -1 3 C-0.67 2.01 -0.34 1.02 0 0 Z " fill="#3FD8D1" transform="translate(444,295)"/>
<path d="M0 0 C1.98 0 3.96 0 6 0 C5.01 0.495 5.01 0.495 4 1 C4 2.98 4 4.96 4 7 C2.35 6.67 0.7 6.34 -1 6 C-0.67 4.02 -0.34 2.04 0 0 Z " fill="#2F95BC" transform="translate(332,217)"/>
<path d="M0 0 C2.64 0 5.28 0 8 0 C8 1.32 8 2.64 8 4 C8.66 4 9.32 4 10 4 C9.67 4.66 9.34 5.32 9 6 C8.0925 5.505 7.185 5.01 6.25 4.5 C2.99126962 2.72062788 2.99126962 2.72062788 -1 3 C-0.67 2.01 -0.34 1.02 0 0 Z " fill="#433660" transform="translate(140,364)"/>
<path d="M0 0 C0.99 0.33 1.98 0.66 3 1 C3 3.66666667 3 6.33333333 3 9 C2.01 9.495 2.01 9.495 1 10 C0.34 9.67 -0.32 9.34 -1 9 C-0.67 6.03 -0.34 3.06 0 0 Z " fill="#47B8CC" transform="translate(69,217)"/>
<path d="M0 0 C0.33 0.66 0.66 1.32 1 2 C2.98 1.67 4.96 1.34 7 1 C6.21654285 2.17219543 5.42297164 3.33763668 4.625 4.5 C4.18414062 5.1496875 3.74328125 5.799375 3.2890625 6.46875 C2.86367187 6.9740625 2.43828125 7.479375 2 8 C1.34 8 0.68 8 0 8 C-0.38063221 5.6739143 -0.71269945 3.33944736 -1 1 C-0.67 0.67 -0.34 0.34 0 0 Z " fill="#439FC4" transform="translate(130,186)"/>
<path d="M0 0 C0 0.99 0 1.98 0 3 C-2.31 3.66 -4.62 4.32 -7 5 C-7.33 4.34 -7.66 3.68 -8 3 C-8.66 3 -9.32 3 -10 3 C-10 2.34 -10 1.68 -10 1 C-6.52674819 -0.1577506 -3.63932552 -0.06866652 0 0 Z " fill="#5D4382" transform="translate(261,360)"/>
<path d="M0 0 C0.99 0 1.98 0 3 0 C2.67 2.64 2.34 5.28 2 8 C1.01 7.67 0.02 7.34 -1 7 C-1 6.34 -1 5.68 -1 5 C-1.66 5 -2.32 5 -3 5 C-1.125 1.125 -1.125 1.125 0 0 Z " fill="#388BAC" transform="translate(358,214)"/>
<path d="M0 0 C0.33 0 0.66 0 1 0 C1.14285714 7.42857143 1.14285714 7.42857143 0 11 C-0.99 11 -1.98 11 -3 11 C-2.25 3.375 -2.25 3.375 0 0 Z " fill="#35689C" transform="translate(316,202)"/>
<path d="M0 0 C0.99 0.33 1.98 0.66 3 1 C2.1875 3.9375 2.1875 3.9375 1 7 C0.01 7.33 -0.98 7.66 -2 8 C-2.6875 5.6875 -2.6875 5.6875 -3 3 C-1.5625 1.1875 -1.5625 1.1875 0 0 Z " fill="#26A7C7" transform="translate(411,200)"/>
<path d="M0 0 C0.33 0.66 0.66 1.32 1 2 C4.465 1.505 4.465 1.505 8 1 C7.67 2.32 7.34 3.64 7 5 C4.69 5 2.38 5 0 5 C0 3.35 0 1.7 0 0 Z " fill="#26B1CE" transform="translate(389,195)"/>
<path d="M0 0 C-5.52760359 2.10575375 -10.06997733 3.37851209 -16 3 C-15.67 2.34 -15.34 1.68 -15 1 C-12.63671875 0.33203125 -12.63671875 0.33203125 -9.6875 -0.1875 C-8.72199219 -0.36667969 -7.75648438 -0.54585938 -6.76171875 -0.73046875 C-4.14592982 -0.98575791 -2.46648091 -0.82606605 0 0 Z " fill="#4D478D" transform="translate(165,359)"/>
<path d="M0 0 C0.66 1.32 1.32 2.64 2 4 C-2.875 8 -2.875 8 -4 8 C-4.25 5.6875 -4.25 5.6875 -4 3 C-2 1.1875 -2 1.1875 0 0 Z " fill="#4A4372" transform="translate(276,347)"/>
<path d="M0 0 C0.66 0.66 1.32 1.32 2 2 C0.42687504 5.93281241 -0.4739697 7.69057041 -4.1875 9.875 C-5.115625 10.24625 -6.04375 10.6175 -7 11 C-7 10.34 -7 9.68 -7 9 C-6.34 9 -5.68 9 -5 9 C-4.731875 8.2575 -4.46375 7.515 -4.1875 6.75 C-3.05770579 4.13363446 -1.79106798 2.19812889 0 0 Z " fill="#3F77A8" transform="translate(285,278)"/>
<path d="M0 0 C2.32617985 3.63465602 2.31404687 6.76036719 2 11 C1.34 11.66 0.68 12.32 0 13 C-1 12 -1 12 -1.1328125 9.53125 C-1.13023437 8.5309375 -1.12765625 7.530625 -1.125 6.5 C-1.12757813 5.4996875 -1.13015625 4.499375 -1.1328125 3.46875 C-1 1 -1 1 0 0 Z " fill="#5588B9" transform="translate(420,214)"/>
<path d="M0 0 C1.15518918 0.90484792 2.29885406 1.8244206 3.4375 2.75 C4.07558594 3.26046875 4.71367187 3.7709375 5.37109375 4.296875 C7.18810554 6.19667629 7.60423197 7.43586908 8 10 C7.34 10 6.68 10 6 10 C5.34 9.34 4.68 8.68 4 8 C3.34 7.67 2.68 7.34 2 7 C1.26924352 4.6859378 0.59861742 2.35171131 0 0 Z " fill="#4C4F78" transform="translate(287,153)"/>
<path d="M0 0 C1.3357457 3.77371512 0.72408671 6.85831347 0.0625 10.75 C-0.13214844 11.92046875 -0.32679688 13.0909375 -0.52734375 14.296875 C-0.68332031 15.18890625 -0.83929688 16.0809375 -1 17 C-1.33 17 -1.66 17 -2 17 C-2.05398987 14.72942623 -2.09278742 12.45848712 -2.125 10.1875 C-2.14820313 8.92292969 -2.17140625 7.65835938 -2.1953125 6.35546875 C-2 3 -2 3 0 0 Z " fill="#708CD3" transform="translate(239,127)"/>
<path d="M0 0 C-0.33 0.99 -0.66 1.98 -1 3 C-2.65 3.33 -4.3 3.66 -6 4 C-6.33 4.99 -6.66 5.98 -7 7 C-7.66 6.34 -8.32 5.68 -9 5 C-9 4.01 -9 3.02 -9 2 C-3.375 0 -3.375 0 0 0 Z " fill="#586BB4" transform="translate(165,121)"/>
<path d="M0 0 C1.65 0 3.3 0 5 0 C4.42415568 2.38564077 3.77772405 4.66682784 3 7 C1.68 6.34 0.36 5.68 -1 5 C-0.67 3.35 -0.34 1.7 0 0 Z " fill="#46518B" transform="translate(363,272)"/>
<path d="M0 0 C1.65 0.33 3.3 0.66 5 1 C1.87567603 3.52349243 -1.38060496 5.27256146 -5 7 C-4.67 5.35 -4.34 3.7 -4 2 C-2.68 2 -1.36 2 0 2 C0 1.34 0 0.68 0 0 Z " fill="#568FBE" transform="translate(158,168)"/>
<path d="M0 0 C1.09570312 0.00902344 2.19140625 0.01804687 3.3203125 0.02734375 C4.16335937 0.03894531 5.00640625 0.05054687 5.875 0.0625 C4.885 0.5575 4.885 0.5575 3.875 1.0625 C3.875 1.7225 3.875 2.3825 3.875 3.0625 C2.988125 2.876875 2.10125 2.69125 1.1875 2.5 C-1.97678811 2.08207516 -4.07339642 2.25472258 -7.125 3.0625 C-7.455 2.4025 -7.785 1.7425 -8.125 1.0625 C-5.36047967 -0.31976016 -3.0788637 -0.03275387 0 0 Z " fill="#5C76E0" transform="translate(188.125,118.9375)"/>
<path d="M0 0 C0.66 0.66 1.32 1.32 2 2 C1.828125 4.09375 1.828125 4.09375 1.25 6.5 C0.97929687 7.69109375 0.97929687 7.69109375 0.703125 8.90625 C0 11 0 11 -2 13 C-2.79953138 9.71303767 -3.09658936 8.28976808 -2 5 C-1.34 5 -0.68 5 0 5 C0 3.35 0 1.7 0 0 Z " fill="#35B9BA" transform="translate(447,284)"/>
<path d="M0 0 C1.80627247 1.57067171 2.90943569 2.79299586 3.875 5 C4 7 4 7 2.5625 8.75 C1.7890625 9.36875 1.7890625 9.36875 1 10 C-0.83691257 6.21812119 -1.15837626 4.05431692 0 0 Z " fill="#6A6E9B" transform="translate(281,260)"/>
<path d="M0 0 C0.78375 0.04125 1.5675 0.0825 2.375 0.125 C-0.64387244 3.60831435 -3.19409529 4.91657144 -7.625 6.125 C-7.955 5.465 -8.285 4.805 -8.625 4.125 C-7.965 3.465 -7.305 2.805 -6.625 2.125 C-5.965 2.125 -5.305 2.125 -4.625 2.125 C-2.625 0.125 -2.625 0.125 0 0 Z " fill="#D0D0D0" transform="translate(243.625,254.875)"/>
<path d="M0 0 C3.99455527 0.61454696 6.74466336 2.70646737 10 5 C6.3581919 6.21393603 5.38860954 5.5159569 2 4 C1.67 4 1.34 4 1 4 C0.34 3.34 -0.32 2.68 -1 2 C-0.67 1.34 -0.34 0.68 0 0 Z " fill="#D6D6D6" transform="translate(219,231)"/>
<path d="M0 0 C1.8125 0.125 1.8125 0.125 4 1 C5.8125 3.875 5.8125 3.875 7 7 C6.67 7.99 6.34 8.98 6 10 C5.34 9.34 4.68 8.68 4 8 C4 7.01 4 6.02 4 5 C3.01 5 2.02 5 1 5 C0.67 3.35 0.34 1.7 0 0 Z " fill="#535786" transform="translate(310,187)"/>
<path d="M0 0 C0.66 0.33 1.32 0.66 2 1 C1.67 2.65 1.34 4.3 1 6 C-0.98 6.66 -2.96 7.32 -5 8 C-5 6 -5 6 -3.625 4.5625 C-3.08875 4.046875 -2.5525 3.53125 -2 3 C-1.34 2.01 -0.68 1.02 0 0 Z " fill="#4D5187" transform="translate(292,332)"/>
<path d="M0 0 C-2 2 -2 2 -5.4765625 2.1953125 C-6.85950968 2.18201493 -8.24238654 2.15816232 -9.625 2.125 C-10.33140625 2.11597656 -11.0378125 2.10695313 -11.765625 2.09765625 C-13.51056098 2.07407603 -15.25532295 2.03820461 -17 2 C-17 1.67 -17 1.34 -17 1 C-14.91835982 0.63601378 -12.83459438 0.28416713 -10.75 -0.0625 C-9.00976562 -0.35833984 -9.00976562 -0.35833984 -7.234375 -0.66015625 C-4.37477376 -0.9606216 -2.66674071 -0.9439206 0 0 Z " fill="#7F83A7" transform="translate(137,316)"/>
<path d="M0 0 C2 2 2 2 2.25 5 C2 8 2 8 0 10 C-1.32 8.68 -2.64 7.36 -4 6 C-2.68 5.34 -1.36 4.68 0 4 C0 2.68 0 1.36 0 0 Z " fill="#542368" transform="translate(420,304)"/>
<path d="M0 0 C2.79872437 2.52788007 4.45773019 4.20411134 5 8 C-1.875 4.375 -1.875 4.375 -3 1 C-2.01 0.67 -1.02 0.34 0 0 Z " fill="#4D436F" transform="translate(394,292)"/>
<path d="M0 0 C1.22541995 3.67625984 0.63382842 5.40247587 -0.3125 9.125 C-0.57675781 10.20007813 -0.84101563 11.27515625 -1.11328125 12.3828125 C-2 15 -2 15 -4 16 C-3.71653722 14.08210287 -3.4228972 12.16570817 -3.125 10.25 C-2.88136719 8.64898437 -2.88136719 8.64898437 -2.6328125 7.015625 C-2.06776118 4.32291129 -1.36577086 2.36427561 0 0 Z " fill="#31A4C8" transform="translate(313,222)"/>
<path d="M0 0 C0.33 0.99 0.66 1.98 1 3 C-1.22825644 5.22825644 -2.65761628 5.69239369 -5.625 6.625 C-6.44226563 6.88539063 -7.25953125 7.14578125 -8.1015625 7.4140625 C-8.72804688 7.60742188 -9.35453125 7.80078125 -10 8 C-6.88983545 4.71211176 -3.98381075 2.16264012 0 0 Z " fill="#3B9DAB" transform="translate(415,179)"/>
<path d="M0 0 C1.65 0 3.3 0 5 0 C5.33 0.99 5.66 1.98 6 3 C8.01508358 3.73323796 8.01508358 3.73323796 10 4 C9.67 4.66 9.34 5.32 9 6 C6.69 5.01 4.38 4.02 2 3 C2 2.34 2 1.68 2 1 C1.34 0.67 0.68 0.34 0 0 Z " fill="#5B4074" transform="translate(148,367)"/>
<path d="M0 0 C1 3 1 3 -0.75 6.5625 C-2.34738472 9.33408171 -3.19678044 10.13118696 -6 12 C-5.36934243 8.78147169 -4.21979305 6.49198931 -2.4375 3.75 C-1.98246094 3.04359375 -1.52742188 2.3371875 -1.05859375 1.609375 C-0.53458984 0.81273437 -0.53458984 0.81273437 0 0 Z " fill="#3B7DB0" transform="translate(294,264)"/>
<path d="M0 0 C4.10958767 1.45044271 7.43258745 3.51110752 11 6 C8.39417629 6.93065133 7.35801776 7.14917407 4.75 6.0625 C3.88375 5.5365625 3.88375 5.5365625 3 5 C3 4.01 3 3.02 3 2 C2.01 2 1.02 2 0 2 C0 1.34 0 0.68 0 0 Z " fill="#D5D5D5" transform="translate(189,213)"/>
<path d="M0 0 C2.45103548 0.98041419 3.76758786 1.6513818 5.25 3.875 C6 6 6 6 6 10 C5.34 10 4.68 10 4 10 C3.67 8.02 3.34 6.04 3 4 C2.01 4 1.02 4 0 4 C-0.33 3.01 -0.66 2.02 -1 1 C-0.67 0.67 -0.34 0.34 0 0 Z " fill="#657CC4" transform="translate(441,188)"/>
<path d="M0 0 C1.27569029 2.10113695 2.03543649 3.45073436 1.875 5.9375 C0.70175162 8.70301404 -1.04968321 10.73511598 -3 13 C-2.68991116 11.39536551 -2.37683713 9.79130769 -2.0625 8.1875 C-1.88847656 7.29417969 -1.71445312 6.40085938 -1.53515625 5.48046875 C-1 3 -1 3 0 0 Z " fill="#8184AE" transform="translate(277,179)"/>
<path d="M0 0 C-0.33 1.65 -0.66 3.3 -1 5 C-1.99 5.33 -2.98 5.66 -4 6 C-4.99 5.34 -5.98 4.68 -7 4 C-2.25 0 -2.25 0 0 0 Z " fill="#699BA8" transform="translate(428,172)"/>
<path d="M0 0 C-0.99 0.33 -1.98 0.66 -3 1 C-3.69937532 2.31647119 -4.36729133 3.65022151 -5 5 C-5.99 5.495 -5.99 5.495 -7 6 C-7 4.02 -7 2.04 -7 0 C-3.98968256 -0.93423645 -3.13349732 -1.04449911 0 0 Z " fill="#6E7092" transform="translate(291,340)"/>
<path d="M0 0 C0.66 0.33 1.32 0.66 2 1 C1.09674384 2.32176485 0.17682097 3.63215066 -0.75 4.9375 C-1.26046875 5.66839844 -1.7709375 6.39929688 -2.296875 7.15234375 C-4.19177915 9.20805399 -5.27425729 9.62669176 -8 10 C-6.76044505 6.28133515 -4.81445146 4.67716114 -2 2 C-1.34 1.34 -0.68 0.68 0 0 Z " fill="#454F80" transform="translate(246,317)"/>
<path d="M0 0 C0.66 0 1.32 0 2 0 C1.67 1.32 1.34 2.64 1 4 C-1.3125 4.6875 -1.3125 4.6875 -4 5 C-5.8125 3.5625 -5.8125 3.5625 -7 2 C-4.69 2 -2.38 2 0 2 C0 1.34 0 0.68 0 0 Z " fill="#4EBFB8" transform="translate(438,304)"/>
<path d="M0 0 C0.66 0 1.32 0 2 0 C2.3125 2.3125 2.3125 2.3125 2 5 C-0.375 6.875 -0.375 6.875 -3 8 C-3.66 7.67 -4.32 7.34 -5 7 C-4.360625 6.21625 -3.72125 5.4325 -3.0625 4.625 C-1.01857687 2.20460719 -1.01857687 2.20460719 0 0 Z " fill="#416FA6" transform="translate(276,289)"/>
<path d="M0 0 C1.98 0.495 1.98 0.495 4 1 C3.67 1.99 3.34 2.98 3 4 C2.34 4 1.68 4 1 4 C1.33 5.65 1.66 7.3 2 9 C1.01 8.67 0.02 8.34 -1 8 C-0.67 5.36 -0.34 2.72 0 0 Z " fill="#5A6EA0" transform="translate(330,265)"/>
<path d="M0 0 C0.33 0.66 0.66 1.32 1 2 C1.66 2 2.32 2 3 2 C3 2.66 3 3.32 3 4 C3.66 4 4.32 4 5 4 C4.67 4.99 4.34 5.98 4 7 C2.35 6.67 0.7 6.34 -1 6 C-0.67 4.02 -0.34 2.04 0 0 Z " fill="#3D96BE" transform="translate(354,217)"/>
<path d="M0 0 C1.2077558 3.62326739 0.54311128 4.64146369 -1 8 C-2.32 6.68 -3.64 5.36 -5 4 C-3.35 2.68 -1.7 1.36 0 0 Z " fill="#EFF1FA" transform="translate(272,193)"/>
<path d="M0 0 C-0.61875 0.433125 -1.2375 0.86625 -1.875 1.3125 C-4.2197245 2.99740483 -4.2197245 2.99740483 -6 6 C-6.99 5.67 -7.98 5.34 -9 5 C-8.8125 3.125 -8.8125 3.125 -8 1 C-4.70594381 -0.82039948 -3.63772813 -1.21257604 0 0 Z " fill="#2ABBCE" transform="translate(413,185)"/>
<path d="M0 0 C1.98 0.99 1.98 0.99 4 2 C3.01 4.64 2.02 7.28 1 10 C0.67 10 0.34 10 0 10 C0 6.7 0 3.4 0 0 Z " fill="#48B1C4" transform="translate(417,184)"/>
<path d="M0 0 C0.66 0.99 1.32 1.98 2 3 C-0.97 5.475 -0.97 5.475 -4 8 C-4.66 7.67 -5.32 7.34 -6 7 C-4.02 4.69 -2.04 2.38 0 0 Z " fill="#5187B1" transform="translate(106,153)"/>
<path d="M0 0 C0.598125 0.20625 1.19625 0.4125 1.8125 0.625 C1.4825 1.615 1.1525 2.605 0.8125 3.625 C-0.1775 3.955 -1.1675 4.285 -2.1875 4.625 C-3.1775 3.635 -4.1675 2.645 -5.1875 1.625 C-2.1875 -0.375 -2.1875 -0.375 0 0 Z " fill="#464B75" transform="translate(231.1875,326.375)"/>
<path d="M0 0 C1.04005702 3.38018531 1.08004482 6.4780279 1 10 C-0.32 10 -1.64 10 -3 10 C-3 6.13304322 -1.58090029 3.4911548 0 0 Z " fill="#487DA7" transform="translate(318,288)"/>
<path d="M0 0 C-1.28524261 0.86380259 -2.57842419 1.71580369 -3.875 2.5625 C-4.59429687 3.03816406 -5.31359375 3.51382812 -6.0546875 4.00390625 C-6.69664062 4.33261719 -7.33859375 4.66132813 -8 5 C-8.66 4.67 -9.32 4.34 -10 4 C-9.67 3.34 -9.34 2.68 -9 2 C-8.34 2 -7.68 2 -7 2 C-7 1.34 -7 0.68 -7 0 C-3.86650268 -1.04449911 -3.01031744 -0.93423645 0 0 Z " fill="#B6B6B6" transform="translate(187,290)"/>
<path d="M0 0 C1.3303125 0.7115625 1.3303125 0.7115625 2.6875 1.4375 C5.57042756 2.79737149 7.87610623 3.54060386 11 4 C11 4.33 11 4.66 11 5 C9.741875 5.020625 8.48375 5.04125 7.1875 5.0625 C6.47980469 5.07410156 5.77210938 5.08570313 5.04296875 5.09765625 C3 5 3 5 0 4 C0 2.68 0 1.36 0 0 Z " fill="#46558C" transform="translate(331,269)"/>
<path d="M0 0 C1.31602523 0.61754259 2.62773556 1.24428742 3.9375 1.875 C4.66839844 2.22304687 5.39929688 2.57109375 6.15234375 2.9296875 C8 4 8 4 9 6 C3.50847458 5.38983051 3.50847458 5.38983051 1.125 3.5625 C0 2 0 2 0 0 Z " fill="#E1E1E1" transform="translate(233,238)"/>
<path d="M0 0 C4.29 0.33 8.58 0.66 13 1 C9.71299843 2.64350079 7.52069985 3.41321669 4 4 C4 3.34 4 2.68 4 2 C2.68 1.34 1.36 0.68 0 0 Z " fill="#694F84" transform="translate(50,372)"/>
<path d="M0 0 C0.66 0.66 1.32 1.32 2 2 C1.34 3.65 0.68 5.3 0 7 C-0.99 7 -1.98 7 -3 7 C-3.33 5.68 -3.66 4.36 -4 3 C-3.34 3 -2.68 3 -2 3 C-1.67 2.34 -1.34 1.68 -1 1 C-0.67 0.67 -0.34 0.34 0 0 Z " fill="#5D6194" transform="translate(112,345)"/>
<path d="M0 0 C-6.625 3.125 -6.625 3.125 -10 2 C-6.64272747 -1.86086341 -4.42408585 -2.94939057 0 0 Z " fill="#52588E" transform="translate(144,316)"/>
<path d="M0 0 C1.32 0.66 2.64 1.32 4 2 C1.03 3.65 -1.94 5.3 -5 7 C-5 6.01 -5 5.02 -5 4 C-4.01 4 -3.02 4 -2 4 C-1.34 2.68 -0.68 1.36 0 0 Z " fill="#D3D3D3" transform="translate(173,294)"/>
<path d="M0 0 C0.99 0.33 1.98 0.66 3 1 C3 1.99 3 2.98 3 4 C2.01 4.33 1.02 4.66 0 5 C-1.20882096 7.00016466 -1.20882096 7.00016466 -2 9 C-2.66 8.67 -3.32 8.34 -4 8 C-2.68 5.36 -1.36 2.72 0 0 Z " fill="#757998" transform="translate(275,281)"/>
<path d="M0 0 C0.33 0 0.66 0 1 0 C1.33 3.3 1.66 6.6 2 10 C0.68 9.34 -0.64 8.68 -2 8 C-1.34 5.36 -0.68 2.72 0 0 Z " fill="#498AB7" transform="translate(324,264)"/>
<path d="M0 0 C2.16874252 0.50603992 3.99967627 0.99983813 6 2 C5.6875 3.9375 5.6875 3.9375 5 6 C4.01 6.33 3.02 6.66 2 7 C2 5.02 2 3.04 2 1 C1.34 0.67 0.68 0.34 0 0 Z " fill="#B5B5B5" transform="translate(247,247)"/>
<path d="M0 0 C0.66 0.66 1.32 1.32 2 2 C1.01 3.485 1.01 3.485 0 5 C-0.45772063 7.73872955 -0.45772063 7.73872955 -0.625 10.6875 C-0.69976562 11.68136719 -0.77453125 12.67523438 -0.8515625 13.69921875 C-0.90054687 14.45847656 -0.94953125 15.21773437 -1 16 C-1.33 16 -1.66 16 -2 16 C-2.05402274 13.89611431 -2.09280256 11.79183286 -2.125 9.6875 C-2.14820313 8.51574219 -2.17140625 7.34398437 -2.1953125 6.13671875 C-2 3 -2 3 0 0 Z " fill="#46A5DC" transform="translate(422,224)"/>
<path d="M0 0 C1.98 0 3.96 0 6 0 C6.625 1.8125 6.625 1.8125 7 4 C6.01 5.485 6.01 5.485 5 7 C5 5.68 5 4.36 5 3 C4.01 3 3.02 3 2 3 C2 2.34 2 1.68 2 1 C1.34 0.67 0.68 0.34 0 0 Z " fill="#3195BF" transform="translate(339,217)"/>
<path d="M0 0 C0.66 0.99 1.32 1.98 2 3 C-0.375 4.5625 -0.375 4.5625 -3 6 C-3.66 5.67 -4.32 5.34 -5 5 C-4 2 -4 2 -1.9375 0.8125 C-1.298125 0.544375 -0.65875 0.27625 0 0 Z " fill="#2D9DAB" transform="translate(388,196)"/>
<path d="M0 0 C4.39158329 1.4638611 4.87947433 3.97831338 7 8 C6.01 8 5.02 8 4 8 C2.22293791 5.33440687 1.12451727 2.9719385 0 0 Z " fill="#8390CB" transform="translate(437,181)"/>
<path d="M0 0 C0.33 0.99 0.66 1.98 1 3 C0.34 3 -0.32 3 -1 3 C-1.33 4.32 -1.66 5.64 -2 7 C-2.66 7 -3.32 7 -4 7 C-4 5.02 -4 3.04 -4 1 C-2.68 0.67 -1.36 0.34 0 0 Z " fill="#5098D1" transform="translate(102,160)"/>
<path d="M0 0 C0.99 0.33 1.98 0.66 3 1 C4.16063604 5.25566547 3.76173392 8.6835078 3 13 C2.67 13 2.34 13 2 13 C1.93941406 12.39671875 1.87882812 11.7934375 1.81640625 11.171875 C1.69072266 9.97304687 1.69072266 9.97304687 1.5625 8.75 C1.48128906 7.96109375 1.40007812 7.1721875 1.31640625 6.359375 C1.02365007 4.17635361 0.57935581 2.1226818 0 0 Z " fill="#CECFDB" transform="translate(279,146)"/>
<path d="M0 0 C4.08718695 -0.24042276 7.17679443 0.57741188 11 2 C11 2.33 11 2.66 11 3 C9.54176788 3.0270043 8.08339325 3.04639787 6.625 3.0625 C5.81289063 3.07410156 5.00078125 3.08570313 4.1640625 3.09765625 C2 3 2 3 0 2 C0 1.34 0 0.68 0 0 Z " fill="#412655" transform="translate(58,378)"/>
<path d="M0 0 C3.465 1.485 3.465 1.485 7 3 C6.360625 3.12375 5.72125 3.2475 5.0625 3.375 C4.381875 3.58125 3.70125 3.7875 3 4 C2.67 4.66 2.34 5.32 2 6 C1.34 5.67 0.68 5.34 0 5 C0 3.35 0 1.7 0 0 Z " fill="#414470" transform="translate(156,322)"/>
<path d="M0 0 C0.99 0.33 1.98 0.66 3 1 C3.12375 1.804375 3.2475 2.60875 3.375 3.4375 C3.684375 4.7059375 3.684375 4.7059375 4 6 C4.66 6.33 5.32 6.66 6 7 C5.01 7 4.02 7 3 7 C0.8125 4 0.8125 4 -1 1 C-0.67 0.67 -0.34 0.34 0 0 Z " fill="#4D517B" transform="translate(92,323)"/>
<path d="M0 0 C0.66 0 1.32 0 2 0 C2 2.64 2 5.28 2 8 C0.68 7.67 -0.64 7.34 -2 7 C-1.42415568 4.61435923 -0.77772405 2.33317216 0 0 Z " fill="#4C4D7C" transform="translate(413,280)"/>
<path d="M0 0 C-4.95 2.475 -4.95 2.475 -10 5 C-9.67 3.68 -9.34 2.36 -9 1 C-5.3931275 -0.64661571 -3.8148779 -1.27162597 0 0 Z " fill="#BBBBBB" transform="translate(212,276)"/>
<path d="M0 0 C0.33 0 0.66 0 1 0 C1 2.31 1 4.62 1 7 C-1.31 7 -3.62 7 -6 7 C-6 6.34 -6 5.68 -6 5 C-4.35 4.67 -2.7 4.34 -1 4 C-0.67 4.66 -0.34 5.32 0 6 C0 4.02 0 2.04 0 0 Z " fill="#1FE2D5" transform="translate(111,262)"/>
<path d="M0 0 C0.66 0.33 1.32 0.66 2 1 C0.68 3.64 -0.64 6.28 -2 9 C-2.99 9 -3.98 9 -5 9 C-3.35 6.03 -1.7 3.06 0 0 Z " fill="#558EB4" transform="translate(86,178)"/>
<path d="M0 0 C1.32 0.33 2.64 0.66 4 1 C3.01 1.33 2.02 1.66 1 2 C1.33 3.65 1.66 5.3 2 7 C1.01 7 0.02 7 -1 7 C-1 6.34 -1 5.68 -1 5 C-1.66 4.67 -2.32 4.34 -3 4 C-2.01 3.67 -1.02 3.34 0 3 C0 2.01 0 1.02 0 0 Z " fill="#648ED4" transform="translate(126,137)"/>
<path d="M0 0 C2.97 0.99 5.94 1.98 9 3 C8.67 3.66 8.34 4.32 8 5 C5.23723823 4.47731534 2.6739124 3.89130413 0 3 C0 2.01 0 1.02 0 0 Z " fill="#BBBFC8" transform="translate(240,124)"/>
<path d="M0 0 C3.63 0.33 7.26 0.66 11 1 C9.68 1.33 8.36 1.66 7 2 C7 2.66 7 3.32 7 4 C4.61435923 3.42415568 2.33317216 2.77772405 0 2 C0 1.34 0 0.68 0 0 Z " fill="#5C4376" transform="translate(178,374)"/>
<path d="M0 0 C-0.99 0 -1.98 0 -3 0 C-3 0.99 -3 1.98 -3 3 C-4.65 3 -6.3 3 -8 3 C-8 2.01 -8 1.02 -8 0 C-4.94736336 -0.98120464 -3.05263664 -0.98120464 0 0 Z " fill="#4C2A70" transform="translate(63,375)"/>
<path d="M0 0 C0 3 0 3 -1.3125 4.6875 C-3 6 -3 6 -6 6 C-6 5.01 -6 4.02 -6 3 C-4.02 2.01 -2.04 1.02 0 0 Z " fill="#5D6181" transform="translate(243,319)"/>
<path d="M0 0 C0.66 0 1.32 0 2 0 C2.33 3.3 2.66 6.6 3 10 C2.34 10 1.68 10 1 10 C0.63883954 8.5225254 0.28624952 7.04295325 -0.0625 5.5625 C-0.25972656 4.73878906 -0.45695312 3.91507812 -0.66015625 3.06640625 C-0.82837891 2.04353516 -0.82837891 2.04353516 -1 1 C-0.67 0.67 -0.34 0.34 0 0 Z " fill="#70C8D1" transform="translate(421,279)"/>
<path d="M0 0 C2.97 0.495 2.97 0.495 6 1 C6 2.65 6 4.3 6 6 C4.02 5.01 2.04 4.02 0 3 C0 2.01 0 1.02 0 0 Z " fill="#66729B" transform="translate(351,268)"/>
<path d="M0 0 C1.98 0.66 3.96 1.32 6 2 C5.01 3.485 5.01 3.485 4 5 C2.35 4.67 0.7 4.34 -1 4 C-0.67 2.68 -0.34 1.36 0 0 Z " fill="#425685" transform="translate(346,265)"/>
<path d="M0 0 C3.45925163 1.2491742 6.14693203 2.67527795 9 5 C6.1875 5.3125 6.1875 5.3125 3 5 C1.125 2.5 1.125 2.5 0 0 Z " fill="#D6D6D6" transform="translate(180,208)"/>
<path d="M0 0 C1.32 0.33 2.64 0.66 4 1 C4.33 2.32 4.66 3.64 5 5 C4.01 5.66 3.02 6.32 2 7 C0 4 0 4 0 0 Z " fill="#5980E4" transform="translate(440,191)"/>
<path d="M0 0 C0.66 0.33 1.32 0.66 2 1 C2 1.66 2 2.32 2 3 C3.65 3 5.3 3 7 3 C7 3.66 7 4.32 7 5 C5.5199159 4.88637738 4.04089926 4.75877092 2.5625 4.625 C1.73878906 4.55539063 0.91507813 4.48578125 0.06640625 4.4140625 C-0.61550781 4.27742187 -1.29742187 4.14078125 -2 4 C-2.33 3.34 -2.66 2.68 -3 2 C-2.01 2 -1.02 2 0 2 C0 1.34 0 0.68 0 0 Z " fill="#5D9DDA" transform="translate(173,160)"/>
<path d="M0 0 C0.99 0 1.98 0 3 0 C5.1875 3 5.1875 3 7 6 C3.75728494 5.4409112 2.06942576 4.5867822 0 2 C0 1.34 0 0.68 0 0 Z " fill="#515375" transform="translate(98,332)"/>
<path d="M0 0 C0.99 0 1.98 0 3 0 C3 0.66 3 1.32 3 2 C3.66 2 4.32 2 5 2 C4.67 2.99 4.34 3.98 4 5 C3.01 5 2.02 5 1 5 C0.67 3.35 0.34 1.7 0 0 Z " fill="#1AE1D7" transform="translate(427,295)"/>
<path d="M0 0 C0 0.66 0 1.32 0 2 C-1.8125 2.6875 -1.8125 2.6875 -4 3 C-5.75 1.5625 -5.75 1.5625 -7 0 C-4.3333581 -1.33332095 -2.83319697 -0.67102033 0 0 Z " fill="#4D4573" transform="translate(391,290)"/>
<path d="M0 0 C2 3.75 2 3.75 2 6 C1.01 6 0.02 6 -1 6 C-1.33 7.32 -1.66 8.64 -2 10 C-2.33 8.02 -2.66 6.04 -3 4 C-2.34 3.67 -1.68 3.34 -1 3 C-0.67 2.01 -0.34 1.02 0 0 Z " fill="#579DBC" transform="translate(412,216)"/>
<path d="M0 0 C0.66 0.66 1.32 1.32 2 2 C1.01 3.32 0.02 4.64 -1 6 C-2.32 5.67 -3.64 5.34 -5 5 C-4.67 4.01 -4.34 3.02 -4 2 C-3.01 2.33 -2.02 2.66 -1 3 C-0.67 2.01 -0.34 1.02 0 0 Z " fill="#58B0CF" transform="translate(129,193)"/>
<path d="M0 0 C1.32 0 2.64 0 4 0 C4.66 1.32 5.32 2.64 6 4 C4.35 4 2.7 4 1 4 C0.67 2.68 0.34 1.36 0 0 Z " fill="#6378C1" transform="translate(433,181)"/>
<path d="M0 0 C2.97 0.495 2.97 0.495 6 1 C6 1.99 6 2.98 6 4 C5.01 4.33 4.02 4.66 3 5 C2.01 4.34 1.02 3.68 0 3 C0 2.01 0 1.02 0 0 Z " fill="#33BFD3" transform="translate(416,178)"/>
<path d="M0 0 C3.68754757 0.49831724 5.60490662 1.10067643 8 4 C5.69 3.67 3.38 3.34 1 3 C0.67 2.01 0.34 1.02 0 0 Z " fill="#BCBBBC" transform="translate(249,128)"/>
<path d="M0 0 C0.99 0.33 1.98 0.66 3 1 C2.67 1.99 2.34 2.98 2 4 C-0.0625 4.6875 -0.0625 4.6875 -2 5 C-2 3.68 -2 2.36 -2 1 C-1.34 0.67 -0.68 0.34 0 0 Z " fill="#506DB7" transform="translate(145,127)"/>
<path d="M0 0 C2 2 2 2 2.125 4.625 C2.08375 5.40875 2.0425 6.1925 2 7 C1.01 7.33 0.02 7.66 -1 8 C-0.67 5.36 -0.34 2.72 0 0 Z " fill="#3BB1C9" transform="translate(116,212)"/>
<path d="M0 0 C1.65 0 3.3 0 5 0 C2.78065836 3.32901247 1.65316671 3.75023244 -2 5 C-2 4.01 -2 3.02 -2 2 C-1.34 2 -0.68 2 0 2 C0 1.34 0 0.68 0 0 Z " fill="#5397BD" transform="translate(147,175)"/>
<path d="M0 0 C0.33 0.66 0.66 1.32 1 2 C0.01 2.495 0.01 2.495 -1 3 C-1 3.99 -1 4.98 -1 6 C-2.65 5.67 -4.3 5.34 -6 5 C-2.25 1.125 -2.25 1.125 0 0 Z " fill="#4C80B5" transform="translate(125,138)"/>
<path d="M0 0 C2.31 0.33 4.62 0.66 7 1 C6.67 1.99 6.34 2.98 6 4 C3.03 3.505 3.03 3.505 0 3 C0 2.01 0 1.02 0 0 Z " fill="#5979DD" transform="translate(226,123)"/>
</svg>
