<?xml version="1.0" encoding="UTF-8"?>
<svg version="1.1" xmlns="http://www.w3.org/2000/svg" width="501" height="133">
<path d="M0 0 C0.61875 0.37511719 1.2375 0.75023437 1.875 1.13671875 C3.5625 2.1875 3.5625 2.1875 6 4 C6 4.66 6 5.32 6 6 C6.66 6 7.32 6 8 6 C8 6.66 8 7.32 8 8 C8.66 8 9.32 8 10 8 C15.71055988 14.86392419 19.87677175 22.67139132 23 31 C24.5778125 30.9690625 24.5778125 30.9690625 26.1875 30.9375 C29.32704904 30.98896802 31.96883396 31.26517187 35 32 C35 31.34 35 30.68 35 30 C37.1328125 28.58984375 37.1328125 28.58984375 40.125 26.9375 C43.76660237 24.88936929 47.33003274 22.81851111 50.80859375 20.50390625 C51.74711182 19.88044312 51.74711182 19.88044312 52.70458984 19.24438477 C53.93033759 18.4234076 55.15088218 17.59460101 56.36572266 16.75756836 C57.86187104 15.76121 59.42757245 14.8710118 61 14 C61.99 14.33 62.98 14.66 64 15 C63.67 16.32 63.34 17.64 63 19 C63.66 18.34 64.32 17.68 65 17 C65.99 17 66.98 17 68 17 C72.87216968 25.17267172 73.24165675 31.5401274 73.29516602 40.99707031 C73.30663534 42.40505056 73.32700676 43.81298907 73.35668945 45.22070312 C73.70546945 61.79067559 73.70546945 61.79067559 69 69 C65.9375 70.5625 65.9375 70.5625 63 71 C62.01 71.33 61.02 71.66 60 72 C57.67753282 70.70443347 55.55714192 69.37686967 53.375 67.875 C52.11468204 67.03435443 50.85296252 66.19580629 49.58984375 65.359375 C48.97608887 64.95138672 48.36233398 64.54339844 47.72998047 64.12304688 C44.85280955 62.25528139 41.86102626 60.62294606 38.84375 58.99609375 C36.51645198 57.73876113 34.25499299 56.38209248 32 55 C31.67 55.33 31.34 55.66 31 56 C28.32941149 56.14115161 25.67567762 56.04247107 23 56 C22.76925781 56.68964844 22.53851563 57.37929687 22.30078125 58.08984375 C17.22781898 72.70719355 9.73711662 84.17351219 -4 92 C-17.24674559 98.14341824 -31.57400607 99.86552383 -45.625 95.375 C-46.38039062 95.09398438 -47.13578125 94.81296875 -47.9140625 94.5234375 C-51.80028263 93.54824368 -54.48694222 95.20709783 -57.875 97 C-66.384081 100.84100197 -76.01079278 100.64144823 -85.01171875 98.765625 C-87.27130908 97.89552735 -88.42832321 96.81615985 -90 95 C-87.24178602 93.49664914 -84.83601659 92.66893818 -81.75 92.125 C-75.63128307 90.84269464 -70.29933351 88.629037 -66 84 C-66.97839844 82.96166016 -66.97839844 82.96166016 -67.9765625 81.90234375 C-78.06416602 70.60958406 -83.42643509 58.3172615 -83.21484375 42.87109375 C-82.48710433 33.14584881 -79.96997539 24.3753289 -75 16 C-74.43539062 15.03707031 -74.43539062 15.03707031 -73.859375 14.0546875 C-72.8125 12.375 -72.8125 12.375 -71 10 C-70.34 10 -69.68 10 -69 10 C-68.34 8.68 -67.68 7.36 -67 6 C-66.34 6 -65.68 6 -65 6 C-65 5.34 -65 4.68 -65 4 C-45.59112697 -10.98099325 -20.86015232 -13.68947496 0 0 Z M-54.625 21.5625 C-55.45608695 22.68007085 -56.2425057 23.83129451 -57 25 C-57.81017578 26.24910156 -57.81017578 26.24910156 -58.63671875 27.5234375 C-63.26485404 35.57143033 -64.54905217 42.81834532 -63 52 C-60.39448319 60.5544537 -55.66775934 68.19882472 -48 73 C-39.09874537 77.68944146 -30.13429905 79.87591242 -20.1328125 77.24609375 C-10.36391069 73.46027314 -2.7402069 67.48041379 2 58 C4.94864402 50.55079407 5.46279411 41.30709558 2.8125 33.6875 C0.98824289 29.61332578 -1.19440464 25.48153087 -4 22 C-4.66 22 -5.32 22 -6 22 C-6.495 20.515 -6.495 20.515 -7 19 C-22.1807685 7.88550878 -40.97722604 8.23967304 -54.625 21.5625 Z M60 21 C61 24 61 24 61 24 Z M59 24 C59 25.65 59 27.3 59 29 C59.33 29 59.66 29 60 29 C60 27.35 60 25.7 60 24 C59.67 24 59.34 24 59 24 Z M58 29 C58 31.31 58 33.62 58 36 C58.33 36 58.66 36 59 36 C59 33.69 59 31.38 59 29 C58.67 29 58.34 29 58 29 Z M57 40 C57 42.31 57 44.62 57 47 C57.33 47 57.66 47 58 47 C58 44.69 58 42.38 58 40 C57.67 40 57.34 40 57 40 Z M58 52 C58 53.98 58 55.96 58 58 C58.33 58 58.66 58 59 58 C59 56.02 59 54.04 59 52 C58.67 52 58.34 52 58 52 Z M59 58 C60 62 60 62 60 62 Z " fill="#455B99" transform="translate(106,18)"/>
<path d="M0 0 C0.74886475 0.00523682 1.49772949 0.01047363 2.26928711 0.01586914 C3.07817383 0.0190918 3.88706055 0.02231445 4.72045898 0.02563477 C5.5705957 0.03401367 6.42073242 0.04239258 7.29663086 0.05102539 C8.15063477 0.05553711 9.00463867 0.06004883 9.88452148 0.06469727 C12.00108749 0.07652166 14.11761771 0.0944577 16.23413086 0.11352539 C20.14306749 8.90786595 23.1168547 17.8173091 25.79663086 27.05102539 C26.17294997 28.33181081 26.54990159 29.61241055 26.92749023 30.89282227 C27.66743226 33.40347775 28.40654769 35.91437702 29.14477539 38.42553711 C30.23541375 42.1178686 31.33395549 45.80738648 32.44897461 49.49243164 C32.76858154 50.55147705 33.08818848 51.61052246 33.41748047 52.70166016 C34.00963039 55.0366843 34.00963039 55.0366843 35.23413086 56.11352539 C36.59104561 52.91508347 37.65029067 49.71865931 38.59155273 46.37744141 C49.73849604 7.10479503 49.73849604 7.10479503 53.23413086 0.11352539 C56.21335679 0.08668552 59.19234381 0.06676502 62.17163086 0.05102539 C63.02176758 0.04264648 63.8719043 0.03426758 64.74780273 0.02563477 C65.55668945 0.02241211 66.36557617 0.01918945 67.19897461 0.01586914 C67.94783936 0.01063232 68.6967041 0.00539551 69.46826172 0 C71.23413086 0.11352539 71.23413086 0.11352539 72.23413086 1.11352539 C72.32849615 3.35282425 72.35155413 5.59514289 72.34765625 7.83642578 C72.34780228 8.53882889 72.3479483 9.24123199 72.34809875 9.96492004 C72.34739958 12.29703818 72.33960703 14.62907739 72.33178711 16.96118164 C72.32992294 18.57400977 72.32849903 20.18683846 72.32749939 21.79966736 C72.32367409 26.05267896 72.31384371 30.30565663 72.30279541 34.55865479 C72.29258155 38.89529969 72.28800182 43.23195006 72.28295898 47.56860352 C72.27222145 56.08359308 72.25514489 64.59855502 72.23413086 73.11352539 C70.08836449 73.14038477 67.94250441 73.15985627 65.79663086 73.17602539 C64.60166992 73.18762695 63.40670898 73.19922852 62.17553711 73.21118164 C59.23413086 73.11352539 59.23413086 73.11352539 58.23413086 72.11352539 C58.11191561 70.67168246 58.05640328 69.22409395 58.02880859 67.77734375 C58.00886337 66.85646469 57.98891815 65.93558563 57.96836853 64.98680115 C57.95165604 63.98576859 57.93494354 62.98473602 57.91772461 61.95336914 C57.89694351 60.93376602 57.87616241 59.9141629 57.85475159 58.86366272 C57.78914234 55.59285491 57.73031852 52.32196402 57.67163086 49.05102539 C57.62845644 46.83942811 57.58484252 44.62783936 57.54077148 42.41625977 C57.43344946 36.98210388 57.33170463 31.54786457 57.23413086 26.11352539 C56.76559692 27.52021484 56.76559692 27.52021484 56.28759766 28.95532227 C54.21848108 35.16588815 52.14770173 41.37585891 50.06616211 47.58227539 C49.56246094 49.08661133 49.56246094 49.08661133 49.04858398 50.62133789 C48.37002438 52.64775759 47.69030202 54.67378824 47.00952148 56.69946289 C45.61447315 60.87106372 44.22769594 65.02860052 43.05834961 69.26977539 C42.23413086 72.11352539 42.23413086 72.11352539 41.23413086 73.11352539 C38.88099531 73.18624281 36.52579417 73.19723407 34.17163086 73.17602539 C32.23610352 73.16249023 32.23610352 73.16249023 30.26147461 73.14868164 C29.26245117 73.13708008 28.26342773 73.12547852 27.23413086 73.11352539 C24.3596364 66.20949701 21.89605553 59.25167917 19.67163086 52.11352539 C19.38094727 51.19313477 19.09026367 50.27274414 18.79077148 49.32446289 C17.13467443 44.06348343 15.5269283 38.78989013 13.96484375 33.50024414 C13.10416458 30.6890181 12.16384912 27.90268018 11.23413086 25.11352539 C10.90413086 40.95352539 10.57413086 56.79352539 10.23413086 73.11352539 C5.94413086 73.11352539 1.65413086 73.11352539 -2.76586914 73.11352539 C-2.78899418 63.74316601 -2.80678505 54.37281638 -2.81768131 45.00243473 C-2.82290979 40.6518408 -2.83000679 36.30126632 -2.84130859 31.95068359 C-2.85213873 27.75562281 -2.85814624 23.5605808 -2.86074638 19.36550713 C-2.8626004 17.76145571 -2.86622058 16.15740537 -2.8715992 14.55336189 C-2.87881133 12.31436024 -2.87986001 10.0754371 -2.87939453 7.83642578 C-2.88161514 6.55957413 -2.88383575 5.28272247 -2.88612366 3.96717834 C-2.72633063 0.17527219 -2.72633063 0.17527219 0 0 Z " fill="#F3F3F3" transform="translate(201.765869140625,23.886474609375)"/>
<path d="M0 0 C-0.58397857 3.12912583 -1.19557101 6.25221764 -1.8125 9.375 C-1.97814453 10.26445313 -2.14378906 11.15390625 -2.31445312 12.0703125 C-2.48525391 12.92109375 -2.65605469 13.771875 -2.83203125 14.6484375 C-2.98389893 15.43395996 -3.1357666 16.21948242 -3.29223633 17.02880859 C-4 19 -4 19 -7 21 C-8.485 20.505 -8.485 20.505 -10 20 C-10 19.34 -10 18.68 -10 18 C-10.66 18 -11.32 18 -12 18 C-12.495 17.443125 -12.99 16.88625 -13.5 16.3125 C-20.21543947 10.10071849 -28.54371135 7.66141615 -37.53125 7.78125 C-44.61130793 8.40859691 -50.31651296 10.8794719 -56 15 C-56.66 15 -57.32 15 -58 15 C-58.33 15.99 -58.66 16.98 -59 18 C-59.44988281 18.44859375 -59.89976563 18.8971875 -60.36328125 19.359375 C-65.95538365 24.96482371 -68.44062821 32.63036567 -68.8125 40.375 C-68.48548364 48.7225229 -65.35528489 57.71353451 -59.26953125 63.703125 C-58 65 -58 65 -58 68 C-68.89 68.99 -68.89 68.99 -80 70 C-84.4254337 62.62427717 -88.51538196 54.72312473 -89 46 C-89.05027344 45.28972656 -89.10054687 44.57945313 -89.15234375 43.84765625 C-89.61155178 32.51440218 -86.76647736 21.71758222 -81 12 C-80.43539062 11.03707031 -80.43539062 11.03707031 -79.859375 10.0546875 C-78.8125 8.375 -78.8125 8.375 -77 6 C-76.34 6 -75.68 6 -75 6 C-74.34 4.68 -73.68 3.36 -73 2 C-72.34 2 -71.68 2 -71 2 C-71 1.34 -71 0.68 -71 0 C-47.89394923 -17.83470839 -23.25356781 -15.56834611 0 0 Z " fill="#5489E4" transform="translate(112,22)"/>
<path d="M0 0 C1.43653931 -0.00472824 1.43653931 -0.00472824 2.90209961 -0.009552 C3.94374268 -0.00752777 4.98538574 -0.00550354 6.05859375 -0.00341797 C7.12021729 -0.00437469 8.18184082 -0.00533142 9.27563477 -0.00631714 C11.52522847 -0.00699911 13.77482412 -0.00514366 16.02441406 -0.00097656 C19.48116446 0.00437143 22.93778492 -0.00092101 26.39453125 -0.00732422 C28.57421904 -0.00666344 30.75390675 -0.00538228 32.93359375 -0.00341797 C34.49605835 -0.00645432 34.49605835 -0.00645432 36.09008789 -0.009552 C37.04778076 -0.00639984 38.00547363 -0.00324768 38.9921875 0 C39.83966553 0.00079559 40.68714355 0.00159119 41.56030273 0.00241089 C43.49609375 0.12939453 43.49609375 0.12939453 44.49609375 1.12939453 C44.59433312 2.79368505 44.62583006 4.46221384 44.62109375 6.12939453 C44.62496094 7.49064453 44.62496094 7.49064453 44.62890625 8.87939453 C44.49609375 11.12939453 44.49609375 11.12939453 43.49609375 12.12939453 C40.90250053 12.21790982 38.33569684 12.24465398 35.7421875 12.22705078 C34.96674088 12.22563583 34.19129425 12.22422089 33.39234924 12.22276306 C30.90605881 12.21714798 28.41985715 12.204593 25.93359375 12.19189453 C24.25195442 12.18688147 22.57031369 12.18231823 20.88867188 12.17822266 C16.75775046 12.16802285 12.62702193 12.14845058 8.49609375 12.12939453 C8.49609375 18.39939453 8.49609375 24.66939453 8.49609375 31.12939453 C19.38609375 31.12939453 30.27609375 31.12939453 41.49609375 31.12939453 C43.12260897 34.38242497 42.61062531 37.52165055 42.49609375 41.12939453 C41.49609375 42.12939453 41.49609375 42.12939453 38.35327148 42.24291992 C36.96206678 42.24276086 35.57085614 42.2370696 34.1796875 42.22705078 C33.44863297 42.22563583 32.71757843 42.22422089 31.96437073 42.22276306 C29.62073743 42.21714861 27.27719836 42.20459375 24.93359375 42.19189453 C23.34830867 42.18688139 21.76302209 42.18231816 20.17773438 42.17822266 C16.28378832 42.16802374 12.39004698 42.1484514 8.49609375 42.12939453 C8.49609375 48.72939453 8.49609375 55.32939453 8.49609375 62.12939453 C20.70609375 62.12939453 32.91609375 62.12939453 45.49609375 62.12939453 C45.49609375 65.75939453 45.49609375 69.38939453 45.49609375 73.12939453 C38.39363867 73.15403609 31.29120824 73.17222653 24.1887207 73.18432617 C21.77042203 73.18936802 19.35212642 73.19620131 16.93383789 73.20483398 C13.46630092 73.2169061 9.99880409 73.22262416 6.53125 73.22705078 C5.44272232 73.23221207 4.35419464 73.23737335 3.23268127 73.24269104 C1.73123817 73.24280434 1.73123817 73.24280434 0.19946289 73.24291992 C-1.12957314 73.24625084 -1.12957314 73.24625084 -2.48545837 73.24964905 C-4.50390625 73.12939453 -4.50390625 73.12939453 -5.50390625 72.12939453 C-5.60350777 69.92614479 -5.63190382 67.71965963 -5.63330078 65.51416016 C-5.6350531 64.82311691 -5.63680542 64.13207367 -5.63861084 63.42008972 C-5.64302879 61.12524946 -5.64009158 58.83048564 -5.63671875 56.53564453 C-5.63739181 54.94763168 -5.63836184 53.35961894 -5.63961792 51.77160645 C-5.64109482 48.43919903 -5.63894061 45.10681837 -5.63427734 41.77441406 C-5.62858005 37.49340943 -5.6318591 33.21246748 -5.63784981 28.93146515 C-5.64145565 25.65105717 -5.64031673 22.37066416 -5.63772202 19.09025574 C-5.63705281 17.51132703 -5.63788095 15.93239699 -5.64020157 14.35346985 C-5.64272848 12.15048601 -5.638887 9.94760505 -5.63330078 7.74462891 C-5.63250519 6.48855835 -5.63170959 5.23248779 -5.63088989 3.93835449 C-5.42755383 -0.55957024 -4.0702541 0.00382106 0 0 Z " fill="#F4F4F4" transform="translate(381.50390625,23.87060546875)"/>
<path d="M0 0 C3.97464257 4.06707611 6.88410832 8.37499501 8 14 C7.67 15.32 7.34 16.64 7 18 C2.71 18 -1.58 18 -6 18 C-7.171875 15.4609375 -8.34375 12.921875 -9.515625 10.3828125 C-11.17024182 7.72671708 -12.06231156 6.96834915 -15 6 C-17.22384795 5.68662792 -17.22384795 5.68662792 -19.5 5.75 C-20.2528125 5.74484375 -21.005625 5.7396875 -21.78125 5.734375 C-24.30403094 6.03639807 -25.89051136 6.58283252 -28 8 C-28.93525134 11.54059435 -29.17230834 14.15760368 -28.4375 17.75 C-25.12729613 22.93118866 -17.94509809 24.02191881 -12.3125 25.5625 C-4.39855596 27.73429603 -4.39855596 27.73429603 -1 30 C-1 30.66 -1 31.32 -1 32 C-0.4225 32.04125 0.155 32.0825 0.75 32.125 C4.1915291 33.46337243 5.21614699 35.86287919 7 39 C8.963194 45.46163855 8.70971503 51.16153181 5.875 57.3125 C3.54094904 61.53602078 1.41302922 63.83675038 -3 66 C-4.11375 66.5775 -5.2275 67.155 -6.375 67.75 C-14.35900074 70.52904641 -24.8480601 70.22358065 -32.6875 67.25 C-40.44883626 63.48614128 -43.81409354 58.95251266 -47 51 C-47.33 49.35 -47.66 47.7 -48 46 C-43.05 46 -38.1 46 -33 46 C-32.4225 47.258125 -31.845 48.51625 -31.25 49.8125 C-29.01913043 54.25744831 -29.01913043 54.25744831 -25 57 C-19.72643697 58.18982875 -14.88160936 58.67326227 -10 56 C-7.81707062 53.38437013 -7.81707062 53.38437013 -7 50 C-7.65928425 46.70357877 -8.50121184 43.99757631 -10 41 C-14.70528396 38.23941772 -19.70125259 36.77159195 -25 35.625 C-32.04485569 33.95364393 -38.30636849 30.95518787 -42.5625 24.875 C-44.95498337 19.91362895 -44.75134181 14.34608593 -44 9 C-42.93480683 6.26355548 -41.74335138 4.39710815 -40 2 C-39.34 2 -38.68 2 -38 2 C-37.67 1.01 -37.34 0.02 -37 -1 C-26.18655752 -8.4842442 -10.23746535 -8.18997228 0 0 Z " fill="#F2F2F2" transform="translate(480,29)"/>
<path d="M0 0 C0.99 0.33 1.98 0.66 3 1 C2.67 2.32 2.34 3.64 2 5 C2.66 4.34 3.32 3.68 4 3 C4.99 3 5.98 3 7 3 C11.87216968 11.17267172 12.24165675 17.5401274 12.29516602 26.99707031 C12.30663534 28.40505056 12.32700676 29.81298907 12.35668945 31.22070312 C12.70546945 47.79067559 12.70546945 47.79067559 8 55 C4.9375 56.5625 4.9375 56.5625 2 57 C1.01 57.33 0.02 57.66 -1 58 C-3.32246718 56.70443347 -5.44285808 55.37686967 -7.625 53.875 C-8.88531796 53.03435443 -10.14703748 52.19580629 -11.41015625 51.359375 C-12.02391113 50.95138672 -12.63766602 50.54339844 -13.27001953 50.12304688 C-16.14719045 48.25528139 -19.13897374 46.62294606 -22.15625 44.99609375 C-24.48354802 43.73876113 -26.74500701 42.38209248 -29 41 C-29.33 41.33 -29.66 41.66 -30 42 C-32.67058851 42.14115161 -35.32432238 42.04247107 -38 42 C-38.33 42.99 -38.66 43.98 -39 45 C-40.485 45.495 -40.485 45.495 -42 46 C-41.83242187 44.69804688 -41.66484375 43.39609375 -41.4921875 42.0546875 C-41.28576064 40.32820828 -41.08007025 38.60164089 -40.875 36.875 C-40.76285156 36.0190625 -40.65070313 35.163125 -40.53515625 34.28125 C-39.96016206 29.29796704 -39.91323773 25.71453698 -42 21 C-42.18175781 21.59167969 -42.36351563 22.18335937 -42.55078125 22.79296875 C-43.95667057 27.212508 -45.37527181 31.12540125 -48 35 C-49 32 -49 32 -48.29296875 30.01953125 C-47.92816406 29.29121094 -47.56335938 28.56289063 -47.1875 27.8125 C-45.18147652 23.57833279 -43.9974286 19.57154775 -43 15 C-39.125 15.875 -39.125 15.875 -38 17 C-36.9275 17 -35.855 17 -34.75 17 C-31.60858182 17 -29.03016971 17.2654134 -26 18 C-26 17.34 -26 16.68 -26 16 C-23.8671875 14.58984375 -23.8671875 14.58984375 -20.875 12.9375 C-17.23339763 10.88936929 -13.66996726 8.81851111 -10.19140625 6.50390625 C-9.56572754 6.08826416 -8.94004883 5.67262207 -8.29541016 5.24438477 C-7.06966241 4.4234076 -5.84911782 3.59460101 -4.63427734 2.75756836 C-3.13812896 1.76121 -1.57242755 0.8710118 0 0 Z M-1 7 C0 10 0 10 0 10 Z M-2 10 C-2 11.65 -2 13.3 -2 15 C-1.67 15 -1.34 15 -1 15 C-1 13.35 -1 11.7 -1 10 C-1.33 10 -1.66 10 -2 10 Z M-3 15 C-3 17.31 -3 19.62 -3 22 C-2.67 22 -2.34 22 -2 22 C-2 19.69 -2 17.38 -2 15 C-2.33 15 -2.66 15 -3 15 Z M-4 26 C-4 28.31 -4 30.62 -4 33 C-3.67 33 -3.34 33 -3 33 C-3 30.69 -3 28.38 -3 26 C-3.33 26 -3.66 26 -4 26 Z M-3 38 C-3 39.98 -3 41.96 -3 44 C-2.67 44 -2.34 44 -2 44 C-2 42.02 -2 40.04 -2 38 C-2.33 38 -2.66 38 -3 38 Z M-2 44 C-1 48 -1 48 -1 48 Z " fill="#3B74A7" transform="translate(167,32)"/>
<path d="M0 0 C4.29 0 8.58 0 13 0 C13 20.13 13 40.26 13 61 C31.315 61.495 31.315 61.495 50 62 C50 65.63 50 69.26 50 73 C33.5 73 17 73 0 73 C0 48.91 0 24.82 0 0 Z " fill="#EEEEEE" transform="translate(317,24)"/>
<path d="M0 0 C0.763125 0.33 1.52625 0.66 2.3125 1 C5.38456102 2.14309247 6.89991179 1.88573949 10 1 C10 1.66 10 2.32 10 3 C10.66 3 11.32 3 12 3 C12.495 4.485 12.495 4.485 13 6 C12.34 6 11.68 6 11 6 C10.67 6.99 10.34 7.98 10 9 C9.55011719 9.44859375 9.10023437 9.8971875 8.63671875 10.359375 C3.04461635 15.96482371 0.55937179 23.63036567 0.1875 31.375 C0.51451636 39.7225229 3.64471511 48.71353451 9.73046875 54.703125 C11 56 11 56 11 59 C3.74 59.66 -3.52 60.32 -11 61 C-15.4254337 53.62427717 -19.51538196 45.72312473 -20 37 C-20.05027344 36.28972656 -20.10054687 35.57945313 -20.15234375 34.84765625 C-20.58715247 24.11657714 -17.9481423 13.49440502 -13 4 C-12.67 4.66 -12.34 5.32 -12 6 C-11.34 6 -10.68 6 -10 6 C-9.34 6.66 -8.68 7.32 -8 8 C-7.01 7.67 -6.02 7.34 -5 7 C-4.26676204 4.98491642 -4.26676204 4.98491642 -4 3 C-3.34 3 -2.68 3 -2 3 C-2 2.34 -2 1.68 -2 1 C-1.34 0.67 -0.68 0.34 0 0 Z " fill="#32BCDC" transform="translate(43,31)"/>
<path d="M0 0 C1.4540625 0.8971875 1.4540625 0.8971875 2.9375 1.8125 C11.3725519 6.54353709 19.30747678 8.10168946 29 7 C32.50987342 5.96795775 35.70939053 4.58177946 39 3 C39.99 2.67 40.98 2.34 42 2 C42 2.66 42 3.32 42 4 C41.34 4 40.68 4 40 4 C40 4.66 40 5.32 40 6 C39.43410156 6.26554687 38.86820312 6.53109375 38.28515625 6.8046875 C37.18494141 7.33449219 37.18494141 7.33449219 36.0625 7.875 C34.96615234 8.39707031 34.96615234 8.39707031 33.84765625 8.9296875 C31.83667541 9.8684977 31.83667541 9.8684977 31 12 C30.01 12 29.02 12 28 12 C27.67 12.66 27.34 13.32 27 14 C26.34 13.67 25.68 13.34 25 13 C24.67 13.66 24.34 14.32 24 15 C22.36408573 15.91168139 20.69109879 16.7577868 19 17.5625 C15.77672865 18.95256517 15.77672865 18.95256517 13 21 C11.33382885 21.04063832 9.66611905 21.042721 8 21 C8 21.99 8 22.98 8 24 C8.61875 23.814375 9.2375 23.62875 9.875 23.4375 C12 23 12 23 14 24 C17.05659612 24.23870255 20.12260742 24.1851973 23.1875 24.1875 C24.02603516 24.19974609 24.86457031 24.21199219 25.72851562 24.22460938 C30.88330807 24.23668149 35.1190259 23.67102361 40 22 C40.33 20.68 40.66 19.36 41 18 C42.03125 18.0825 43.0625 18.165 44.125 18.25 C48.61857986 17.96009162 50.39038515 16.54313773 54 14 C54.99 14.33 55.98 14.66 57 15 C46.11867184 24.56482179 33.38410595 28.56297304 18.9375 27.8125 C13.6958704 27.34644951 9.01428366 26.35684955 4.0859375 24.5234375 C0.19971737 23.54824368 -2.48694222 25.20709783 -5.875 27 C-14.384081 30.84100197 -24.01079278 30.64144823 -33.01171875 28.765625 C-35.27130908 27.89552735 -36.42832321 26.81615985 -38 25 C-35.24178602 23.49664914 -32.83601659 22.66893818 -29.75 22.125 C-23.45959578 20.80671397 -18.55591226 18.55591226 -14 14 C-17.465 9.545 -17.465 9.545 -21 5 C-20.67 4.34 -20.34 3.68 -20 3 C-10.1 2.505 -10.1 2.505 0 2 C0 1.34 0 0.68 0 0 Z " fill="#515795" transform="translate(54,88)"/>
<path d="M0 0 C1.093125 0.00257812 2.18625 0.00515625 3.3125 0.0078125 C4.405625 0.00523438 5.49875 0.00265625 6.625 0 C9.3125 0.1328125 9.3125 0.1328125 10.3125 1.1328125 C10.41210152 3.33606224 10.44049757 5.5425474 10.44189453 7.74804688 C10.44364685 8.43909012 10.44539917 9.13013336 10.44720459 9.84211731 C10.45162254 12.13695757 10.44868533 14.43172139 10.4453125 16.7265625 C10.44598556 18.31457535 10.44695559 19.90258809 10.44821167 21.49060059 C10.44968857 24.823008 10.44753436 28.15538866 10.44287109 31.48779297 C10.4371738 35.7687976 10.44045285 40.04973955 10.44644356 44.33074188 C10.4500494 47.61114986 10.44891048 50.89154287 10.44631577 54.17195129 C10.44564656 55.75088 10.4464747 57.32981004 10.44879532 58.90873718 C10.45132223 61.11172103 10.44748075 63.31460199 10.44189453 65.51757812 C10.44109894 66.77364868 10.44030334 68.02971924 10.43948364 69.32385254 C10.3125 72.1328125 10.3125 72.1328125 9.3125 73.1328125 C7.31450428 73.23155066 5.31292842 73.26253049 3.3125 73.2578125 C2.219375 73.26039062 1.12625 73.26296875 0 73.265625 C-2.6875 73.1328125 -2.6875 73.1328125 -3.6875 72.1328125 C-3.78710152 69.92956276 -3.81549757 67.7230776 -3.81689453 65.51757812 C-3.81864685 64.82653488 -3.82039917 64.13549164 -3.82220459 63.42350769 C-3.82662254 61.12866743 -3.82368533 58.83390361 -3.8203125 56.5390625 C-3.82098556 54.95104965 -3.82195559 53.36303691 -3.82321167 51.77502441 C-3.82468857 48.442617 -3.82253436 45.11023634 -3.81787109 41.77783203 C-3.8121738 37.4968274 -3.81545285 33.21588545 -3.82144356 28.93488312 C-3.8250494 25.65447514 -3.82391048 22.37408213 -3.82131577 19.09367371 C-3.82064656 17.514745 -3.8214747 15.93581496 -3.82379532 14.35688782 C-3.82632223 12.15390397 -3.82248075 9.95102301 -3.81689453 7.74804688 C-3.81609894 6.49197632 -3.81530334 5.23590576 -3.81448364 3.94177246 C-3.64443119 0.1801027 -3.64443119 0.1801027 0 0 Z " fill="#EBEBEB" transform="translate(291.6875,23.8671875)"/>
<path d="M0 0 C5.07634826 1.7989503 9.63713611 4.49026455 14.3125 7.125 C15.14845703 7.59292969 15.98441406 8.06085937 16.84570312 8.54296875 C18.89866233 9.6926259 20.95002202 10.84503802 23 12 C23 12.66 23 13.32 23 14 C24.32 14 25.64 14 27 14 C27 14.66 27 15.32 27 16 C27.94875 16.2475 28.8975 16.495 29.875 16.75 C33 18 33 18 34.1953125 20.078125 C34.59363281 21.02945313 34.59363281 21.02945313 35 22 C27.93638559 26.42458518 20.86858386 30.69683585 13.5078125 34.61328125 C10.47691903 36.28924259 7.60771421 38.15712069 4.75390625 40.1171875 C3 41 3 41 -1 41 C-1.02464705 35.32169922 -1.04283462 29.64342931 -1.05493164 23.96508789 C-1.05997256 22.03181415 -1.06680519 20.09854424 -1.07543945 18.1652832 C-1.08751565 15.39273128 -1.09323057 12.62022959 -1.09765625 9.84765625 C-1.10281754 8.97786636 -1.10797882 8.10807648 -1.11329651 7.21192932 C-1.11349185 5.14094186 -1.06208168 3.07005676 -1 1 C-0.67 0.67 -0.34 0.34 0 0 Z " fill="#F6F6F6" transform="translate(64,43)"/>
<path d="M0 0 C4.87216968 8.17267172 5.24165675 14.5401274 5.29516602 23.99707031 C5.30663534 25.40505056 5.32700676 26.81298907 5.35668945 28.22070312 C5.70748439 44.88640216 5.70748439 44.88640216 1 52 C-2.0625 53.3125 -2.0625 53.3125 -5 53 C-7.70712584 51.20620059 -8.01226082 49.94518693 -8.73046875 46.734375 C-8.89957488 45.40828007 -9.05087645 44.07983406 -9.1875 42.75 C-9.30484497 41.68471069 -9.30484497 41.68471069 -9.42456055 40.59790039 C-12.44486116 10.8724772 -12.44486116 10.8724772 -5.078125 1.57421875 C-3 0 -3 0 0 0 Z " fill="#3BAFDE" transform="translate(174,35)"/>
<path d="M0 0 C0.99 0.33 1.98 0.66 3 1 C3 1.66 3 2.32 3 3 C3.66 3 4.32 3 5 3 C9.60515333 8.53525819 16 16.56392872 16 24 C15.01 24 14.02 24 13 24 C12.87625 24.556875 12.7525 25.11375 12.625 25.6875 C11.94023145 28.22114364 11.00866237 30.57921032 10 33 C9.34 33 8.68 33 8 33 C7.855625 33.763125 7.71125 34.52625 7.5625 35.3125 C7 38 7 38 6 41 C4.515 41.495 4.515 41.495 3 42 C2.2863409 44.31939207 1.6252708 46.65523449 1 49 C-0.625 51.9375 -0.625 51.9375 -2 54 C-2.66 53.67 -3.32 53.34 -4 53 C-3.67 52.113125 -3.34 51.22625 -3 50.3125 C0.26646013 38.75064112 -2.62292249 29.2420524 -8 19 C-6.68 18.67 -5.36 18.34 -4 18 C-3.69255859 16.30230469 -3.69255859 16.30230469 -3.37890625 14.5703125 C-3.10693028 13.08851239 -2.83478613 11.60674315 -2.5625 10.125 C-2.42779297 9.37863281 -2.29308594 8.63226563 -2.15429688 7.86328125 C-1.11328125 2.2265625 -1.11328125 2.2265625 0 0 Z " fill="#515995" transform="translate(111,23)"/>
<path d="M0 0 C0.99 0.33 1.98 0.66 3 1 C-7.88132816 10.56482179 -20.61589405 14.56297304 -35.0625 13.8125 C-40.3041296 13.34644951 -44.98571634 12.35684955 -49.9140625 10.5234375 C-53.80028263 9.54824368 -56.48694222 11.20709783 -59.875 13 C-68.384081 16.84100197 -78.01079278 16.64144823 -87.01171875 14.765625 C-89.27130908 13.89552735 -90.42832321 12.81615985 -92 11 C-89.21024957 9.47889174 -86.74341246 8.6369444 -83.625 8.0625 C-79.70220084 7.2611374 -76.56910143 5.82807634 -73 4 C-72.34 4.33 -71.68 4.66 -71 5 C-71.33 5.66 -71.66 6.32 -72 7 C-63.42 6.67 -54.84 6.34 -46 6 C-46 5.34 -46 4.68 -46 4 C-40.555 3.01 -40.555 3.01 -35 2 C-36.42131103 4.84262206 -38.18671989 5.59335994 -41 7 C-43.8125 7.1875 -43.8125 7.1875 -46 7 C-46 7.99 -46 8.98 -46 10 C-45.38125 9.814375 -44.7625 9.62875 -44.125 9.4375 C-42 9 -42 9 -40 10 C-36.94340388 10.23870255 -33.87739258 10.1851973 -30.8125 10.1875 C-29.97396484 10.19974609 -29.13542969 10.21199219 -28.27148438 10.22460938 C-23.11669193 10.23668149 -18.8809741 9.67102361 -14 8 C-13.67 6.68 -13.34 5.36 -13 4 C-11.96875 4.0825 -10.9375 4.165 -9.875 4.25 C-5.38142014 3.96009162 -3.60961485 2.54313773 0 0 Z " fill="#5D397D" transform="translate(108,102)"/>
<path d="M0 0 C0.99 0.33 1.98 0.66 3 1 C2.73445313 1.556875 2.46890625 2.11375 2.1953125 2.6875 C0.38591846 6.59684771 -1.16706088 10.27536417 -2.0625 14.5 C-2.371875 15.655 -2.68125 16.81 -3 18 C-3.99 18.33 -4.98 18.66 -6 19 C-6.33 18.505 -6.66 18.01 -7 17.5 C-10.17572747 15.11820439 -13.10246066 15.80831774 -17 16 C-17.33 18.31 -17.66 20.62 -18 23 C-18.99 23.33 -19.98 23.66 -21 24 C-21 23.01 -21 22.02 -21 21 C-24.67330433 21.70640468 -27.69878197 23.27762538 -31 25 C-31.66 25.33 -32.32 25.66 -33 26 C-33 25.34 -33 24.68 -33 24 C-34.32 24.33 -35.64 24.66 -37 25 C-37.04487549 25.56509277 -37.08975098 26.13018555 -37.13598633 26.71240234 C-37.34707159 29.26803235 -37.57950955 31.8212779 -37.8125 34.375 C-37.88275391 35.26445313 -37.95300781 36.15390625 -38.02539062 37.0703125 C-38.10595703 37.92109375 -38.18652344 38.771875 -38.26953125 39.6484375 C-38.33760986 40.43395996 -38.40568848 41.21948242 -38.47583008 42.02880859 C-39 44 -39 44 -42 46 C-41.83242187 44.69804688 -41.66484375 43.39609375 -41.4921875 42.0546875 C-41.28576064 40.32820828 -41.08007025 38.60164089 -40.875 36.875 C-40.76285156 36.0190625 -40.65070313 35.163125 -40.53515625 34.28125 C-39.96016206 29.29796704 -39.91323773 25.71453698 -42 21 C-42.18175781 21.59167969 -42.36351563 22.18335937 -42.55078125 22.79296875 C-43.95667057 27.212508 -45.37527181 31.12540125 -48 35 C-49 32 -49 32 -48.29296875 30.01953125 C-47.92816406 29.29121094 -47.56335938 28.56289063 -47.1875 27.8125 C-45.18147652 23.57833279 -43.9974286 19.57154775 -43 15 C-39.125 15.875 -39.125 15.875 -38 17 C-36.9275 17 -35.855 17 -34.75 17 C-31.60858182 17 -29.03016971 17.2654134 -26 18 C-26 17.34 -26 16.68 -26 16 C-23.8671875 14.58984375 -23.8671875 14.58984375 -20.875 12.9375 C-17.23339763 10.88936929 -13.66996726 8.81851111 -10.19140625 6.50390625 C-9.56572754 6.08826416 -8.94004883 5.67262207 -8.29541016 5.24438477 C-7.06966241 4.4234076 -5.84911782 3.59460101 -4.63427734 2.75756836 C-3.13812896 1.76121 -1.57242755 0.8710118 0 0 Z " fill="#3592B4" transform="translate(167,32)"/>
<path d="M0 0 C2.91765891 -0.10806144 5.83131125 -0.18732877 8.75 -0.25 C9.9875 -0.30027344 9.9875 -0.30027344 11.25 -0.3515625 C17.38212863 -0.4504678 17.38212863 -0.4504678 20.37890625 1.734375 C21.18134766 2.85585937 21.18134766 2.85585937 22 4 C22.82564453 5.09828125 22.82564453 5.09828125 23.66796875 6.21875 C24.42013672 7.34796875 24.42013672 7.34796875 25.1875 8.5 C25.69667969 9.2528125 26.20585938 10.005625 26.73046875 10.78125 C28 13 28 13 29 17 C21.74 17.66 14.48 18.32 7 19 C4.74201716 15.23669526 2.94224641 11.81914223 1.25 7.8125 C0.57710937 6.24435547 0.57710937 6.24435547 -0.109375 4.64453125 C-0.40328125 3.77183594 -0.6971875 2.89914063 -1 2 C-0.67 1.34 -0.34 0.68 0 0 Z " fill="#F5F6F5" transform="translate(25,73)"/>
<path d="M0 0 C4.82658073 0.38472745 7.88677755 1.88747275 11.875 4.5625 C12.84179688 5.20316406 13.80859375 5.84382813 14.8046875 6.50390625 C15.52914062 6.99761719 16.25359375 7.49132812 17 8 C16.41602143 11.12912583 15.80442899 14.25221764 15.1875 17.375 C15.02185547 18.26445313 14.85621094 19.15390625 14.68554688 20.0703125 C14.51474609 20.92109375 14.34394531 21.771875 14.16796875 22.6484375 C13.94016724 23.82672119 13.94016724 23.82672119 13.70776367 25.02880859 C13 27 13 27 10 29 C9.01 28.67 8.02 28.34 7 28 C7 27.34 7 26.68 7 26 C6.34 26 5.68 26 5 26 C4.4225 25.401875 3.845 24.80375 3.25 24.1875 C0.71413784 21.72207845 -1.7974694 20.45569573 -5 19 C-4.52570374 16.86566682 -4.05102115 14.73143155 -3.57421875 12.59765625 C-3.19408305 10.87799475 -2.82156991 9.15662898 -2.45703125 7.43359375 C-2.28558594 6.63050781 -2.11414063 5.82742187 -1.9375 5 C-1.78152344 4.2575 -1.62554687 3.515 -1.46484375 2.75 C-1 1 -1 1 0 0 Z " fill="#F3F4F6" transform="translate(95,14)"/>
<path d="M0 0 C-0.26554687 0.556875 -0.53109375 1.11375 -0.8046875 1.6875 C-2.61408154 5.59684771 -4.16706088 9.27536417 -5.0625 13.5 C-5.371875 14.655 -5.68125 15.81 -6 17 C-6.99 17.33 -7.98 17.66 -9 18 C-9.38800781 17.50886719 -9.77601563 17.01773438 -10.17578125 16.51171875 C-12.61211696 14.49274247 -14.06930672 14.69101195 -17.1875 14.8125 C-18.08855469 14.83957031 -18.98960937 14.86664063 -19.91796875 14.89453125 C-20.60503906 14.92933594 -21.29210937 14.96414062 -22 15 C-21.67662692 12.05488433 -21.4959049 10.45982884 -19.28173828 8.40673828 C-18.55196777 7.96571777 -17.82219727 7.52469727 -17.0703125 7.0703125 C-16.27496094 6.585625 -15.47960937 6.1009375 -14.66015625 5.6015625 C-13.82355469 5.11429688 -12.98695313 4.62703125 -12.125 4.125 C-11.29613281 3.61453125 -10.46726563 3.1040625 -9.61328125 2.578125 C-3.40263971 -1.13421324 -3.40263971 -1.13421324 0 0 Z " fill="#29AEC5" transform="translate(170,33)"/>
<path d="M0 0 C3.35169022 5.08159485 5.56553518 9.76708032 5 16 C3.0625 18.5625 3.0625 18.5625 1 20 C0.06576355 16.98968256 -0.04449911 16.13349732 1 13 C-0.98 13 -2.96 13 -5 13 C-7.1543038 17.4399676 -7.41745846 21.47418774 -7.625 26.3125 C-7.66367188 27.05306641 -7.70234375 27.79363281 -7.7421875 28.55664062 C-7.83581705 30.37071309 -7.91896851 32.18532116 -8 34 C-8.33 34 -8.66 34 -9 34 C-10.21724193 23.66077642 -10.43324797 13.97748959 -7 4 C-3.82447665 0 -3.82447665 0 0 0 Z " fill="#5791D0" transform="translate(174,35)"/>
<path d="M0 0 C0.66 0.33 1.32 0.66 2 1 C1.98839844 2.03640625 1.97679688 3.0728125 1.96484375 4.140625 C1.95546163 5.51041486 1.94636188 6.88020668 1.9375 8.25 C1.92912109 8.93191406 1.92074219 9.61382812 1.91210938 10.31640625 C1.89518586 13.8026497 2.1466503 16.58660119 3 20 C-3.93 20 -10.86 20 -18 20 C-18.68543143 15.88741141 -19.11726187 12.67737862 -19.0625 8.625 C-19.05347656 7.75101563 -19.04445313 6.87703125 -19.03515625 5.9765625 C-19.02355469 5.32429688 -19.01195313 4.67203125 -19 4 C-16.525 4.495 -16.525 4.495 -14 5 C-13.67 6.65 -13.34 8.3 -13 10 C-13.99 10.33 -14.98 10.66 -16 11 C-16 12.98 -16 14.96 -16 17 C-11.71 17 -7.42 17 -3 17 C-3 15.411875 -3 13.82375 -3 12.1875 C-3 4 -3 4 -2 1 C-1.34 0.67 -0.68 0.34 0 0 Z " fill="#35D4CD" transform="translate(42,54)"/>
<path d="M0 0 C0.33 0 0.66 0 1 0 C1.66 5.28 2.32 10.56 3 16 C3.99 16.33 4.98 16.66 6 17 C6 18.32 6 19.64 6 21 C1.04274768 20.47868283 -2.28207993 18.14796788 -6.3125 15.4375 C-6.95767578 15.01275391 -7.60285156 14.58800781 -8.26757812 14.15039062 C-9.84973954 13.10733607 -11.42552501 12.05462128 -13 11 C-12.34 9.68 -11.68 8.36 -11 7 C-10.34 7 -9.68 7 -9 7 C-9 8.32 -9 9.64 -9 11 C-8.01 11 -7.02 11 -6 11 C-5.814375 10.0409375 -5.814375 10.0409375 -5.625 9.0625 C-5.41875 8.381875 -5.2125 7.70125 -5 7 C-4.34 6.67 -3.68 6.34 -3 6 C-1.95191959 4.02477154 -0.9479589 2.02518491 0 0 Z " fill="#4A3D79" transform="translate(163,69)"/>
<path d="M0 0 C0.99 0.33 1.98 0.66 3 1 C-7.94905373 10.6243534 -20.72447165 14.59540112 -35.25 13.75 C-40.07201125 13.31019018 -44.44331303 12.6273882 -49 11 C-49 10.67 -49 10.34 -49 10 C-42.25 8.875 -42.25 8.875 -40 10 C-36.94340388 10.23870255 -33.87739258 10.1851973 -30.8125 10.1875 C-29.97396484 10.19974609 -29.13542969 10.21199219 -28.27148438 10.22460938 C-23.11669193 10.23668149 -18.8809741 9.67102361 -14 8 C-13.67 6.68 -13.34 5.36 -13 4 C-11.96875 4.0825 -10.9375 4.165 -9.875 4.25 C-5.38142014 3.96009162 -3.60961485 2.54313773 0 0 Z " fill="#483E6E" transform="translate(108,102)"/>
<path d="M0 0 C0.89482929 2.481885 1.12121002 3.65951558 0.22265625 6.18359375 C-0.35162109 7.29927734 -0.35162109 7.29927734 -0.9375 8.4375 C-2.63013606 11.86921262 -2.63013606 11.86921262 -2.9375 15.625 C-3.03786345 19.43881126 -5.41793004 22.28491432 -8 25 C-8.66 25 -9.32 25 -10 25 C-12.12046792 28.53411321 -12.53199289 31.94393835 -13 36 C-13.99 36 -14.98 36 -16 36 C-16.99 36.495 -16.99 36.495 -18 37 C-16.125 31.25 -16.125 31.25 -15 29 C-15.66 28.67 -16.32 28.34 -17 28 C-16 26 -16 26 -13 25 C-10.26301451 21.27769973 -9.13305164 17.44504873 -8 13 C-7.01 13 -6.02 13 -5 13 C-4.855625 12.236875 -4.71125 11.47375 -4.5625 10.6875 C-4 8 -4 8 -3 5 C-2.34 5 -1.68 5 -1 5 C-0.67 3.35 -0.34 1.7 0 0 Z " fill="#416FA2" transform="translate(122,51)"/>
<path d="M0 0 C2.31 0.66 4.62 1.32 7 2 C6.53851563 2.69738281 6.07703125 3.39476562 5.6015625 4.11328125 C3.9131124 7.1566096 3.14032428 9.80241184 2.375 13.1875 C1.07744875 18.84510251 1.07744875 18.84510251 0 21 C-0.54527344 20.855625 -1.09054688 20.71125 -1.65234375 20.5625 C-12.11532439 17.98699707 -21.41250109 18.29453186 -31 23.6875 C-31.66 24.120625 -32.32 24.55375 -33 25 C-33.66 25 -34.32 25 -35 25 C-35 24.01 -35 23.02 -35 22 C-34.01 22 -33.02 22 -32 22 C-32 21.34 -32 20.68 -32 20 C-28.4052671 17.31477783 -25.80901213 16.62864194 -21.3671875 16.671875 C-19.78744141 16.67960937 -19.78744141 16.67960937 -18.17578125 16.6875 C-16.54189453 16.7184375 -16.54189453 16.7184375 -14.875 16.75 C-13.77800781 16.75515625 -12.68101563 16.7603125 -11.55078125 16.765625 C-3.46501659 16.84499447 -3.46501659 16.84499447 0 18 C0.33 13.05 0.66 8.1 1 3 C0.01 2.67 -0.98 2.34 -2 2 C-1.34 1.34 -0.68 0.68 0 0 Z " fill="#5195C4" transform="translate(90,11)"/>
<path d="M0 0 C0.33 0 0.66 0 1 0 C1.11761144 3.95807715 1.18771882 7.91569621 1.25 11.875 C1.28351563 12.98359375 1.31703125 14.0921875 1.3515625 15.234375 C1.43550592 22.36956584 0.88419899 28.81929785 -3 35 C-6.0625 36.3125 -6.0625 36.3125 -9 36 C-11.13755856 34.39174165 -11.89915177 33.43187679 -12.51171875 30.80859375 C-12.59873047 29.63490234 -12.59873047 29.63490234 -12.6875 28.4375 C-12.78611328 27.25994141 -12.78611328 27.25994141 -12.88671875 26.05859375 C-12.9610813 24.70724678 -13 23.35339145 -13 22 C-12.34 22 -11.68 22 -11 22 C-10.67 21.01 -10.34 20.02 -10 19 C-8.82218942 22.68065805 -9 26.1644081 -9 30 C-8.67 30.99 -8.34 31.98 -8 33 C-7.01 33 -6.02 33 -5 33 C-5 32.01 -5 31.02 -5 30 C-4.34 30 -3.68 30 -3 30 C-2.855625 29.278125 -2.71125 28.55625 -2.5625 27.8125 C-2.21634243 26.08171214 -1.85940894 24.3529881 -1.48461914 22.62817383 C-1.01855911 20.10064929 -0.79944271 17.70194564 -0.68359375 15.13671875 C-0.64169922 14.25048828 -0.59980469 13.36425781 -0.55664062 12.45117188 C-0.51732422 11.53916016 -0.47800781 10.62714844 -0.4375 9.6875 C-0.39431641 8.75615234 -0.35113281 7.82480469 -0.30664062 6.86523438 C-0.20102775 4.57695546 -0.09892248 2.28857628 0 0 Z " fill="#3FB4BC" transform="translate(178,52)"/>
<path d="M0 0 C0.99 0.66 1.98 1.32 3 2 C2.49396008 4.16874252 2.00016187 5.99967627 1 8 C1.33 8.66 1.66 9.32 2 10 C1.34 10 0.68 10 0 10 C0 10.66 0 11.32 0 12 C-0.99 12.495 -0.99 12.495 -2 13 C-2.33 13.99 -2.66 14.98 -3 16 C-5.0625 17.1875 -5.0625 17.1875 -7 18 C-7.33 17.01 -7.66 16.02 -8 15 C-8.66 15 -9.32 15 -10 15 C-9.35494404 11.51669784 -8.01782732 8.90567134 -6 6 C-5.34 6 -4.68 6 -4 6 C-3.34 4.68 -2.68 3.36 -2 2 C-1.34 2 -0.68 2 0 2 C0 1.34 0 0.68 0 0 Z " fill="#43A0D3" transform="translate(41,22)"/>
<path d="M0 0 C0 0.66 0 1.32 0 2 C0.66 2 1.32 2 2 2 C2.33 2.99 2.66 3.98 3 5 C2.34 5 1.68 5 1 5 C0.67 5.99 0.34 6.98 0 8 C-0.44988281 8.43957031 -0.89976563 8.87914062 -1.36328125 9.33203125 C-3.52750799 11.53757974 -4.74444388 13.96172733 -6.1875 16.6875 C-6.71730469 17.68136719 -7.24710938 18.67523438 -7.79296875 19.69921875 C-8.19128906 20.45847656 -8.58960938 21.21773437 -9 22 C-9.33 22 -9.66 22 -10 22 C-10 20.35 -10 18.7 -10 17 C-9.34 17 -8.68 17 -8 17 C-8.3403125 16.13375 -8.3403125 16.13375 -8.6875 15.25 C-9 13 -9 13 -7.6875 10.75 C-7.130625 10.1725 -6.57375 9.595 -6 9 C-5.34 9 -4.68 9 -4 9 C-4.33 8.34 -4.66 7.68 -5 7 C-5.99 7.495 -5.99 7.495 -7 8 C-7.36275695 3.52599758 -7.36275695 3.52599758 -5.75 1.1875 C-4 0 -4 0 0 0 Z " fill="#38AACB" transform="translate(53,32)"/>
<path d="M0 0 C0.33 0.66 0.66 1.32 1 2 C0.34 2 -0.32 2 -1 2 C-1 2.66 -1 3.32 -1 4 C-1.56589844 4.26554687 -2.13179687 4.53109375 -2.71484375 4.8046875 C-3.81505859 5.33449219 -3.81505859 5.33449219 -4.9375 5.875 C-5.66839844 6.22304687 -6.39929688 6.57109375 -7.15234375 6.9296875 C-9.16332459 7.8684977 -9.16332459 7.8684977 -10 10 C-10.99 10 -11.98 10 -13 10 C-13.33 10.66 -13.66 11.32 -14 12 C-14.66 11.67 -15.32 11.34 -16 11 C-16.33 11.66 -16.66 12.32 -17 13 C-17.99 12.67 -18.98 12.34 -20 12 C-20.33 10.02 -20.66 8.04 -21 6 C-19.85724609 5.85304688 -19.85724609 5.85304688 -18.69140625 5.703125 C-11.87195358 4.71553885 -6.11849629 3.18285413 0 0 Z " fill="#4D528A" transform="translate(95,90)"/>
<path d="M0 0 C0.33 0 0.66 0 1 0 C1 6.6 1 13.2 1 20 C11.56 20 22.12 20 33 20 C33 20.33 33 20.66 33 21 C22.11 21 11.22 21 0 21 C-1.74504646 15.76486063 -2.22520841 13.92396909 -1.6875 8.8125 C-1.58824219 7.78769531 -1.48898437 6.76289062 -1.38671875 5.70703125 C-1 3 -1 3 0 0 Z " fill="#8D8D8D" transform="translate(389,35)"/>
<path d="M0 0 C-3.79692186 2.82561627 -6.18569279 4.56638908 -11 4 C-11 4.99 -11 5.98 -11 7 C-14.36818523 8.12272841 -16.57154472 7.70327288 -20 7 C-20.99 7.33 -21.98 7.66 -23 8 C-23 6.68 -23 5.36 -23 4 C-17.06 3.505 -17.06 3.505 -11 3 C-11 2.34 -11 1.68 -11 1 C-3.375 -1.125 -3.375 -1.125 0 0 Z " fill="#533F82" transform="translate(73,105)"/>
<path d="M0 0 C0.66 0 1.32 0 2 0 C1.67 2.64 1.34 5.28 1 8 C0.01 8.33 -0.98 8.66 -2 9 C-2.58201172 8.26330078 -2.58201172 8.26330078 -3.17578125 7.51171875 C-5.61211696 5.49274247 -7.06930672 5.69101195 -10.1875 5.8125 C-11.08855469 5.83957031 -11.98960937 5.86664063 -12.91796875 5.89453125 C-13.60503906 5.92933594 -14.29210937 5.96414062 -15 6 C-14.67 4.35 -14.34 2.7 -14 1 C-13.67 1.66 -13.34 2.32 -13 3 C-9.97065509 3.65772428 -9.97065509 3.65772428 -7 4 C-6.67 3.01 -6.34 2.02 -6 1 C-3.03 1.495 -3.03 1.495 0 2 C0 1.34 0 0.68 0 0 Z " fill="#36A6C5" transform="translate(163,42)"/>
<path d="M0 0 C1 3 1 3 0.0625 5.1875 C-0.4634375 6.0846875 -0.4634375 6.0846875 -1 7 C-0.34 7 0.32 7 1 7 C1 7.99 1 8.98 1 10 C1.66 10 2.32 10 3 10 C3 10.66 3 11.32 3 12 C1.88625 11.95875 0.7725 11.9175 -0.375 11.875 C-4.04366025 11.58878141 -4.04366025 11.58878141 -6 14 C-5.9131252 12.04082341 -5.80495488 10.08258129 -5.6875 8.125 C-5.62949219 7.03445312 -5.57148437 5.94390625 -5.51171875 4.8203125 C-5.34285156 3.88960938 -5.17398438 2.95890625 -5 2 C-2 0 -2 0 0 0 Z " fill="#3C6DA3" transform="translate(133,62)"/>
<path d="M0 0 C0.33 0 0.66 0 1 0 C1.17835515 4.54805635 0.99785435 7.8794254 -1 12 C-1.66 12 -2.32 12 -3 12 C-3 12.99 -3 13.98 -3 15 C-3.99 15 -4.98 15 -6 15 C-8.29013653 11.5647952 -8.17842973 10.014669 -8 6 C-6.68 5.67 -5.36 5.34 -4 5 C-4 6.98 -4 8.96 -4 11 C-3.34 11 -2.68 11 -2 11 C-2.061875 9.39125 -2.061875 9.39125 -2.125 7.75 C-2.0114175 4.34252515 -1.78726636 2.79260369 0 0 Z " fill="#1FD9DD" transform="translate(176,70)"/>
<path d="M0 0 C4.95 0.33 9.9 0.66 15 1 C15 2.65 15 4.3 15 6 C13.35 6.66 11.7 7.32 10 8 C9.34 7.34 8.68 6.68 8 6 C8.99 5.67 9.98 5.34 11 5 C6.59085217 3.89771304 2.51617599 3.92345464 -2 4 C-1.34 2.68 -0.68 1.36 0 0 Z " fill="#59397F" transform="translate(35,108)"/>
<path d="M0 0 C2.16874252 0.50603992 3.99967627 0.99983813 6 2 C6 2.66 6 3.32 6 4 C4.8553125 4.2165625 4.8553125 4.2165625 3.6875 4.4375 C0.01409546 6.57320032 -0.19217248 8.77905394 -1.30859375 12.734375 C-2.13744145 15.45037313 -3.41201664 17.65583409 -5 20 C-6 17 -6 17 -5.29296875 15.01953125 C-4.74576172 13.92705078 -4.74576172 13.92705078 -4.1875 12.8125 C-2.18147652 8.57833279 -0.9974286 4.57154775 0 0 Z " fill="#3BB6CB" transform="translate(124,47)"/>
<path d="M0 0 C0.97683252 2.59098869 1.11350885 3.70278605 0.109375 6.33203125 C-0.33921875 7.15058594 -0.7878125 7.96914063 -1.25 8.8125 C-2.87402598 11.84133082 -4.35528479 14.7830075 -5.5625 18 C-7 21 -7 21 -11 23 C-10.34 20.03 -9.68 17.06 -9 14 C-7.68 13.67 -6.36 13.34 -5 13 C-4.855625 12.236875 -4.71125 11.47375 -4.5625 10.6875 C-4 8 -4 8 -3 5 C-2.34 5 -1.68 5 -1 5 C-0.67 3.35 -0.34 1.7 0 0 Z " fill="#3F5B99" transform="translate(122,51)"/>
<path d="M0 0 C0.74056641 0.09990234 1.48113281 0.19980469 2.24414062 0.30273438 C4.05959637 0.54869935 5.87370071 0.80460374 7.6875 1.0625 C7.6875 2.0525 7.6875 3.0425 7.6875 4.0625 C-7.09382118 3.28345672 -7.09382118 3.28345672 -13.3125 1.0625 C-13.3125 0.7325 -13.3125 0.4025 -13.3125 0.0625 C-8.67180898 -1.24641285 -4.68022241 -0.67338321 0 0 Z " fill="#573973" transform="translate(72.3125,111.9375)"/>
<path d="M0 0 C0.66 0.33 1.32 0.66 2 1 C-2.41097525 6.73426782 -2.41097525 6.73426782 -6.3125 7.38671875 C-7.6428125 7.53560547 -7.6428125 7.53560547 -9 7.6875 C-9.886875 7.79449219 -10.77375 7.90148437 -11.6875 8.01171875 C-14 8 -14 8 -16 6 C-14.49888649 4.49888649 -12.88007068 4.51981249 -10.8125 4.125 C-6.82512045 3.29323771 -3.63055143 1.85955073 0 0 Z " fill="#553D75" transform="translate(35,106)"/>
<path d="M0 0 C4.06543167 0.44855025 6.87543602 1.90860657 10.3125 4.0625 C11.19550781 4.61035156 12.07851562 5.15820312 12.98828125 5.72265625 C13.65214844 6.14417969 14.31601563 6.56570312 15 7 C13.296875 8.1484375 13.296875 8.1484375 11 9 C8.640625 8.1015625 8.640625 8.1015625 6.25 6.625 C5.45078125 6.14289063 4.6515625 5.66078125 3.828125 5.1640625 C3.22484375 4.77992187 2.6215625 4.39578125 2 4 C2 3.34 2 2.68 2 2 C1.01 1.67 0.02 1.34 -1 1 C-0.67 0.67 -0.34 0.34 0 0 Z " fill="#44588E" transform="translate(136,69)"/>
<path d="M0 0 C2.31 0 4.62 0 7 0 C8.125 4.75 8.125 4.75 7 7 C5.02 7 3.04 7 1 7 C0.67 4.69 0.34 2.38 0 0 Z " fill="#1CDFDA" transform="translate(25,64)"/>
<path d="M0 0 C3 4.22222222 3 4.22222222 3 7 C1.35 7.33 -0.3 7.66 -2 8 C-1.67 6.68 -1.34 5.36 -1 4 C-1.99 4 -2.98 4 -4 4 C-4.33 5.98 -4.66 7.96 -5 10 C-5.99 9.67 -6.98 9.34 -8 9 C-5.4 0 -5.4 0 0 0 Z " fill="#557CBB" transform="translate(174,35)"/>
<path d="M0 0 C0.99 0 1.98 0 3 0 C3.59222907 3.01264352 4.05823431 5.92416977 4 9 C2.0625 11.5625 2.0625 11.5625 0 13 C-0.93423645 9.98968256 -1.04449911 9.13349732 0 6 C-0.66 5.67 -1.32 5.34 -2 5 C-1.34 3.35 -0.68 1.7 0 0 Z " fill="#4989CA" transform="translate(175,42)"/>
<path d="M0 0 C0.99 0.66 1.98 1.32 3 2 C2.49396008 4.16874252 2.00016187 5.99967627 1 8 C0.34 7.67 -0.32 7.34 -1 7 C-1 7.99 -1 8.98 -1 10 C-3.97 9.505 -3.97 9.505 -7 9 C-6.67 8.01 -6.34 7.02 -6 6 C-5.34 6 -4.68 6 -4 6 C-3.34 4.68 -2.68 3.36 -2 2 C-1.34 2 -0.68 2 0 2 C0 1.34 0 0.68 0 0 Z " fill="#4D99DC" transform="translate(41,22)"/>
<path d="M0 0 C0.66 0.33 1.32 0.66 2 1 C1.98839844 2.03640625 1.97679687 3.0728125 1.96484375 4.140625 C1.95546163 5.51041486 1.94636188 6.88020668 1.9375 8.25 C1.92912109 8.93191406 1.92074219 9.61382812 1.91210938 10.31640625 C1.89571608 13.69342554 1.94371232 16.77291639 3 20 C1.02 19.67 -0.96 19.34 -3 19 C-2.01 18.67 -1.02 18.34 0 18 C-0.144375 17.10796875 -0.28875 16.2159375 -0.4375 15.296875 C-0.623125 14.12640625 -0.80875 12.9559375 -1 11.75 C-1.185625 10.58984375 -1.37125 9.4296875 -1.5625 8.234375 C-2 5 -2 5 -2 1 C-1.34 0.67 -0.68 0.34 0 0 Z " fill="#3DC3D0" transform="translate(42,54)"/>
<path d="M0 0 C2.31 0.66 4.62 1.32 7 2 C6.53980469 2.69480469 6.07960938 3.38960937 5.60546875 4.10546875 C3.89927453 7.18159993 3.10149131 9.89353768 2.3125 13.3125 C2.06113281 14.38113281 1.80976562 15.44976562 1.55078125 16.55078125 C1.36902344 17.35902344 1.18726562 18.16726562 1 19 C0.67 19 0.34 19 0 19 C0.33 13.72 0.66 8.44 1 3 C0.01 2.67 -0.98 2.34 -2 2 C-1.34 1.34 -0.68 0.68 0 0 Z " fill="#7D97D3" transform="translate(90,11)"/>
<path d="M0 0 C0.33 0 0.66 0 1 0 C1.66 4.62 2.32 9.24 3 14 C-0.03898126 12.98700625 -1.12139167 12.5048111 -3 10 C-3.66311243 5.80028796 -2.42803435 3.39924809 0 0 Z " fill="#46588E" transform="translate(163,69)"/>
<path d="M0 0 C-0.969375 0.4125 -1.93875 0.825 -2.9375 1.25 C-3.948125 1.8275 -4.95875 2.405 -6 3 C-6.33 4.32 -6.66 5.64 -7 7 C-10.3 7.66 -13.6 8.32 -17 9 C-12.90717886 4.37907291 -6.42502595 -2.14167532 0 0 Z " fill="#5780C4" transform="translate(59,14)"/>
<path d="M0 0 C0.66 0.99 1.32 1.98 2 3 C4.32300384 3.41609272 4.32300384 3.41609272 7.0078125 3.29296875 C7.99394531 3.28330078 8.98007812 3.27363281 9.99609375 3.26367188 C11.54490234 3.2259668 11.54490234 3.2259668 13.125 3.1875 C14.16527344 3.17396484 15.20554687 3.16042969 16.27734375 3.14648438 C18.85207627 3.11105228 21.4257833 3.06165221 24 3 C24 3.33 24 3.66 24 4 C18.51730931 5.15664737 13.19660726 5.11416255 7.625 5.0625 C6.69816406 5.05798828 5.77132812 5.05347656 4.81640625 5.04882812 C2.54420291 5.03711574 0.27213612 5.02071372 -2 5 C-1.34 3.35 -0.68 1.7 0 0 Z " fill="#51498B" transform="translate(38,104)"/>
<path d="M0 0 C2.475 0.495 2.475 0.495 5 1 C5.33 2.65 5.66 4.3 6 6 C5.01 6.33 4.02 6.66 3 7 C2.67 7.99 2.34 8.98 2 10 C1.34 10 0.68 10 0 10 C0 6.7 0 3.4 0 0 Z " fill="#4BD1D5" transform="translate(23,58)"/>
<path d="M0 0 C0 0.66 0 1.32 0 2 C0.66 2.33 1.32 2.66 2 3 C1.01 3 0.02 3 -1 3 C-1 4.32 -1 5.64 -1 7 C-2.98 7.33 -4.96 7.66 -7 8 C-7.36275695 3.52599758 -7.36275695 3.52599758 -5.75 1.1875 C-4 0 -4 0 0 0 Z " fill="#43A5E4" transform="translate(53,32)"/>
<path d="M0 0 C0.33 0.66 0.66 1.32 1 2 C3.45873768 1.85941524 5.91685175 1.71277001 8.375 1.5625 C9.07367188 1.52318359 9.77234375 1.48386719 10.4921875 1.44335938 C14.37360492 1.25719866 14.37360492 1.25719866 18 0 C20.125 0.4375 20.125 0.4375 22 1 C22 1.99 22 2.98 22 4 C14.08 3.67 6.16 3.34 -2 3 C-2 2.34 -2 1.68 -2 1 C-1.34 0.67 -0.68 0.34 0 0 Z " fill="#5196E3" transform="translate(68,25)"/>
<path d="M0 0 C0 0.66 0 1.32 0 2 C-6.20514474 4.13619737 -11.42684522 5.36517527 -18 5 C-17.67 4.34 -17.34 3.68 -17 3 C-14.34765625 2.40234375 -14.34765625 2.40234375 -11.0625 1.9375 C-7.26722553 1.39014814 -3.73386065 0 0 0 Z " fill="#483264" transform="translate(97,110)"/>
<path d="M0 0 C0.33 0.99 0.66 1.98 1 3 C-0.07421875 4.97265625 -0.07421875 4.97265625 -1.6875 7.0625 C-2.20699219 7.75472656 -2.72648437 8.44695312 -3.26171875 9.16015625 C-5.06223358 11.0658697 -6.60035853 11.99100043 -9 13 C-9 9.25983417 -8.0658409 8.54723807 -5.625 5.8125 C-4.68527344 4.73935547 -4.68527344 4.73935547 -3.7265625 3.64453125 C-2 2 -2 2 0 2 C0 1.34 0 0.68 0 0 Z " fill="#3E5A82" transform="translate(107,78)"/>
<path d="M0 0 C1.58206057 0.00667536 3.16410534 0.0186375 4.74609375 0.03515625 C5.55240234 0.03966797 6.35871094 0.04417969 7.18945312 0.04882812 C9.18753131 0.06065107 11.18557158 0.07858711 13.18359375 0.09765625 C9.9411432 1.99548868 7.28768223 2.42394714 3.55859375 2.66015625 C-0.2736178 2.8410408 -0.2736178 2.8410408 -3.81640625 4.09765625 C-4.14640625 3.10765625 -4.47640625 2.11765625 -4.81640625 1.09765625 C-3.81640625 0.09765625 -3.81640625 0.09765625 0 0 Z " fill="#CDF7F6" transform="translate(28.81640625,72.90234375)"/>
<path d="M0 0 C1.98 0.99 1.98 0.99 4 2 C4 6.95 4 11.9 4 17 C3.34 17 2.68 17 2 17 C1.93941406 16.10796875 1.87882812 15.2159375 1.81640625 14.296875 C1.73261719 13.12640625 1.64882812 11.9559375 1.5625 10.75 C1.48128906 9.58984375 1.40007812 8.4296875 1.31640625 7.234375 C1.06752213 4.69022624 0.71885058 2.44046752 0 0 Z " fill="#414370" transform="translate(108,52)"/>
<path d="M0 0 C0.33 0.66 0.66 1.32 1 2 C4.02934491 2.65772428 4.02934491 2.65772428 7 3 C7.33 2.01 7.66 1.02 8 0 C8.99 0.99 9.98 1.98 11 3 C9 5 9 5 6.6171875 5.1953125 C5.71226562 5.17210937 4.80734375 5.14890625 3.875 5.125 C2.50988281 5.09792969 2.50988281 5.09792969 1.1171875 5.0703125 C0.41851562 5.04710937 -0.28015625 5.02390625 -1 5 C-0.67 3.35 -0.34 1.7 0 0 Z " fill="#26A6C6" transform="translate(149,43)"/>
<path d="M0 0 C0.721875 0.144375 1.44375 0.28875 2.1875 0.4375 C5.19065047 1.03813009 7.94552036 1.07103441 11 1 C10.67 1.99 10.34 2.98 10 4 C2.49230769 4.36923077 2.49230769 4.36923077 0 2.5 C-0.33 2.005 -0.66 1.51 -1 1 C-0.67 0.67 -0.34 0.34 0 0 Z " fill="#52336F" transform="translate(17,112)"/>
<path d="M0 0 C0 0.99 0 1.98 0 3 C0.66 3 1.32 3 2 3 C2 3.66 2 4.32 2 5 C0.88625 4.95875 -0.2275 4.9175 -1.375 4.875 C-5.04366025 4.58878141 -5.04366025 4.58878141 -7 7 C-7 5.68 -7 4.36 -7 3 C-6.01 3 -5.02 3 -4 3 C-4 2.34 -4 1.68 -4 1 C-2 0 -2 0 0 0 Z " fill="#4C648C" transform="translate(134,69)"/>
<path d="M0 0 C0.66 0.33 1.32 0.66 2 1 C2 1.66 2 2.32 2 3 C2.99 3.33 3.98 3.66 5 4 C3.25 8.875 3.25 8.875 1 10 C0.63883954 8.5225254 0.28624952 7.04295325 -0.0625 5.5625 C-0.25972656 4.73878906 -0.45695313 3.91507812 -0.66015625 3.06640625 C-0.82837891 2.04353516 -0.82837891 2.04353516 -1 1 C-0.67 0.67 -0.34 0.34 0 0 Z " fill="#533D89" transform="translate(158,76)"/>
<path d="M0 0 C0.33 0.66 0.66 1.32 1 2 C1.99 2 2.98 2 4 2 C4.33 1.34 4.66 0.68 5 0 C5.66 0.66 6.32 1.32 7 2 C6.34 2 5.68 2 5 2 C5 2.66 5 3.32 5 4 C3.625 5.625 3.625 5.625 2 7 C1.34 7 0.68 7 0 7 C0 5.68 0 4.36 0 3 C-0.99 2.67 -1.98 2.34 -3 2 C-2.01 1.34 -1.02 0.68 0 0 Z " fill="#45A4E1" transform="translate(36,30)"/>
<path d="M0 0 C0.33 0.66 0.66 1.32 1 2 C0.01 3.485 0.01 3.485 -1 5 C-0.69159401 7.15274948 -0.69159401 7.15274948 0 9 C-1.65 9.33 -3.3 9.66 -5 10 C-5.33 9.34 -5.66 8.68 -6 8 C-5.34 7.67 -4.68 7.34 -4 7 C-3.7834375 6.071875 -3.7834375 6.071875 -3.5625 5.125 C-2.90282543 2.63289608 -1.91711371 1.6670554 0 0 Z " fill="#4B93E2" transform="translate(46,21)"/>
<path d="M0 0 C2.02907167 3.3146667 2.12742133 5.4315979 1.625 9.25 C1.51414063 10.14203125 1.40328125 11.0340625 1.2890625 11.953125 C1.19367188 12.62859375 1.09828125 13.3040625 1 14 C0.34 14 -0.32 14 -1 14 C-1.16802051 12.54182203 -1.33437143 11.0834516 -1.5 9.625 C-1.5928125 8.81289062 -1.685625 8.00078125 -1.78125 7.1640625 C-2 5 -2 5 -2 3 C-1.34 3 -0.68 3 0 3 C0 2.01 0 1.02 0 0 Z " fill="#62C5CF" transform="translate(167,71)"/>
<path d="M0 0 C1.33332095 2.6666419 0.67102033 4.16680303 0 7 C-2.97 6.505 -2.97 6.505 -6 6 C-4.75453595 2.26360784 -3.36595047 1.81243487 0 0 Z " fill="#2D9DB3" transform="translate(156,39)"/>
<path d="M0 0 C2.64 0 5.28 0 8 0 C8 0.66 8 1.32 8 2 C2.375 4 2.375 4 -1 4 C-0.67 2.68 -0.34 1.36 0 0 Z " fill="#5A6FB9" transform="translate(73,9)"/>
<path d="M0 0 C2.64 0.33 5.28 0.66 8 1 C7.01 1.495 7.01 1.495 6 2 C6 2.66 6 3.32 6 4 C3.36 4 0.72 4 -2 4 C-1.34 2.68 -0.68 1.36 0 0 Z " fill="#503482" transform="translate(35,108)"/>
<path d="M0 0 C0.66 1.32 1.32 2.64 2 4 C1.21654285 5.17219543 0.42297164 6.33763668 -0.375 7.5 C-0.81585938 8.1496875 -1.25671875 8.799375 -1.7109375 9.46875 C-2.13632813 9.9740625 -2.56171875 10.479375 -3 11 C-3.66 11 -4.32 11 -5 11 C-4.67 9.68 -4.34 8.36 -4 7 C-3.34 7 -2.68 7 -2 7 C-1.34 4.69 -0.68 2.38 0 0 Z " fill="#3B80B1" transform="translate(117,65)"/>
<path d="M0 0 C0 0.99 0 1.98 0 3 C-0.763125 2.979375 -1.52625 2.95875 -2.3125 2.9375 C-5.10185786 2.87057159 -5.10185786 2.87057159 -8 4 C-8 2.68 -8 1.36 -8 0 C-2.25 -1.125 -2.25 -1.125 0 0 Z " fill="#4B4072" transform="translate(58,109)"/>
<path d="M0 0 C0.33 0.66 0.66 1.32 1 2 C0.34 2 -0.32 2 -1 2 C-1 2.66 -1 3.32 -1 4 C-4.50776784 5.60355101 -7.14354879 6.22036864 -11 6 C-8.84733158 3.84733158 -7.15226256 3.06525538 -4.375 1.875 C-3.55773437 1.52179688 -2.74046875 1.16859375 -1.8984375 0.8046875 C-1.27195312 0.53914063 -0.64546875 0.27359375 0 0 Z " fill="#495071" transform="translate(95,90)"/>
<path d="M0 0 C0.33 0 0.66 0 1 0 C1.17835515 4.54805635 0.99785435 7.8794254 -1 12 C-1.33 12 -1.66 12 -2 12 C-2.28571429 3.42857143 -2.28571429 3.42857143 0 0 Z " fill="#27D0DA" transform="translate(176,70)"/>
<path d="M0 0 C1.46795245 3.81667636 0.59626457 6.32859149 -1 10 C-1.99 10.66 -2.98 11.32 -4 12 C-3.33501617 7.61110675 -1.81242323 4.0188515 0 0 Z " fill="#3399C0" transform="translate(122,55)"/>
<path d="M0 0 C0.93045933 2.55144824 1.08564091 3.74006478 0.22265625 6.359375 C-0.16019531 7.14828125 -0.54304688 7.9371875 -0.9375 8.75 C-1.50791016 9.94882812 -1.50791016 9.94882812 -2.08984375 11.171875 C-2.39019531 11.77515625 -2.69054687 12.3784375 -3 13 C-3.33 13 -3.66 13 -4 13 C-3.67 10.36 -3.34 7.72 -3 5 C-2.34 5 -1.68 5 -1 5 C-0.67 3.35 -0.34 1.7 0 0 Z " fill="#356A9E" transform="translate(122,51)"/>
<path d="M0 0 C1.65 0 3.3 0 5 0 C4.34 3.3 3.68 6.6 3 10 C2.67 10 2.34 10 2 10 C1.34 6.7 0.68 3.4 0 0 Z " fill="#2E94BC" transform="translate(126,54)"/>
<path d="M0 0 C1.32 0.66 2.64 1.32 4 2 C3.34 3.65 2.68 5.3 2 7 C1.34 7 0.68 7 0 7 C0 6.01 0 5.02 0 4 C-0.99 3.67 -1.98 3.34 -3 3 C-2.01 2.01 -1.02 1.02 0 0 Z " fill="#2D93BC" transform="translate(146,49)"/>
<path d="M0 0 C0.33 0.66 0.66 1.32 1 2 C1.66 2.33 2.32 2.66 3 3 C1.54364629 3.22174933 0.08477044 3.42698698 -1.375 3.625 C-2.18710937 3.74101563 -2.99921875 3.85703125 -3.8359375 3.9765625 C-4.55007812 3.98429687 -5.26421875 3.99203125 -6 4 C-6.66 3.34 -7.32 2.68 -8 2 C-6.03177114 0.03177114 -2.65191291 0.33751619 0 0 Z " fill="#6B5481" transform="translate(27,110)"/>
<path d="M0 0 C0.66 0 1.32 0 2 0 C2.3648363 4.25642352 1.47460354 6.53555505 -1 10 C-1.33 10 -1.66 10 -2 10 C-2 8.35 -2 6.7 -2 5 C-1.34 5 -0.68 5 0 5 C-0.2784375 4.0409375 -0.2784375 4.0409375 -0.5625 3.0625 C-0.7790625 2.0415625 -0.7790625 2.0415625 -1 1 C-0.67 0.67 -0.34 0.34 0 0 Z " fill="#35A4BA" transform="translate(45,44)"/>
<path d="M0 0 C0.99 0.33 1.98 0.66 3 1 C1.02 5.455 1.02 5.455 -1 10 C-2 6 -2 6 -1 3 C-1.66 2.67 -2.32 2.34 -3 2 C-2.01 1.34 -1.02 0.68 0 0 Z " fill="#4A90A0" transform="translate(167,32)"/>
<path d="M0 0 C1.98 0 3.96 0 6 0 C6.33 0.66 6.66 1.32 7 2 C6.360625 2.103125 5.72125 2.20625 5.0625 2.3125 C4.381875 2.539375 3.70125 2.76625 3 3 C2.67 3.99 2.34 4.98 2 6 C2 5.34 2 4.68 2 4 C1.01 3.67 0.02 3.34 -1 3 C-0.67 2.01 -0.34 1.02 0 0 Z " fill="#563683" transform="translate(95,106)"/>
<path d="M0 0 C0.66 0 1.32 0 2 0 C2.33 1.65 2.66 3.3 3 5 C2.01 5 1.02 5 0 5 C-0.33 5.99 -0.66 6.98 -1 8 C-1.04241723 5.66705225 -1.04092937 3.33297433 -1 1 C-0.67 0.67 -0.34 0.34 0 0 Z " fill="#3578A1" transform="translate(124,42)"/>
<path d="M0 0 C4 4.75 4 4.75 4 7 C2.35 7.33 0.7 7.66 -1 8 C-0.67 5.36 -0.34 2.72 0 0 Z " fill="#6182C7" transform="translate(173,35)"/>
<path d="M0 0 C-1.23944276 0.86941494 -2.49207059 1.72005457 -3.75 2.5625 C-4.44609375 3.03816406 -5.1421875 3.51382812 -5.859375 4.00390625 C-8 5 -8 5 -10.265625 4.65234375 C-10.83796875 4.43707031 -11.4103125 4.22179687 -12 4 C-10.56988027 3.13353333 -9.13059381 2.28218171 -7.6875 1.4375 C-6.48673828 0.72400391 -6.48673828 0.72400391 -5.26171875 -0.00390625 C-3 -1 -3 -1 0 0 Z " fill="#5973A8" transform="translate(59,14)"/>
<path d="M0 0 C0.33 0 0.66 0 1 0 C1.33 2.64 1.66 5.28 2 8 C2.99 8.33 3.98 8.66 5 9 C3.35 9.33 1.7 9.66 0 10 C0 6.7 0 3.4 0 0 Z " fill="#C4C4C4" transform="translate(63,74)"/>
<path d="M0 0 C0.66 0.66 1.32 1.32 2 2 C1.34 2 0.68 2 0 2 C0.061875 2.78375 0.12375 3.5675 0.1875 4.375 C0.125625 5.24125 0.06375 6.1075 0 7 C-0.99 7.66 -1.98 8.32 -3 9 C-3.36923077 3.46153846 -3.36923077 3.46153846 -1.5 1.125 C-1.005 0.75375 -0.51 0.3825 0 0 Z " fill="#2BCADB" transform="translate(28,52)"/>
<path d="M0 0 C2.64 0.33 5.28 0.66 8 1 C8 1.99 8 2.98 8 4 C5.36 3.34 2.72 2.68 0 2 C0 1.34 0 0.68 0 0 Z " fill="#578EB5" transform="translate(82,28)"/>
<path d="M0 0 C6.93 0.495 6.93 0.495 14 1 C14 1.33 14 1.66 14 2 C9.38 2.33 4.76 2.66 0 3 C0 2.01 0 1.02 0 0 Z " fill="#D5D8E7" transform="translate(32,89)"/>
<path d="M0 0 C0.33 0 0.66 0 1 0 C1.66 3.3 2.32 6.6 3 10 C0.03 9.505 0.03 9.505 -3 9 C-2.01 8.67 -1.02 8.34 0 8 C0 5.36 0 2.72 0 0 Z " fill="#7BC9C6" transform="translate(42,64)"/>
<path d="M0 0 C-3.08559304 2.26881841 -4.42209376 3.05451946 -8.3125 2.6875 C-9.199375 2.460625 -10.08625 2.23375 -11 2 C-11 1.67 -11 1.34 -11 1 C-3.375 -1.125 -3.375 -1.125 0 0 Z " fill="#4A4487" transform="translate(73,105)"/>
<path d="M0 0 C0.66 0.33 1.32 0.66 2 1 C2 2.32 2 3.64 2 5 C-2.75 4.25 -2.75 4.25 -5 2 C-3.35 2 -1.7 2 0 2 C0 1.34 0 0.68 0 0 Z " fill="#6B5789" transform="translate(167,85)"/>
<path d="M0 0 C2.97 0.495 2.97 0.495 6 1 C6 1.66 6 2.32 6 3 C5.34 3 4.68 3 4 3 C3.67 3.66 3.34 4.32 3 5 C3 4.34 3 3.68 3 3 C2.01 3 1.02 3 0 3 C0 2.01 0 1.02 0 0 Z " fill="#3F70A7" transform="translate(118,82)"/>
<path d="M0 0 C0.99 0.33 1.98 0.66 3 1 C2.01 2.98 1.02 4.96 0 7 C-0.66 6.67 -1.32 6.34 -2 6 C-1.34 4.02 -0.68 2.04 0 0 Z " fill="#4A5077" transform="translate(109,70)"/>
<path d="M0 0 C6.15234375 0.5859375 6.15234375 0.5859375 8 1 C8.33 1.66 8.66 2.32 9 3 C7.3125 3.6875 7.3125 3.6875 5 4 C2.25 2.625 2.25 2.625 0 1 C0 0.67 0 0.34 0 0 Z " fill="#434A7D" transform="translate(142,74)"/>
<path d="M0 0 C0 3 0 3 -2 6 C-2.66 6 -3.32 6 -4 6 C-3.67 4.35 -3.34 2.7 -3 1 C-2.01 0.67 -1.02 0.34 0 0 Z " fill="#5587EA" transform="translate(174,42)"/>
<path d="M0 0 C2.0625 0.4375 2.0625 0.4375 4 1 C3.01 1.495 3.01 1.495 2 2 C2 3.65 2 5.3 2 7 C1.34 7 0.68 7 0 7 C-0.38133299 5.0085944 -0.71325582 3.00720923 -1 1 C-0.67 0.67 -0.34 0.34 0 0 Z " fill="#5C5E9B" transform="translate(120,37)"/>
<path d="M0 0 C0.66 0 1.32 0 2 0 C1.67 2.31 1.34 4.62 1 7 C0.34 7 -0.32 7 -1 7 C-1.625 4.625 -1.625 4.625 -2 2 C-1.34 1.34 -0.68 0.68 0 0 Z " fill="#32B4CA" transform="translate(164,35)"/>
<path d="M0 0 C0.66 0.33 1.32 0.66 2 1 C-0.46153846 5.8 -0.46153846 5.8 -3.1875 6.8125 C-3.785625 6.874375 -4.38375 6.93625 -5 7 C-4.67 6.01 -4.34 5.02 -4 4 C-3.34 4 -2.68 4 -2 4 C-1.34 2.68 -0.68 1.36 0 0 Z " fill="#479BC2" transform="translate(39,24)"/>
</svg>
